<?xml version="1.0"?>
<svg width="60" height="30.000000000000004" xmlns="http://www.w3.org/2000/svg" xmlns:svg="http://www.w3.org/2000/svg">
 <g class="layer">
  <title>Layer 1</title>
  <rect fill="#e71b00" height="2.91518" id="svg_30" stroke="#ffffff" stroke-linejoin="round" stroke-width="0.5" transform="rotate(22.5 5.76811 16.118)" width="10.068341" x="0.733942" y="14.660429"/>
  <rect fill="#e71b00" height="2.91518" id="svg_97" stroke="#ffffff" stroke-linejoin="round" stroke-width="0.5" transform="matrix(1 0 0 1 0 0) rotate(22.5 37.8615 29.4524)" width="37.748297" x="18.987305" y="27.994787"/>
  <g id="svg_96" transform="rotate(-35 -12.8168 20.3072)">
   <g id="svg_28">
    <path d="m-39.406817,2.774724c-0.140995,-0.084597 -0.28199,-0.140995 -0.394786,-0.225592l-0.140995,0.28199c0.140995,0.084597 0.253791,0.140995 0.394786,0.225592c0.197393,0.112796 0.422985,0.197393 0.620378,0.310189l0.112796,-0.310189c-0.197393,-0.084597 -0.394786,-0.197393 -0.592179,-0.28199z" fill="none" id="svg_2"/>
    <path d="m-43.354679,-0.073376l-0.28199,0.140995c0.253791,0.28199 0.507582,0.56398 0.789572,0.817771l0.225592,-0.225592c-0.253791,-0.225592 -0.507582,-0.479383 -0.733174,-0.733174z" fill="none" id="svg_3"/>
    <path d="m-42.226719,0.969987l-0.225592,0.225592c0.253791,0.197393 0.535781,0.422985 0.817771,0.592179l0.169194,-0.253791c-0.28199,-0.169194 -0.535781,-0.366587 -0.761373,-0.56398z" fill="none" id="svg_4"/>
    <path d="m-38.391653,3.254107l-0.112796,0.310189c0.366587,0.169194 0.733174,0.310189 1.099762,0.451184l0.084597,-0.310189c-0.338388,-0.140995 -0.704975,-0.28199 -1.071562,-0.451184l-0.000001,0z" fill="none" id="svg_5"/>
    <path d="m-41.098758,1.787759l-0.169194,0.253791c0.310189,0.197393 0.592179,0.366587 0.930567,0.56398l0.140995,-0.28199c-0.310189,-0.169194 -0.620378,-0.338388 -0.902368,-0.535781z" fill="none" id="svg_6"/>
    <path d="m-42.113923,2.464535l0.084597,-0.112796c-0.112796,-0.028199 -0.197393,-0.028199 -0.225592,0.028199c-0.056398,0.084597 0.056398,0.253791 0.253791,0.366587c0.197393,0.112796 0.394786,0.140995 0.451184,0.056398c0.028199,-0.056398 0,-0.140995 -0.084597,-0.225592l-0.084597,0.140995l-0.394786,-0.253791z" fill="none" id="svg_7"/>
    <path d="m-50.207039,2.718326c0.507582,0 0.930567,-0.422985 0.930567,-0.930567s-0.422985,-0.930567 -0.930567,-0.930567c-0.507582,0 -0.930567,0.422985 -0.930567,0.930567s0.422985,0.930567 0.930567,0.930567zm-0.112796,-1.071562l0.169194,0l0.084597,0.140995l-0.084597,0.140995l-0.169194,0l-0.084597,-0.140995l0.084597,-0.140995z" fill="none" id="svg_8"/>
    <path d="m-44.623635,0.067619l0.084597,-0.056398c-0.112796,-0.056398 -0.225592,-0.084597 -0.253791,-0.056398c-0.084597,0.084597 0,0.253791 0.169194,0.422985c0.169194,0.169194 0.338388,0.225592 0.422985,0.169194c0.028199,-0.028199 0.028199,-0.112796 0,-0.169194l-0.197393,0.084597l-0.225592,-0.394786z" fill="none" id="svg_9"/>
    <path d="m-37.602081,4.805053l0.028199,-0.140995c-0.112796,0 -0.197393,0.028199 -0.197393,0.084597c-0.028199,0.084597 0.112796,0.225592 0.338388,0.310189c0.225592,0.084597 0.422985,0.056398 0.451184,-0.028199c0.028199,-0.056398 -0.028199,-0.140995 -0.140995,-0.197393l-0.028199,0.084597l-0.451184,-0.112796z" fill="none" id="svg_10"/>
    <path d="m-39.181225,4.128277l0.056398,-0.140995c-0.112796,0 -0.197393,0.028199 -0.225592,0.084597c-0.028199,0.084597 0.112796,0.225592 0.310189,0.310189s0.422985,0.084597 0.451184,-0.028199c0.028199,-0.056398 -0.028199,-0.140995 -0.112796,-0.197393l-0.056398,0.140995l-0.422985,-0.169194z" fill="none" id="svg_11"/>
    <path d="m-44.228849,-3.823845l0,-0.169194l0,-1.184359c-0.028199,0 -0.028199,0 -0.056398,0c-0.084597,0 -0.140995,0 -0.140995,0l0,0.620378l0,0.084597l0,0.535781l0,0.112796c0,0 0.056398,0 0.112796,0c0.028199,0 0.056398,0 0.084597,0l0,0.000001z" fill="none" id="svg_12"/>
    <path d="m-43.946858,-4.077636l0,-1.099762c0,0 -0.028199,0 -0.028199,0c-0.084597,0 -0.140995,0 -0.169194,0c0,0 0,0 0,0l0,0.620378l0,0.084597l0,0.422985l0,0.197393c0,0 0.084597,0 0.197393,0l0,-0.225592l0,0.000001z" fill="none" id="svg_13"/>
    <path d="m-44.539038,-3.908442l0,-1.268956c-0.084597,0 -0.197393,0 -0.197393,0l0,0.620378l0,0.084597l0,0.620378l0,0c0,0 0.084597,0 0.197393,0l0,-0.056398l0,0.000001z" fill="none" id="svg_14"/>
    <path d="m-44.821028,-5.149198c-0.084597,0 -0.197393,0 -0.197393,0l0,0.620378l0,0.084597l0,0.620378c0,0 0.084597,0 0.197393,0l0,-1.325354l0,0.000001z" fill="none" id="svg_15"/>
    <path d="m-45.103018,-5.149198c-0.084597,0 -0.197393,0 -0.197393,0l0,0.620378l0,0.084597l0,0.620378c0,0 0.084597,0 0.197393,0l0,-1.325354l0,0.000001z" fill="none" id="svg_16"/>
    <path d="m-48.063914,-3.96484c0.28199,0.084597 0.648577,0.140995 1.015164,0.140995c0.789572,0 1.635543,0 1.635543,0l0,-0.620378l0,-0.084597l0,-0.620378c0,0 -0.817771,0 -1.635543,0c-0.366587,0 -0.733174,0.084597 -1.015164,0.140995l0,0.084597c-0.056398,0.028199 -0.112796,0.028199 -0.140995,0.056398l0,0.789572c0.056398,0.028199 0.084597,0.028199 0.140995,0.056398l0,0.056398z" fill="none" id="svg_17"/>
    <path d="m-40.703972,3.310505l0.056398,-0.140995c-0.112796,-0.028199 -0.197393,0 -0.225592,0.056398c-0.056398,0.084597 0.084597,0.253791 0.28199,0.338388c0.197393,0.112796 0.394786,0.112796 0.451184,0.028199c0.028199,-0.056398 -0.028199,-0.140995 -0.084597,-0.225592l-0.028199,0.169194l-0.451184,-0.225592z" fill="none" id="svg_18"/>
    <path d="m-39.773405,10.980637c-0.28199,0 -0.507582,0.225592 -0.507582,0.507582c0,0.112796 0.056398,0.225592 0.112796,0.310189c0.084597,0.112796 0.225592,0.197393 0.394786,0.197393s0.310189,-0.084597 0.394786,-0.197393c0.056398,-0.084597 0.112796,-0.197393 0.112796,-0.310189c0,-0.28199 -0.225592,-0.507582 -0.507582,-0.507582z" fill="none" id="svg_19"/>
    <path d="m-38.47625,11.685612l0,0.112796l0.169194,0l0,-0.112796c0,-0.902368 -0.733174,-1.663742 -1.663742,-1.663742l-6.85236,0c-0.902368,0 -1.663742,0.733174 -1.663742,1.663742l0,0.112796l0.169194,0l0,-0.112796c0,-0.817771 0.676776,-1.494548 1.494548,-1.494548l6.85236,0c0.84597,-0.028199 1.494548,0.648577 1.494548,1.494548z" fill="none" id="svg_20"/>
    <path d="m-47.076949,10.980637c-0.28199,0 -0.507582,0.225592 -0.507582,0.507582c0,0.112796 0.056398,0.225592 0.112796,0.310189c0.084597,0.112796 0.225592,0.197393 0.394786,0.197393s0.310189,-0.084597 0.394786,-0.197393c0.056398,-0.084597 0.112796,-0.197393 0.112796,-0.310189c0,-0.28199 -0.225592,-0.507582 -0.507582,-0.507582z" fill="none" id="svg_21"/>
    <circle cx="-32.949243" cy="11.488219" fill="none" id="svg_22" r="0.507581"/>
    <circle cx="-53.90111" cy="11.488219" fill="none" id="svg_23" r="0.507582"/>
    <path d="m-42.593306,0.687997l0.535781,-0.479383c-0.225592,-0.197393 -0.394786,-0.394786 -0.56398,-0.620378l-0.733174,0.338388c0.225592,0.253791 0.479383,0.507582 0.761373,0.761373z" fill="black" fill-opacity="0" id="svg_29"/>
    <path d="m-32.103273,6.330383c-1.099762,-1.268956 -2.678906,-1.466349 -4.173454,-1.945732c-0.225592,-0.084597 -0.451184,-0.140995 -0.676776,-0.225592l-0.169194,0.592179c0.084597,0.056398 0.140995,0.140995 0.140995,0.197393c-0.028199,0.084597 -0.225592,0.112796 -0.451184,0.028199c-0.225592,-0.084597 -0.366587,-0.197393 -0.338388,-0.310189c0.028199,-0.056398 0.112796,-0.084597 0.197393,-0.084597l0.169194,-0.620378c-0.366587,-0.140995 -0.733174,-0.310189 -1.099762,-0.451184l-0.197393,0.592179c0.084597,0.056398 0.140995,0.140995 0.112796,0.197393c-0.028199,0.084597 -0.225592,0.112796 -0.451184,0.028199s-0.366587,-0.225592 -0.310189,-0.310189c0.028199,-0.056398 0.112796,-0.084597 0.225592,-0.084597l0.225592,-0.620378c-0.197393,-0.112796 -0.422985,-0.197393 -0.620378,-0.310189c-0.140995,-0.056398 -0.253791,-0.140995 -0.394786,-0.225592l-0.253791,0.56398c0.084597,0.084597 0.112796,0.169194 0.084597,0.225592c-0.056398,0.084597 -0.253791,0.084597 -0.451184,-0.028199c-0.197393,-0.112796 -0.338388,-0.253791 -0.28199,-0.338388c0.028199,-0.056398 0.112796,-0.056398 0.225592,-0.056398l0.28199,-0.56398c-0.310189,-0.169194 -0.620378,-0.366587 -0.930567,-0.56398l-0.366587,0.535781c0.056398,0.084597 0.112796,0.169194 0.084597,0.225592c-0.056398,0.084597 -0.253791,0.056398 -0.451184,-0.056398c-0.197393,-0.112796 -0.310189,-0.28199 -0.253791,-0.366587c0.028199,-0.056398 0.112796,-0.056398 0.225592,-0.028199l0.366587,-0.56398c-0.28199,-0.197393 -0.535781,-0.394786 -0.817771,-0.592179l-0.479383,0.451184c0.056398,0.084597 0.056398,0.169194 0.028199,0.197393c-0.056398,0.084597 -0.253791,0.028199 -0.451184,-0.112796c-0.169194,-0.140995 -0.28199,-0.310189 -0.225592,-0.394786c0.028199,-0.056398 0.140995,-0.056398 0.253791,0l0.479383,-0.451184c-0.28199,-0.253791 -0.535781,-0.535781 -0.789572,-0.817771l-0.592179,0.310189c0.028199,0.084597 0.028199,0.140995 0,0.169194c-0.084597,0.084597 -0.253791,0 -0.422985,-0.169194c-0.169194,-0.169194 -0.225592,-0.338388 -0.169194,-0.422985c0.056398,-0.056398 0.140995,-0.028199 0.253791,0.056398l0.592179,-0.310189c-0.169194,-0.225592 -0.310189,-0.422985 -0.451184,-0.676776c-0.310189,0.310189 -0.676776,0.648577 -1.043363,0.986965c-1.015164,0.958766 -2.086727,1.973931 -2.28412,2.171324c-0.056398,0.056398 -0.084597,0.084597 -0.140995,0.140995c-0.394786,0.422985 -1.127961,1.212558 -2.340518,1.212558c-1.184359,0 -1.973931,-0.958766 -2.509712,-1.663742c-0.084597,-0.112796 -0.169194,-0.225592 -0.253791,-0.338388l-0.648577,-0.761373c-0.338388,0.84597 -0.789572,1.663742 -1.015164,2.537911c-0.28199,1.15616 -0.394786,2.312319 -0.422985,3.496678l23.292385,0c-0.084597,-0.140995 -0.197393,-0.310189 -0.310189,-0.451184l-0.000005,-0.000003z" fill="#e71b00" id="svg_33"/>
    <path d="m-54.718881,8.724716c0.197393,0.056398 0.676776,0.140995 0.817771,0.169194c0,-0.084597 0,-0.169194 0,-0.28199c0,-0.225592 0.169194,-0.394786 0.394786,-0.394786l7.331743,0c0.225592,0 0.394786,0.169194 0.394786,0.394786l0,0.28199l0.592179,0c0.140995,0 0.253791,-0.056398 0.366587,-0.112796c0.197393,-0.084597 0.366587,-0.225592 0.56398,-0.310189c0.253791,-0.084597 0.535781,-0.140995 0.789572,-0.140995c0.28199,0 0.56398,0.056398 0.789572,0.140995c0.197393,0.084597 0.366587,0.197393 0.56398,0.310189c0.112796,0.056398 0.253791,0.112796 0.366587,0.112796l0.648577,0c0,-0.084597 0,-0.169194 0,-0.28199c0,-0.225592 0.169194,-0.394786 0.394786,-0.394786l7.331743,0c0.225592,0 0.394786,0.169194 0.394786,0.394786l0,0.28199c0.789572,0 1.381752,0 1.381752,0c0,-0.56398 0.028199,-1.184359 -0.112796,-1.748339l-23.405181,0c0,0.338388 0,0.704975 0,1.043363c0,0.28199 0.169194,0.479383 0.394786,0.535781l0.000004,0.000001z" fill="#000000" id="svg_34"/>
    <path d="m-54.803478,12.024c-0.28199,-0.422985 -0.112796,-0.789572 0,-1.127961l0,-0.028199l0.338388,-0.84597l0.225592,-0.56398c-0.986965,0.169194 -1.72014,1.015164 -1.72014,2.030329c0,1.127961 0.930567,2.058528 2.058528,2.058528c0.733174,0 1.381752,-0.394786 1.748339,-0.958766l-1.72014,0c-0.366587,-0.028199 -0.733174,-0.225592 -0.930567,-0.56398l0,-0.000001z" fill="#e71b00" id="svg_35"/>
    <path d="m-32.610855,9.45789l0.225592,0.56398l0.338388,0.84597l0,0.028199c0.140995,0.338388 0.28199,0.704975 0,1.127961c-0.225592,0.338388 -0.592179,0.535781 -0.958766,0.535781l-1.72014,0c0.366587,0.592179 1.015164,0.958766 1.748339,0.958766c1.127961,0 2.058528,-0.930567 2.058528,-2.058528c0,-0.986965 -0.733174,-1.832936 -1.691941,-2.00213l0,0.000001z" fill="#e71b00" id="svg_36"/>
    <path d="m-32.977443,12.33419c0.310189,0 0.592179,-0.169194 0.761373,-0.422985c0.225592,-0.338388 0.084597,-0.620378 -0.056398,-0.958766c-0.084597,-0.197393 -0.592179,-1.43815 -0.704975,-1.72014c0,-0.028199 -0.028199,-0.056398 -0.028199,-0.056398l-20.86727,0c0,0 0,0.028199 -0.028199,0.056398c-0.112796,0.253791 -0.620378,1.522747 -0.704975,1.72014c-0.140995,0.338388 -0.253791,0.620378 -0.056398,0.958766c0.169194,0.253791 0.451184,0.422985 0.761373,0.422985l7.529136,0c0.225592,-0.028199 0.422985,-0.084597 0.620378,-0.197393c0.197393,-0.112796 0.422985,-0.225592 0.620378,-0.338388c0.112796,-0.056398 0.225592,-0.112796 0.338388,-0.169194c0.394786,-0.140995 0.874169,-0.225592 1.325354,-0.225592c0.451184,0 0.902368,0.084597 1.325354,0.225592c0.112796,0.056398 0.225592,0.112796 0.338388,0.169194c0.197393,0.112796 0.394786,0.225592 0.592179,0.338388c0.197393,0.112796 0.394786,0.169194 0.620378,0.197393l7.613733,0l0.000002,0zm-6.401176,-0.535781c-0.084597,0.112796 -0.225592,0.197393 -0.394786,0.197393s-0.310189,-0.084597 -0.394786,-0.197393c-0.056398,-0.084597 -0.112796,-0.197393 -0.112796,-0.310189c0,-0.28199 0.225592,-0.507582 0.507582,-0.507582s0.507582,0.225592 0.507582,0.507582c0,0.112796 -0.056398,0.225592 -0.112796,0.310189zm6.429375,-0.817771c0.28199,0 0.507582,0.225592 0.507582,0.507582c0,0.28199 -0.225592,0.507582 -0.507582,0.507582s-0.507582,-0.225592 -0.507582,-0.507582c0,-0.28199 0.225592,-0.507582 0.507582,-0.507582zm-20.951867,1.015164c-0.28199,0 -0.507582,-0.225592 -0.507582,-0.507582c0,-0.28199 0.225592,-0.507582 0.507582,-0.507582s0.507582,0.225592 0.507582,0.507582c0,0.28199 -0.225592,0.507582 -0.507582,0.507582zm7.218947,-0.197393c-0.084597,0.112796 -0.225592,0.197393 -0.394786,0.197393s-0.310189,-0.084597 -0.394786,-0.197393c-0.056398,-0.084597 -0.112796,-0.197393 -0.112796,-0.310189c0,-0.28199 0.225592,-0.507582 0.507582,-0.507582s0.507582,0.225592 0.507582,0.507582c0,0.112796 -0.028199,0.225592 -0.112796,0.310189zm-0.140995,-1.635543c-0.817771,0 -1.494548,0.676776 -1.494548,1.494548l0,0.112796l-0.169194,0l0,-0.112796c0,-0.902368 0.733174,-1.663742 1.663742,-1.663742l6.85236,0c0.902368,0 1.663742,0.733174 1.663742,1.663742l0,0.112796l-0.169194,0l0,-0.112796c0,-0.817771 -0.676776,-1.494548 -1.494548,-1.494548l-6.85236,0z" fill="black" id="svg_37"/>
    <polygon id="svg_38" points="-50.150634586811066,1.956956073641777 -50.03784543275833,1.7877591103315353 -50.150634586811066,1.646765872836113 -50.31983548402786,1.646765872836113 -50.4044263958931,1.7877591103315353 -50.31983548402786,1.956956073641777 "/>
    <line fill="#000000" id="svg_39" x1="-41.719136" x2="-41.634539" y1="2.718326" y2="2.60553"/>
    <g id="svg_40">
     <path d="m-44.821028,-5.149198c-0.084597,0 -0.197393,0 -0.197393,0l0,0.620378l0,0.084597l0,0.620378c0,0 0.084597,0 0.197393,0l0,-1.325354l0,0.000001z" fill="#e71b00" id="svg_41"/>
     <path d="m-44.539038,-3.908442l0,-1.268956c-0.084597,0 -0.197393,0 -0.197393,0l0,0.620378l0,0.084597l0,0.620378l0,0c0,0 0.084597,0 0.197393,0l0,-0.056398l0,0.000001z" fill="#e71b00" id="svg_42"/>
     <path d="m-44.228849,-3.823845l0,-0.169194l0,-1.184359c-0.028199,0 -0.028199,0 -0.056398,0c-0.084597,0 -0.140995,0 -0.140995,0l0,0.620378l0,0.084597l0,0.535781l0,0.112796c0,0 0.056398,0 0.112796,0c0.028199,0 0.056398,0 0.084597,0l0,0.000001z" fill="#e71b00" id="svg_43"/>
     <circle cx="-50.207039" cy="1.815958" fill="#e71b00" id="svg_44" r="0.930567"/>
     <path d="m-43.946858,-4.077636l0,-1.099762c0,0 -0.028199,0 -0.028199,0c-0.084597,0 -0.140995,0 -0.169194,0c0,0 0,0 0,0l0,0.620378l0,0.084597l0,0.422985l0,0.197393c0,0 0.084597,0 0.197393,0l0,-0.225592l0,0.000001z" fill="#e71b00" id="svg_45"/>
     <path d="m-45.413207,-3.823845l0,-0.620378l0,-0.084597l0,-0.620378c0,0 -0.817771,0 -1.635543,0c-0.366587,0 -0.733174,0.084597 -1.015164,0.140995l0,0.084597c-0.056398,0.028199 -0.112796,0.028199 -0.140995,0.056398l0,0.789572c0.056398,0.028199 0.084597,0.028199 0.140995,0.056398l0,0.084597c0.28199,0.084597 0.648577,0.140995 1.015164,0.140995c0.817771,-0.028199 1.635543,-0.028199 1.635543,-0.028199z" fill="#e71b00" id="svg_46"/>
     <path d="m-45.103018,-5.149198c-0.084597,0 -0.197393,0 -0.197393,0l0,0.620378l0,0.084597l0,0.620378c0,0 0.084597,0 0.197393,0l0,-1.325354l0,0.000001z" fill="#e71b00" id="svg_47"/>
     <path d="m-45.300411,-3.006073c-0.704975,0 -1.635543,-0.140995 -2.058528,-0.28199c-0.169194,-0.056398 -0.197393,-0.169194 -0.197393,-0.169194l1.776538,0l2.114926,0l0,-0.394786c-0.112796,0 -0.197393,0 -0.197393,0l0,-1.325354c0,0 0.112796,0 0.197393,0l0,-0.676776c0,-0.140995 -0.056398,-0.253791 -0.140995,-0.366587c-0.056398,-0.056398 -0.084597,-0.084597 -0.169194,-0.112796c-0.056398,-0.028199 -0.084597,-0.056398 -0.140995,-0.056398c0,0 0,0 -0.028199,0c-0.028199,0 -0.084597,0 -0.140995,-0.028199c-1.015164,-0.169194 -3.694071,-0.451184 -5.696201,-0.451184c-0.874169,0 -1.607344,0.056398 -2.030329,0.197393c0,0 0,0 0,0c0,0 -0.028199,0 -0.028199,0c0,0 0,0 0,0c-0.056398,0 -0.084597,0.028199 -0.140995,0.056398c0,0 0,0 0,0c0,0 0,0 0,0c-0.028199,0 -0.056398,0.028199 -0.084597,0.056398c0,0 0,0 -0.028199,0c-0.169194,0.112796 -0.310189,0.28199 -0.310189,0.451184c0,0.140995 0.056398,0.28199 0.169194,0.366587c-0.084597,1.832936 -0.592179,4.624638 -1.127961,6.175584l0.761373,0.902368c0.084597,0.112796 0.169194,0.225592 0.28199,0.338388c0.535781,0.704975 1.240757,1.550946 2.28412,1.550946c1.071562,0 1.72014,-0.704975 2.114926,-1.127961c0.056398,-0.056398 0.112796,-0.112796 0.140995,-0.169194c0.197393,-0.197393 4.088857,-3.891464 4.145255,-3.976061c0.084597,-0.084597 0.140995,-0.225592 0.140995,-0.366587l0,-0.648577c-0.28199,0.056398 -0.902368,0.084597 -1.607344,0.056398l0.000001,0zm-4.906628,5.7244c-0.507582,0 -0.930567,-0.422985 -0.930567,-0.930567c0,-0.507582 0.422985,-0.930567 0.930567,-0.930567c0.507582,0 0.930567,0.422985 0.930567,0.930567c-0.028199,0.535781 -0.422985,0.930567 -0.930567,0.930567zm6.062788,-6.739564l0,-0.422985l0,-0.084597l0,-0.620378c0,0 0,0 0,0c0,0 0.084597,0 0.169194,0c0,0 0.028199,0 0.028199,0l0,1.071562l0,0.253791c-0.084597,0 -0.197393,0 -0.197393,0l0,-0.197393zm-0.28199,0.084597l0,-0.535781l0,-0.084597l0,-0.620378c0,0 0.056398,0 0.140995,0c0.028199,0 0.028199,0 0.056398,0l0,1.184359l0,0.169194c-0.028199,0 -0.056398,0 -0.056398,0c-0.056398,0 -0.112796,0 -0.112796,0l0,-0.112796l-0.028199,0l0,-0.000001zm-0.28199,0.084597l0,-0.620378l0,-0.084597l0,-0.620378c0,0 0.084597,0 0.197393,0l0,1.268956l0,0.056398c-0.112796,0.028199 -0.197393,0.028199 -0.197393,0l0,0l0,-0.000001zm-0.28199,-0.592179l0,-0.084597l0,-0.620378c0,0 0.084597,0 0.197393,0l0,1.325354c-0.084597,0 -0.197393,0 -0.197393,0l0,-0.620378l0,-0.000001zm-0.310189,0l0,-0.084597l0,-0.620378c0,0 0.084597,0 0.197393,0l0,1.325354c-0.084597,0 -0.197393,0 -0.197393,0l0,-0.620378l0,-0.000001zm-2.763503,0.479383l0,-0.084597c-0.056398,-0.028199 -0.084597,-0.028199 -0.140995,-0.056398l0,-0.789572c0.056398,-0.028199 0.084597,-0.028199 0.140995,-0.056398l0,-0.084597c0.28199,-0.084597 0.648577,-0.140995 1.015164,-0.140995c0.789572,0 1.635543,0 1.635543,0l0,0.620378l0,0.084597l0,0.620378c0,0 -0.817771,0 -1.635543,0c-0.338388,0.028199 -0.704975,-0.056398 -1.015164,-0.112796z" fill="#e71b00" id="svg_48"/>
    </g>
    <ellipse cx="-53.897343" cy="11.483806" fill="#ffffff" id="svg_1" rx="0.500586" ry="0.500586"/>
    <ellipse cx="-47.076949" cy="11.502319" fill="#ffffff" id="svg_25" rx="0.500586" ry="0.500586"/>
    <ellipse cx="-39.773404" cy="11.502319" fill="#ffffff" id="svg_26" rx="0.500586" ry="0.500586"/>
    <ellipse cx="-32.949243" cy="11.47412" fill="#ffffff" id="svg_27" rx="0.500586" ry="0.500586"/>
   </g>
   <ellipse cx="32.474997" cy="48.980576" fill="#ffffff" id="svg_90" rx="0.752292" ry="0.79931" transform="rotate(5 26.6165 44.8442) matrix(0.903422 0.159298 -0.159298 0.903422 5.08042 -4.57911)"/>
   <ellipse cx="23.858953" cy="46.838118" fill="#ffffff" id="svg_89" rx="0.987384" ry="0.987384" transform="rotate(5 18.8338 42.8928) matrix(0.903422 0.159298 -0.159298 0.903422 4.74027 -3.22248)"/>
   <ellipse cx="15.049073" cy="44.495971" fill="#ffffff" id="svg_88" rx="0.987384" ry="0.987384" transform="rotate(5 10.8761 40.7605) matrix(0.903422 0.159298 -0.159298 0.903422 4.36859 -1.83538)"/>
   <ellipse cx="6.764962" cy="42.219525" fill="#ffffff" id="svg_87" rx="0.987384" ry="0.987384" transform="rotate(5 3.39356 38.6886) matrix(0.903422 0.159298 -0.159298 0.903422 4.00743 -0.53108)"/>
   <g id="svg_78" transform="rotate(5 13.29 24.9635)">
    <path d="m18.107172,22.313634c-0.096593,-0.017032 -0.225385,-0.039741 -0.225385,-0.039741l-0.124902,0.708352l-0.017032,0.096593l-0.124902,0.708352c0,0 0.096593,0.017032 0.225385,0.039741l0.266835,-1.513297z" fill="#e71b00" id="svg_79" stroke="#ffffff" stroke-width="0.2"/>
    <path d="m18.179347,23.787111l0.25548,-1.448901c-0.096593,-0.017032 -0.225385,-0.039741 -0.225385,-0.039741l-0.124902,0.708352l-0.017032,0.096593l-0.124902,0.708352l0,0c0,0 0.096593,0.017032 0.225385,0.039741l0.011355,-0.064396z" fill="#e71b00" id="svg_80" stroke="#ffffff" stroke-width="0.2"/>
    <path d="m18.51649,23.946155l0.034064,-0.193187l0.238448,-1.352308c-0.032198,-0.005677 -0.032198,-0.005677 -0.064396,-0.011355c-0.096593,-0.017032 -0.160989,-0.028387 -0.160989,-0.028387l-0.124902,0.708352l-0.017032,0.096593l-0.107869,0.611758l-0.022709,0.128791c0,0 0.064396,0.011355 0.128791,0.022709c0.032198,0.005677 0.064396,0.011355 0.096593,0.017032z" fill="#e71b00" id="svg_81" stroke="#ffffff" stroke-width="0.2"/>
    <circle cx="14.704586" cy="31.609653" fill="#e71b00" id="svg_82" r="1.176115" stroke="#ffffff" stroke-width="0.2" transform="matrix(0.903422 0.159298 -0.159298 0.903422 2.306 -1.71714)"/>
    <path d="m18.889565,23.713148l0.221416,-1.255714c0,0 -0.032198,-0.005677 -0.032198,-0.005677c-0.096593,-0.017032 -0.160989,-0.028387 -0.193187,-0.034064c0,0 0,0 0,0l-0.124902,0.708352l-0.017032,0.096593l-0.08516,0.482967l-0.039741,0.225385c0,0 0.096593,0.017032 0.225385,0.039741l0.045419,-0.257582z" fill="#e71b00" id="svg_83" stroke="#ffffff" stroke-width="0.2"/>
    <path d="m17.164183,23.707707l0.124902,-0.708352l0.017032,-0.096593l0.124902,-0.708352c0,0 -0.933736,-0.164643 -1.867473,-0.329286c-0.418571,-0.073805 -0.854175,-0.051017 -1.187508,-0.043395l-0.017032,0.096593c-0.070073,0.020843 -0.134469,0.009488 -0.172344,0.036009l-0.158966,0.901539c0.058718,0.043552 0.090916,0.04923 0.149634,0.092782l-0.017032,0.096593c0.304946,0.153367 0.712163,0.291568 1.130734,0.365373c0.939414,0.132445 1.87315,0.297088 1.87315,0.297088z" fill="#e71b00" id="svg_84" stroke="#ffffff" stroke-width="0.2"/>
    <path d="m17.785194,22.256861c-0.096593,-0.017032 -0.225385,-0.039741 -0.225385,-0.039741l-0.124902,0.708352l-0.017032,0.096593l-0.124902,0.708352c0,0 0.096593,0.017032 0.225385,0.039741l0.266835,-1.513297z" fill="#e71b00" id="svg_85" stroke="#ffffff" stroke-width="0.2"/>
    <path d="m17.128331,24.664152c-0.804945,-0.141934 -1.839086,-0.490275 -2.293666,-0.736424c-0.181832,-0.09846 -0.191321,-0.232928 -0.191321,-0.232928l2.028462,0.357673l2.414835,0.425801l0.079483,-0.450769c-0.128791,-0.022709 -0.225385,-0.039741 -0.225385,-0.039741l0.266835,-1.513297c0,0 0.128791,0.022709 0.225385,0.039741l0.136256,-0.772747c0.028387,-0.160989 -0.0133,-0.301135 -0.087184,-0.446958c-0.053041,-0.07575 -0.079561,-0.113625 -0.170477,-0.162855c-0.058718,-0.043552 -0.085239,-0.081428 -0.149634,-0.092782c0,0 0,0 -0.032198,-0.005677c-0.032198,-0.005677 -0.096593,-0.017032 -0.155312,-0.060585c-1.125057,-0.397571 -4.127075,-1.258897 -6.413119,-1.661988c-0.998132,-0.175998 -1.84663,-0.259213 -2.357983,-0.183384c0,0 0,0 0,0c0,0 -0.032198,-0.005677 -0.032198,-0.005677c0,0 0,0 0,0c-0.064396,-0.011355 -0.102271,0.015166 -0.172344,0.036009c0,0 0,0 0,0c0,0 0,0 0,0c-0.032198,-0.005677 -0.070073,0.020843 -0.107948,0.047364c0,0 0,0 -0.032198,-0.005677c-0.215896,0.094727 -0.410949,0.259527 -0.445013,0.452714c-0.028387,0.160989 0.007622,0.333333 0.119381,0.452636c-0.465621,2.075825 -1.607238,5.161216 -2.53125,6.824226l0.687666,1.183618c0.073884,0.145823 0.147768,0.291646 0.25385,0.443147c0.469825,0.912815 1.10445,2.020682 2.295768,2.230744c1.223517,0.215739 2.106,-0.458627 2.641929,-0.862112c0.07575,-0.053041 0.151501,-0.106082 0.195053,-0.1648c0.265126,-0.185643 5.452155,-3.620083 5.533583,-3.705321c0.113625,-0.079561 0.206408,-0.229196 0.234794,-0.390185l0.130579,-0.74055c-0.333333,0.007622 -1.047362,-0.085082 -1.84663,-0.259213zm-6.754919,5.548297c-0.579561,-0.102192 -0.977367,-0.670319 -0.875175,-1.24988c0.102192,-0.579561 0.670319,-0.977367 1.24988,-0.875175c0.579561,0.102192 0.977367,0.670319 0.875175,1.24988c-0.140067,0.606081 -0.670319,0.977367 -1.24988,0.875175zm8.279413,-6.474647l0.08516,-0.482967l0.017032,-0.096593l0.124902,-0.708352c0,0 0,0 0,0c0,0 0.096593,0.017032 0.193187,0.034064c0,0 0.032198,0.005677 0.032198,0.005677l-0.215739,1.223517l-0.051096,0.28978c-0.096593,-0.017032 -0.225385,-0.039741 -0.225385,-0.039741l0.039741,-0.225385zm-0.33901,0.03982l0.107869,-0.611758l0.017032,-0.096593l0.124902,-0.708352c0,0 0.064396,0.011355 0.160989,0.028387c0.032198,0.005677 0.032198,0.005677 0.064396,0.011355l-0.238448,1.352308l-0.034064,0.193187c-0.032198,-0.005677 -0.064396,-0.011355 -0.064396,-0.011355c-0.064396,-0.011355 -0.128791,-0.022709 -0.128791,-0.022709l0.022709,-0.128791l-0.032198,-0.005677zm-0.33901,0.03982l0.124902,-0.708352l0.017032,-0.096593l0.124902,-0.708352c0,0 0.096593,0.017032 0.225385,0.039741l-0.25548,1.448901l-0.011355,0.064396c-0.134469,0.009488 -0.231062,-0.007544 -0.225385,-0.039741l0,0zm-0.202754,-0.732927l0.017032,-0.096593l0.124902,-0.708352c0,0 0.096593,0.017032 0.225385,0.039741l-0.266835,1.513297c-0.096593,-0.017032 -0.225385,-0.039741 -0.225385,-0.039741l0.124902,-0.708352zm-0.354176,-0.062451l0.017032,-0.096593l0.124902,-0.708352c0,0 0.096593,0.017032 0.225385,0.039741l-0.266835,1.513297c-0.096593,-0.017032 -0.225385,-0.039741 -0.225385,-0.039741l0.124902,-0.708352zm-3.2519,-0.009017l0.017032,-0.096593c-0.058718,-0.043552 -0.090916,-0.04923 -0.149634,-0.092782l0.158966,-0.901539c0.070073,-0.020843 0.102271,-0.015166 0.172344,-0.036009l0.017032,-0.096593c0.33901,-0.03982 0.768936,-0.03041 1.187508,0.043395c0.901539,0.158966 1.867473,0.329286 1.867473,0.329286l-0.124902,0.708352l-0.017032,0.096593l-0.124902,0.708352c0,0 -0.933736,-0.164643 -1.867473,-0.329286c-0.392051,-0.03593 -0.79359,-0.206329 -1.136412,-0.333176z" fill="#e71b00" id="svg_86" stroke="#ffffff" stroke-width="0.2"/>
   </g>
   <line fill="#000000" id="svg_77" transform="rotate(5 19.4971 32.4349)" x1="19.437402" x2="19.556704" y1="32.490744" y2="32.378985"/>
   <polygon id="svg_76" points="10.23576945066452,29.099225923419 10.39862459897995,28.92874900996685 10.298219859600067,28.74505226314068 10.105035960674286,28.710987016558647 9.980055034160614,28.854942247271538 10.042585551738739,29.065164491534233 " transform="rotate(5 10.1893 28.9051)"/>
   <path d="m26.721819,44.865735c0.354176,0.062451 0.710218,-0.073963 0.954501,-0.329679c0.325711,-0.340955 0.221495,-0.69132 0.128634,-1.10608c-0.056852,-0.242417 -0.386609,-1.761312 -0.458627,-2.106c0.005677,-0.032198 -0.020843,-0.070073 -0.020843,-0.070073l-23.826376,-4.201233c0,0 -0.005677,0.032198 -0.043552,0.058718c-0.179887,0.267071 -1.014928,1.61378 -1.151263,1.822133c-0.229117,0.357987 -0.414682,0.657256 -0.257425,1.083371c0.142091,0.323844 0.430005,0.573805 0.784181,0.636255l8.596814,1.51585c0.26326,0.013221 0.499999,-0.011433 0.748093,-0.100483c0.248094,-0.08905 0.528386,-0.172422 0.77648,-0.261472c0.140146,-0.041686 0.280292,-0.083372 0.420438,-0.125059c0.479156,-0.081506 1.043551,-0.081585 1.558716,0.009253c0.515165,0.090837 1.013298,0.278268 1.467878,0.524418c0.117437,0.087105 0.234873,0.17421 0.35231,0.261315c0.202675,0.168533 0.405351,0.337065 0.608026,0.505598c0.202675,0.168533 0.416705,0.27267 0.66861,0.350286l8.693408,1.532882zm-7.201032,-1.900515c-0.119303,0.111759 -0.297324,0.179966 -0.490511,0.145902s-0.337144,-0.159044 -0.411028,-0.304867c-0.047364,-0.107948 -0.08905,-0.248094 -0.06634,-0.376885c0.056773,-0.321978 0.359775,-0.534142 0.681753,-0.477368s0.534142,0.359775 0.477368,0.681753c-0.022709,0.128791 -0.109814,0.246228 -0.191242,0.331466zm7.505743,0.360698c0.321978,0.056773 0.534142,0.359775 0.477368,0.681753c-0.056773,0.321978 -0.359775,0.534142 -0.681753,0.477368s-0.534142,-0.359775 -0.477368,-0.681753c0.056773,-0.321978 0.359775,-0.534142 0.681753,-0.477368zm-24.127354,-3.059144c-0.321978,-0.056773 -0.534142,-0.359775 -0.477368,-0.681753c0.056773,-0.321978 0.359775,-0.534142 0.681753,-0.477368s0.534142,0.359775 0.477368,0.681753c-0.056773,0.321978 -0.359775,0.534142 -0.681753,0.477368zm8.28238,1.228015c-0.119303,0.111759 -0.297324,0.179966 -0.490511,0.145902s-0.337144,-0.159044 -0.411028,-0.304867c-0.047364,-0.107948 -0.08905,-0.248094 -0.06634,-0.376885c0.056773,-0.321978 0.359775,-0.534142 0.681753,-0.477368s0.534142,0.359775 0.477368,0.681753c-0.022709,0.128791 -0.077617,0.251905 -0.191242,0.331466zm0.168297,-1.895859c-0.933736,-0.164643 -1.84274,0.471848 -2.007383,1.405585l-0.022709,0.128791l-0.193187,-0.034064l0.022709,-0.128791c0.181675,-1.03033 1.172106,-1.75206 2.234634,-1.564707l7.824067,1.379594c1.03033,0.181675 1.75206,1.172106 1.564707,2.234634l-0.022709,0.128791l-0.193187,-0.034064l0.022709,-0.128791c0.164643,-0.933736 -0.471848,-1.84274 -1.405585,-2.007383l-7.824067,-1.379594z" fill="#ffffff" id="svg_75" transform="rotate(5 14.9431 40.9667)"/>
   <path d="m27.413254,42.693226l0.144036,0.689375l0.216053,1.034062l-0.005677,0.032198c0.092861,0.41476 0.180045,0.861719 -0.227094,1.287912c-0.325711,0.340955 -0.784023,0.492534 -1.202595,0.418729l-1.964066,-0.346318c0.299347,0.749959 0.966091,1.29911 1.803234,1.446721c1.287912,0.227094 2.537792,-0.648082 2.764886,-1.935994c0.198707,-1.126923 -0.468116,-2.240468 -1.528777,-2.626685z" fill="#e71b00" id="svg_74" stroke="#ffffff" stroke-width="0.2" transform="rotate(5 26.6755 44.9925)"/>
   <path d="m2.021295,39.054728c-0.236818,-0.539741 0.030174,-0.924248 0.227094,-1.287912l0.005677,-0.032198l0.556694,-0.897806l0.371129,-0.598537c-1.160987,-0.00552 -2.16845,0.812803 -2.372835,1.971924c-0.227094,1.287912 0.648082,2.537792 1.935994,2.764886c0.837143,0.147611 1.657175,-0.17258 2.189294,-0.74273l-1.964066,-0.346318c-0.412894,-0.106003 -0.791724,-0.405193 -0.948981,-0.831308z" fill="#e71b00" id="svg_73" stroke="#ffffff" stroke-width="0.2" transform="rotate(5 2.85376 38.6246)"/>
   <path d="m2.892574,36.449081c0.21403,0.104137 0.744361,0.297245 0.899672,0.35783c0.017032,-0.096593 0.034064,-0.193187 0.056773,-0.321978c0.045419,-0.257582 0.27267,-0.416705 0.530252,-0.371286l8.37143,1.476109c0.257582,0.045419 0.416705,0.27267 0.371286,0.530252l-0.056773,0.321978l0.676154,0.119224c0.160989,0.028387 0.301135,-0.0133 0.441281,-0.054986c0.242417,-0.056852 0.46399,-0.183777 0.706407,-0.240629c0.306812,-0.045497 0.640145,-0.05312 0.929925,-0.002023c0.321978,0.056773 0.632601,0.177942 0.873152,0.319955c0.208353,0.136335 0.37883,0.29919 0.581505,0.467723c0.117437,0.087105 0.267071,0.179887 0.395862,0.202597l0.74055,0.130579c0.017032,-0.096593 0.034064,-0.193187 0.056773,-0.321978c0.045419,-0.257582 0.27267,-0.416705 0.530252,-0.371286l8.37143,1.476109c0.257582,0.045419 0.416705,0.27267 0.371286,0.530252l-0.056773,0.321978c0.901539,0.158966 1.577692,0.27819 1.577692,0.27819c0.113547,-0.643956 0.270646,-1.346631 0.223204,-2.018973l-26.724179,-4.712194c-0.068128,0.386374 -0.141934,0.804945 -0.210062,1.191319c-0.056773,0.321978 0.096672,0.581427 0.3429,0.691241z" fill="#ffffff" id="svg_72" transform="rotate(5 16.0152 37.9321)"/>
   <path d="m29.615147,38.299585c-1.000234,-1.670318 -2.76357,-2.213633 -4.373539,-3.061895c-0.24055,-0.142012 -0.486778,-0.251826 -0.727329,-0.393839l-0.312411,0.64209c0.085239,0.081428 0.132602,0.189376 0.121248,0.253771c-0.04923,0.090916 -0.280292,0.083372 -0.520842,-0.05864c-0.24055,-0.142012 -0.37883,-0.29919 -0.323923,-0.422304c0.043552,-0.058718 0.145823,-0.073884 0.242417,-0.056852l0.318088,-0.674288c-0.390185,-0.234794 -0.774692,-0.501787 -1.164877,-0.736581l-0.344609,0.636413c0.085239,0.081428 0.132602,0.189376 0.08905,0.248094c-0.04923,0.090916 -0.280292,0.083372 -0.520842,-0.05864s-0.373153,-0.331388 -0.291725,-0.416627c0.043552,-0.058718 0.145823,-0.073884 0.274614,-0.051175l0.382484,-0.662933c-0.202675,-0.168533 -0.443226,-0.310545 -0.645901,-0.479077c-0.149634,-0.092782 -0.261394,-0.212085 -0.405351,-0.337065l-0.403327,0.59286c0.079561,0.113625 0.094727,0.215896 0.051175,0.274614c-0.081428,0.085239 -0.306812,0.045497 -0.509488,-0.123035c-0.202675,-0.168533 -0.335278,-0.357908 -0.25385,-0.443147c0.043552,-0.058718 0.140146,-0.041686 0.268937,-0.018977l0.435525,-0.587183c-0.320112,-0.255638 -0.634546,-0.543473 -0.948981,-0.831308l-0.526441,0.537953c0.047364,0.107948 0.094727,0.215896 0.051175,0.274614c-0.081428,0.085239 -0.301135,0.0133 -0.50381,-0.155233c-0.202675,-0.168533 -0.297402,-0.384429 -0.215975,-0.469668c0.043552,-0.058718 0.140146,-0.041686 0.26326,0.013221l0.532118,-0.570151c-0.282237,-0.282158 -0.532276,-0.558639 -0.814512,-0.840797l-0.6382,0.41865c0.047364,0.107948 0.030332,0.204542 -0.007544,0.231062c-0.081428,0.085239 -0.295458,-0.018898 -0.492456,-0.219629c-0.1648,-0.195053 -0.259527,-0.410949 -0.1781,-0.496188c0.043552,-0.058718 0.172344,-0.036009 0.28978,0.051096l0.6382,-0.41865c-0.270882,-0.346554 -0.503889,-0.719628 -0.736896,-1.092702l-0.738605,0.234952c0.015166,0.102271 0.003811,0.166666 -0.034064,0.193187c-0.113625,0.079561 -0.28978,-0.051096 -0.448903,-0.278347c-0.159123,-0.227251 -0.189454,-0.431792 -0.108027,-0.517031c0.07575,-0.053041 0.166666,-0.003811 0.278426,0.115492l0.738605,-0.234952c-0.147768,-0.291646 -0.269016,-0.545418 -0.378909,-0.863585c-0.416627,0.291725 -0.903326,0.604293 -1.390026,0.916862c-1.352151,0.890341 -2.780052,1.833723 -3.045178,2.019366c-0.07575,0.053041 -0.113625,0.079561 -0.189376,0.132602c-0.535929,0.403484 -1.532038,1.157412 -2.916544,0.913286c-1.352308,-0.238448 -2.060817,-1.492139 -2.530642,-2.404954c-0.073884,-0.145823 -0.147768,-0.291646 -0.221652,-0.43747l-0.587261,-0.99992c-0.556694,0.897806 -1.236502,1.740705 -1.670082,2.693418c-0.554749,1.263337 -0.916311,2.560737 -1.186957,3.907368l26.595388,4.689484c-0.068207,-0.178021 -0.162934,-0.393917 -0.263338,-0.577616z" fill="#e71b00" id="svg_71" stroke="#ffffff" stroke-width="0.2" transform="rotate(5 16.5808 33.1622)"/>
   <path d="m19.118009,29.951279l0.708273,-0.439493c-0.217841,-0.270803 -0.371286,-0.530252 -0.519055,-0.821899l-0.905271,0.238763c0.206486,0.335199 0.445171,0.676075 0.716053,1.022629z" fill="black" fill-opacity="0" id="svg_70" transform="rotate(5 19.1141 29.3206)"/>
   <circle cx="6.50458" cy="42.178747" fill="none" id="svg_69" r="0.641516" transform="rotate(5 3.15832 38.6513) matrix(0.903422 0.159298 -0.159298 0.903422 4.00093 -0.490075)"/>
   <circle cx="32.48192" cy="49.08494" fill="none" id="svg_68" r="0.641517" transform="rotate(5 26.6226 44.9385) matrix(0.903422 0.159298 -0.159298 0.903422 5.09687 -4.58017)"/>
   <path d="m10.903003,40.119649c-0.321978,-0.056773 -0.624979,0.15539 -0.681753,0.477368c-0.022709,0.128791 0.018977,0.268937 0.06634,0.376885c0.073884,0.145823 0.217841,0.270803 0.411028,0.304867s0.371208,-0.034143 0.490511,-0.145902c0.081428,-0.085239 0.168533,-0.202675 0.191242,-0.331466c0.056773,-0.321978 -0.15539,-0.624979 -0.477368,-0.681753z" fill="none" id="svg_67" transform="rotate(5 10.8022 40.699)"/>
   <path d="m20.545168,43.018201l-0.022709,0.128791l0.193187,0.034064l0.022709,-0.128791c0.181675,-1.03033 -0.50218,-2.047281 -1.564707,-2.234634l-7.824067,-1.379594c-1.03033,-0.181675 -2.047281,0.50218 -2.234634,1.564707l-0.022709,0.128791l0.193187,0.034064l0.022709,-0.128791c0.164643,-0.933736 1.073646,-1.570228 2.007383,-1.405585l7.824067,1.379594c0.971612,0.138122 1.575905,1.041449 1.405585,2.007383z" fill="none" id="svg_66" transform="rotate(5 14.9299 41.295)"/>
   <path d="m19.082344,42.311297c-0.321978,-0.056773 -0.624979,0.15539 -0.681753,0.477368c-0.022709,0.128791 0.018977,0.268937 0.06634,0.376885c0.073884,0.145823 0.217841,0.270803 0.411028,0.304867s0.371208,-0.034143 0.490511,-0.145902c0.081428,-0.085239 0.168533,-0.202675 0.191242,-0.331466c0.056773,-0.321978 -0.15539,-0.624979 -0.477368,-0.681753z" fill="none" id="svg_65" transform="rotate(5 18.9816 42.8907)"/>
   <path d="m20.37832,33.470167l0.092782,-0.149634c-0.123114,-0.054907 -0.225385,-0.039741 -0.268937,0.018977c-0.081428,0.085239 0.045497,0.306812 0.25385,0.443147c0.202675,0.168533 0.42806,0.208274 0.509488,0.123035c0.043552,-0.058718 -0.003811,-0.166666 -0.051175,-0.274614l-0.066262,0.187509l-0.469746,-0.34842z" fill="none" id="svg_64" transform="rotate(5 20.58 33.6178)"/>
   <path d="m14.34874,23.23404c0.304946,0.153367 0.712163,0.291568 1.130734,0.365373c0.901539,0.158966 1.867473,0.329286 1.867473,0.329286l0.124902,-0.708352l0.017032,-0.096593l0.124902,-0.708352c0,0 -0.933736,-0.164643 -1.867473,-0.329286c-0.418571,-0.073805 -0.854175,-0.051017 -1.187508,-0.043395l-0.017032,0.096593c-0.070073,0.020843 -0.134469,0.009488 -0.172344,0.036009l-0.158966,0.901539c0.058718,0.043552 0.090916,0.04923 0.149634,0.092782l-0.011355,0.064396z" fill="none" id="svg_63" transform="rotate(5 15.9121 22.981)"/>
   <path d="m17.940711,22.634692c-0.096593,-0.017032 -0.225385,-0.039741 -0.225385,-0.039741l-0.124902,0.708352l-0.017032,0.096593l-0.124902,0.708352c0,0 0.096593,0.017032 0.225385,0.039741l0.266835,-1.513297z" fill="none" id="svg_62" transform="rotate(5 17.6946 23.3715)"/>
   <path d="m18.256516,22.719312c-0.096593,-0.017032 -0.225385,-0.039741 -0.225385,-0.039741l-0.124902,0.708352l-0.017032,0.096593l-0.124902,0.708352c0,0 0.096593,0.017032 0.225385,0.039741l0.266835,-1.513297z" fill="none" id="svg_61" transform="rotate(5 18.0104 23.4561)"/>
   <path d="m18.325302,24.221252l0.25548,-1.448901c-0.096593,-0.017032 -0.225385,-0.039741 -0.225385,-0.039741l-0.124902,0.708352l-0.017032,0.096593l-0.124902,0.708352l0,0c0,0 0.096593,0.017032 0.225385,0.039741l0.011355,-0.064396z" fill="none" id="svg_60" transform="rotate(5 18.3347 23.5091)"/>
   <path d="m19.022556,24.205767l0.221416,-1.255714c0,0 -0.032198,-0.005677 -0.032198,-0.005677c-0.096593,-0.017032 -0.160989,-0.028387 -0.193187,-0.034064c0,0 0,0 0,0l-0.124902,0.708352l-0.017032,0.096593l-0.08516,0.482967l-0.039741,0.225385c0,0 0.096593,0.017032 0.225385,0.039741l0.045419,-0.257582z" fill="none" id="svg_59" transform="rotate(5 18.9979 23.6868)"/>
   <path d="m18.654263,24.410619l0.034064,-0.193187l0.238448,-1.352308c-0.032198,-0.005677 -0.032198,-0.005677 -0.064396,-0.011355c-0.096593,-0.017032 -0.160989,-0.028387 -0.160989,-0.028387l-0.124902,0.708352l-0.017032,0.096593l-0.107869,0.611758l-0.022709,0.128791c0,0 0.064396,0.011355 0.128791,0.022709c0.032198,0.005677 0.064396,0.011355 0.096593,0.017032z" fill="none" id="svg_58" transform="rotate(5 18.6778 23.618)"/>
   <path d="m21.838447,34.845215l0.092782,-0.149634c-0.128791,-0.022709 -0.231062,-0.007544 -0.274614,0.051175c-0.04923,0.090916 0.083372,0.280292 0.291725,0.416627s0.465935,0.181754 0.520842,0.05864c0.043552,-0.058718 -0.003811,-0.166666 -0.08905,-0.248094l-0.092782,0.149634l-0.448903,-0.278347z" fill="none" id="svg_57" transform="rotate(5 22.066 34.9897)"/>
   <path d="m23.404323,36.078423l0.060585,-0.155312c-0.128791,-0.022709 -0.231062,-0.007544 -0.242417,0.056852c-0.04923,0.090916 0.083372,0.280292 0.323923,0.422304c0.24055,0.142012 0.471612,0.149556 0.520842,0.05864c0.043552,-0.058718 -0.003811,-0.166666 -0.121248,-0.253771l-0.04923,0.090916l-0.492456,-0.219629z" fill="none" id="svg_56" transform="rotate(5 23.6478 36.217)"/>
   <path d="m16.954331,28.653045l0.107948,-0.047364c-0.117437,-0.087105 -0.24055,-0.142012 -0.278426,-0.115492c-0.113625,0.079561 -0.051096,0.28978 0.108027,0.517031c0.159123,0.227251 0.340955,0.325711 0.448903,0.278347c0.037875,-0.02652 0.054907,-0.123114 0.034064,-0.193187l-0.242417,0.056852l-0.1781,-0.496188z" fill="none" id="svg_55" transform="rotate(5 17.0549 28.8903)"/>
   <path d="m10.018929,29.958654c0.579561,0.102192 1.147688,-0.295615 1.24988,-0.875175s-0.295615,-1.147688 -0.875175,-1.24988c-0.579561,-0.102192 -1.147688,0.295615 -1.24988,0.875175s0.295615,1.147688 0.875175,1.24988zm0.086948,-1.246226l0.193187,0.034064l0.068207,0.178021l-0.12498,0.143957l-0.193187,-0.034064l-0.068207,-0.178021l0.12498,-0.143957z" fill="none" id="svg_54" transform="rotate(5 10.2063 28.8961)"/>
   <path d="m19.049672,32.100523l0.119303,-0.111759c-0.123114,-0.054907 -0.219707,-0.071939 -0.26326,-0.013221c-0.081428,0.085239 0.0133,0.301135 0.215975,0.469668c0.202675,0.168533 0.422383,0.240472 0.50381,0.155233c0.043552,-0.058718 0.028387,-0.160989 -0.051175,-0.274614l-0.12498,0.143957l-0.399673,-0.369263z" fill="none" id="svg_53" transform="rotate(5 19.263 32.2876)"/>
   <path d="m20.358113,31.656825l-0.244283,0.255716c0.314434,0.287835 0.602348,0.537796 0.948981,0.831308l0.217762,-0.293591c-0.320112,-0.255638 -0.640224,-0.511275 -0.92246,-0.793433z" fill="none" id="svg_52" transform="rotate(5 20.6972 32.2003)"/>
   <path d="m22.950142,34.122867l-0.191242,0.331466c0.384507,0.266992 0.774692,0.501787 1.164877,0.736581l0.159044,-0.337144c-0.357987,-0.229117 -0.748172,-0.463912 -1.132679,-0.730904z" fill="none" id="svg_51" transform="rotate(5 23.4209 34.6569)"/>
   <path d="m19.342204,30.392756l-0.303001,0.212164c0.250039,0.276481 0.526598,0.590837 0.814512,0.840797l0.244283,-0.255716c-0.287914,-0.24996 -0.537953,-0.526441 -0.755794,-0.797244z" fill="none" id="svg_50" transform="rotate(5 19.5686 30.9192)"/>
   <path d="m18.386021,28.880575l-0.350365,0.104216c0.233007,0.373074 0.466014,0.746148 0.736896,1.092702l0.303001,-0.212164c-0.244362,-0.308679 -0.483046,-0.649555 -0.689532,-0.984754z" fill="none" id="svg_49" transform="rotate(5 18.5556 29.479)"/>
   <path d="m21.986457,33.241383c-0.143957,-0.12498 -0.293591,-0.217762 -0.405351,-0.337065l-0.217762,0.293591c0.143957,0.12498 0.261394,0.212085 0.405351,0.337065c0.202675,0.168533 0.443226,0.310545 0.645901,0.479077l0.191242,-0.331466c-0.208353,-0.136335 -0.411028,-0.304867 -0.619381,-0.441202z" fill="none" id="svg_31" transform="rotate(5 21.9846 33.4592)"/>
  </g>
 </g>

</svg>