<?xml version="1.0"?>
<svg width="1000" height="1000" xmlns="http://www.w3.org/2000/svg" xmlns:svg="http://www.w3.org/2000/svg">
 <metadata>Svg Vector Icons : http://www.onlinewebfonts.com/icon</metadata>
 <g class="layer">
  <title>Layer 1</title>
  <text fill="#ffffff" font-family="Sans-serif" font-size="20" font-weight="bold" id="svg_6" stroke-width="0" style="cursor: move;" text-anchor="middle" transform="matrix(26.16 0 0 21.9692 -15579.6 -12230)" x="614.674008" xml:space="preserve" y="586.187684">1</text>
  <path d="m464.100007,10.539993c-67.660001,5.17 -130.150002,23.19 -190.340003,54.250001c-128.240002,66.510001 -222.170003,188.610003 -253.410004,329.690005c-8.43,37.950001 -10.35,58.850001 -10.35,106.380002c0.19,52.330001 3.26,78.010001 15.14,123.440002c9.2,34.500001 17.64,56.930001 34.500001,91.240001c25.11,51.180001 51.560001,88.170001 92.970001,129.580002c40.250001,40.250001 74.180001,65.560001 121.720002,90.090001c141.840002,73.610001 308.800005,73.610001 450.840007,0c47.540001,-24.73 87.980001,-55.010001 126.130002,-94.310001c184.590003,-190.150003 184.970003,-490.900007 0.96,-681.05001c-83.580001,-86.250001 -190.350003,-137.620002 -309.570005,-148.730002c-19.37,-1.73 -60.190001,-2.11 -78.590001,-0.58zm-61.540001,65.170001c2.88,13.03 4.79,24.34 4.22,25.3c-0.58,0.96 -4.41,2.3 -8.24,3.07c-13.99,2.49 -53.480001,16.68 -74.370001,26.64c-23.19,11.12 -46.770001,25.11 -66.710001,39.870001c-12.46,9.2 -13.23,9.58 -15.53,6.13c-1.53,-2.11 -8.82,-11.31 -16.29,-20.7c-7.48,-9.39 -13.61,-17.63 -13.61,-18.59c0,-2.3 34.890001,-26.45 56.350001,-39.100001c32.01,-18.78 73.610001,-36.040001 110.410002,-45.810001c11.5,-3.26 16.68,-3.83 17.44,-2.3c0.78,1.15 3.65,12.65 6.33,25.49zm251.300004,-12.84c25.3,9.01 55.200001,22.81 76.860001,35.460001c20.51,11.88 56.360001,36.800001 56.360001,38.910001c0,0.77 -7.48,10.73 -16.48,22.04l-16.49,20.7l-6.9,-5.37c-17.44,-13.42 -45.620001,-30.67 -68.430001,-41.790001c-23.96,-11.69 -63.060001,-26.07 -78.210001,-28.94c-4.02,-0.57 -7.86,-2.3 -8.43,-3.83c-0.77,-1.92 6.71,-39.490001 9.97,-50.030001c0.96,-2.68 24.15,3.07 51.750001,12.85zm-102.740002,79.740001c151.040002,22.04 270.270004,134.750002 302.470005,286.180004c4.79,22.43 5.18,27.6 5.37,70.160001c0,40.640001 -0.58,48.690001 -4.41,68.050001c-29.52,146.640002 -141.270002,258.390004 -287.900004,287.910004c-19.36,3.83 -27.41,4.41 -68.050001,4.41c-42.550001,-0.19 -47.730001,-0.58 -70.160001,-5.37c-151.430002,-32.21 -264.140004,-151.440002 -286.180004,-302.480005c-4.03,-26.64 -23,54.620001 0,-103.130002c23,-157.750002 146.450002,-281.580004 304.580005,-305.730005c24.16,-3.83 78.980001,-3.83 104.280002,0zm-422.660006,179.030003c0.96,0.96 -1.92,9.78 -6.33,20.13c-18.21,42.750001 -27.79,85.110001 -32.01,141.270002l-1.15,16.87l-26.83,0l-27.03,0l1.34,-22.62c3.45,-59.040001 17.25,-116.930002 39.680001,-166.190002l5.56,-12.27l22.43,10.54c12.46,5.95 23.38,11.5 24.34,12.27zm794.910012,-10.16c21.09,46.580001 35.840001,108.680002 39.290001,165.800002l1.34,22.62l-27.03,0l-26.84,0l-1.15,-16.87c-4.03,-55.400001 -13.99,-99.670001 -32.01,-141.080002c-4.03,-9.58 -7.48,-18.21 -7.48,-18.98c0,-1.15 44.470001,-23.96 47.340001,-24.34c0.4,0.01 3.28,5.76 6.54,12.85zm-786.860012,378.570006c8.24,17.44 32.59,53.860001 49.070001,73.410001c13.99,16.48 37.570001,40.440001 50.990001,51.180001c3.26,2.88 6.13,5.56 6.13,6.33c0,0.57 -7.28,10.16 -16.1,21.28l-16.29,20.13l-13.04,-11.31c-42.360001,-36.800001 -79.740001,-83.190001 -106.770002,-133.220002l-9.2,-16.68l23.77,-11.5c12.84,-6.13 24.15,-11.31 24.73,-11.31c0.58,-0.19 3.64,5.18 6.71,11.69zm760.400011,0.96l20.7,10.35l-9.01,16.67c-12.84,23.58 -31.44,51.560001 -48.880001,73.220001c-15.91,19.74 -65.750001,69.010001 -69.770001,69.010001c-2.11,0 -27.6,-29.9 -32.39,-37.760001c-0.77,-1.53 1.34,-4.79 5.94,-8.63c16.29,-13.99 36.230001,-34.120001 50.030001,-50.410001c16.49,-19.55 40.830001,-55.970001 49.070001,-73.410001c6.71,-13.99 4.41,-13.99 34.310001,0.96zm-458.690007,214.690003c28.37,5.18 98.910001,4.41 129.190002,-0.96c12.65,-2.3 23,-4.03 23.38,-3.64c0.19,0.19 2.68,10.35 5.56,22.43c2.68,12.08 5.36,23.39 5.94,25.11c2.68,9.01 -89.900001,18.02 -139.930002,13.42c-22.04,-2.11 -64.020001,-8.63 -65.360001,-10.16c-0.19,-0.38 2.3,-12.08 5.37,-26.07l5.94,-25.69l5.75,1.15c3.26,0.76 14.19,2.68 24.16,4.41z" fill="#ffffff" id="svg_3"/>
  <path d="m449.720007,161.589995c-74.180001,11.69 -139.350002,44.660001 -192.070003,97.180001c-51.370001,51.560001 -85.300001,119.230002 -96.420001,192.450003c-3.64,24.53 -3.64,72.840001 0,97.370001c19.74,130.340002 110.030002,236.730004 235.000004,276.790004c38.140001,12.27 54.050001,14.57 101.400002,14.57c56.160001,0.19 83.000001,-4.79 131.300002,-23.96c82.040001,-32.78 153.920002,-104.660002 186.700003,-186.700003c19.17,-48.300001 24.15,-75.140001 23.96,-131.300002c0,-37.190001 -0.58,-45.810001 -4.22,-63.060001c-18.77,-87.030001 -63.430001,-157.760002 -131.860002,-208.750003c-45.810001,-34.120001 -98.140001,-55.970001 -155.260002,-64.600001c-23.39,-3.44 -75.910001,-3.44 -98.530001,0.01zm102.550002,82.230001c52.900001,12.08 92.780001,33.740001 130.540002,71.120001c41.980001,41.590001 67.670001,92.580001 75.710001,150.280002c2.88,19.93 1.15,69.010001 -2.88,87.410001c-11.5,51.750001 -34.880001,94.310001 -71.880001,131.500002c-37.190001,36.990001 -79.740001,60.380001 -131.490002,71.880001c-18.4,4.03 -67.470001,5.75 -87.410001,2.88c-58.270001,-8.24 -108.490002,-33.54 -150.280002,-75.710001c-37.760001,-37.960001 -60.000001,-79.170001 -71.310001,-132.070002c-4.79,-22.04 -4.79,-80.310001 0,-102.360002c10.73,-50.410001 32.97,-92.580001 67.280001,-128.430002c40.250001,-42.360001 88.560001,-68.050001 146.830002,-78.400001c19.17,-3.47 76.490001,-2.32 94.890001,1.9z" fill="#ffffff" id="svg_4" transform="matrix(1 0 0 1 0 0)"/>
 </g>
</svg>