<?xml version="1.0"?>
<svg width="30" height="8" xmlns="http://www.w3.org/2000/svg" xmlns:svg="http://www.w3.org/2000/svg">
 <g class="layer">
  <title>Layer 1</title>
  <g id="svg_24">
   <g filter="url(#editing-vintage)" id="svg_32">
    <g id="svg_91" transform="translate(40.29 122.625)">
     <path d="m-34.778632,-115.711484l-0.322215,-1.304573l-1.782795,0l-0.322215,1.304573l-1.976393,0l1.976393,-5.948844l2.524025,0l1.890202,5.948844l-1.987001,0l0.000004,0l-0.000004,0l-0.000001,0zm-1.181457,-4.664891l-0.043093,0l-0.633823,2.20199l1.278255,0l-0.601338,-2.20199l-0.000001,0zm3.716094,4.664891l0,-5.948844l1.933295,0l0,5.948844l-1.933295,0zm6.476807,-3.297827l1.890202,0l0,2.974422l0,0q-0.719349,0.229347 -1.363781,0.333715l0,0l0,0q-0.644436,0.104365 -1.085327,0.104365l0,0l0,0q-1.46058,0 -2.287335,-0.740871l0,0l0,0q-0.827421,-0.740867 -0.827421,-2.27543l0,0l0,0q0,-1.565484 0.870514,-2.343075l0,0l0,0q0.869853,-0.776943 2.448446,-0.776943l0,0l0,0q0.827417,0 1.986997,0.239656l0,0l0,0q0,0.208731 -0.043093,0.621041l0,0l0,0q-0.042432,0.412306 -0.085525,0.579163l0,0l-0.38653,-0.010306l0,0q-0.709406,-0.020616 -1.10654,-0.020616l0,0l0,0q-1.192068,0 -1.299472,0.135292l0,0l0,0q-0.171715,0.198421 -0.241996,0.615886l0,0l0,0q-0.069612,0.417461 -0.069612,0.803357l0,0l0,0q0,0.699636 0.161108,1.085532l0,0l0,0q0.161108,0.386539 0.493932,0.543086l0,0l0,0q0.332824,0.156549 0.902338,0.156549l0,0l0.043093,0l0,-2.024824l0,0l-0.000001,0l0.000003,0.000003zm2.813757,3.297827l0,-5.948844l1.943903,0l0,2.181371l1.664784,0l0,-2.181371l1.944569,0l0,5.948844l-1.944569,0l0,-2.567267l-1.664784,0l0,2.567267l-1.943903,0zm9.849469,-4.644275l0,4.644275l-1.933295,0l0,-4.644275l-1.729759,0l0,-1.304569l5.392149,0l0,1.304569l-1.729093,0l-0.000001,0z" fill="#f00" id="svg_92" stroke="#ffffff" stroke-width="0.1"/>
    </g>
   </g>
   <g id="svg_93">
    <g id="svg_94" transform="translate(40.29 122.625)">
     <path d="m-34.778632,-115.711484l-0.322215,-1.304573l-1.782795,0l-0.322215,1.304573l-1.976393,0l1.976393,-5.948844l2.524025,0l1.890202,5.948844l-1.987001,0l0.000004,0l-0.000004,0l-0.000001,0zm-1.181457,-4.664891l-0.043093,0l-0.633823,2.20199l1.278255,0l-0.601338,-2.20199l-0.000001,0zm3.716094,4.664891l0,-5.948844l1.933295,0l0,5.948844l-1.933295,0zm6.476807,-3.297827l1.890202,0l0,2.974422l0,0q-0.719349,0.229347 -1.363781,0.333715l0,0l0,0q-0.644436,0.104365 -1.085327,0.104365l0,0l0,0q-1.46058,0 -2.287335,-0.740871l0,0l0,0q-0.827421,-0.740867 -0.827421,-2.27543l0,0l0,0q0,-1.565484 0.870514,-2.343075l0,0l0,0q0.869853,-0.776943 2.448446,-0.776943l0,0l0,0q0.827417,0 1.986997,0.239656l0,0l0,0q0,0.208731 -0.043093,0.621041l0,0l0,0q-0.042432,0.412306 -0.085525,0.579163l0,0l-0.38653,-0.010306l0,0q-0.709406,-0.020616 -1.10654,-0.020616l0,0l0,0q-1.192068,0 -1.299472,0.135292l0,0l0,0q-0.171715,0.198421 -0.241996,0.615886l0,0l0,0q-0.069612,0.417461 -0.069612,0.803357l0,0l0,0q0,0.699636 0.161108,1.085532l0,0l0,0q0.161108,0.386539 0.493932,0.543086l0,0l0,0q0.332824,0.156549 0.902338,0.156549l0,0l0.043093,0l0,-2.024824l0,0l-0.000001,0l0.000003,0.000003zm2.813757,3.297827l0,-5.948844l1.943903,0l0,2.181371l1.664784,0l0,-2.181371l1.944569,0l0,5.948844l-1.944569,0l0,-2.567267l-1.664784,0l0,2.567267l-1.943903,0zm9.849469,-4.644275l0,4.644275l-1.933295,0l0,-4.644275l-1.729759,0l0,-1.304569l5.392149,0l0,1.304569l-1.729093,0l-0.000001,0z" fill="#e71b00" id="svg_95" stroke="#ffffff" stroke-width="0.1"/>
    </g>
   </g>
  </g>
 </g>
 <defs>undefined</defs>
</svg>