<?xml version="1.0"?>
<svg width="60" height="30.000000000000004" xmlns="http://www.w3.org/2000/svg" xmlns:svg="http://www.w3.org/2000/svg">
 <g class="layer">
  <title>Layer 1</title>
  <g id="svg_24">
   <g filter="url(#editing-vintage)" id="svg_32">
    <g id="svg_91" transform="translate(40.29 122.625)">
     <path d="m-21.256568,-114.16318l-0.38162,-1.54509l-2.11149,0l-0.38162,1.54509l-2.34077,0l2.34077,-7.04561l2.98937,0l2.23869,7.04561l-2.35333,0l0,0l0,0l0,0zm-1.39928,-5.52494l-0.05104,0l-0.75068,2.60796l1.51392,0l-0.7122,-2.60796l0,0zm4.40121,5.52494l0,-7.04561l2.28973,0l0,7.04561l-2.28973,0zm7.67091,-3.90583l2.23869,0l0,3.5228l0,0q-0.85197,0.27163 -1.61521,0.39524l0,0l0,0q-0.76325,0.12361 -1.28543,0.12361l0,0l0,0q-1.72986,0 -2.70904,-0.87746l0,0l0,0q-0.97997,-0.87746 -0.97997,-2.69494l0,0l0,0q0,-1.85411 1.03101,-2.77506l0,0l0,0q1.03022,-0.92019 2.89985,-0.92019l0,0l0,0q0.97997,0 2.35334,0.28384l0,0l0,0q0,0.24722 -0.05104,0.73554l0,0l0,0q-0.05026,0.48832 -0.1013,0.68594l0,0l-0.45779,-0.0122l0,0q-0.84019,-0.02442 -1.31054,-0.02442l0,0l0,0q-1.41185,0 -1.53905,0.16023l0,0l0,0q-0.20338,0.23501 -0.28662,0.72944l0,0l0,0q-0.08244,0.49442 -0.08244,0.95147l0,0l0,0q0,0.82862 0.19081,1.28566l0,0l0,0q0.19081,0.45781 0.585,0.64322l0,0l0,0q0.39418,0.18541 1.06869,0.18541l0,0l0.05104,0l0,-2.39813l0,0l0,0zm3.33252,3.90583l0,-7.04561l2.30229,0l0,2.58354l1.97171,0l0,-2.58354l2.30308,0l0,7.04561l-2.30308,0l0,-3.04058l-1.97171,0l0,3.04058l-2.30229,0zm11.66537,-5.50052l0,5.50052l-2.28973,0l0,-5.50052l-2.04867,0l0,-1.54509l6.38628,0l0,1.54509l-2.04788,0l0,0z" fill="#f00" id="svg_92" stroke="#ffffff" stroke-width="0.5"/>
    </g>
   </g>
   <g id="svg_93">
    <g id="svg_94" transform="translate(40.29 122.625)">
     <path d="m-21.256568,-114.16318l-0.38162,-1.54509l-2.11149,0l-0.38162,1.54509l-2.34077,0l2.34077,-7.04561l2.98937,0l2.23869,7.04561l-2.35333,0l0,0l0,0l0,0zm-1.39928,-5.52494l-0.05104,0l-0.75068,2.60796l1.51392,0l-0.7122,-2.60796l0,0zm4.40121,5.52494l0,-7.04561l2.28973,0l0,7.04561l-2.28973,0zm7.67091,-3.90583l2.23869,0l0,3.5228l0,0q-0.85197,0.27163 -1.61521,0.39524l0,0l0,0q-0.76325,0.12361 -1.28543,0.12361l0,0l0,0q-1.72986,0 -2.70904,-0.87746l0,0l0,0q-0.97997,-0.87746 -0.97997,-2.69494l0,0l0,0q0,-1.85411 1.03101,-2.77506l0,0l0,0q1.03022,-0.92019 2.89985,-0.92019l0,0l0,0q0.97997,0 2.35334,0.28384l0,0l0,0q0,0.24722 -0.05104,0.73554l0,0l0,0q-0.05026,0.48832 -0.1013,0.68594l0,0l-0.45779,-0.0122l0,0q-0.84019,-0.02442 -1.31054,-0.02442l0,0l0,0q-1.41185,0 -1.53905,0.16023l0,0l0,0q-0.20338,0.23501 -0.28662,0.72944l0,0l0,0q-0.08244,0.49442 -0.08244,0.95147l0,0l0,0q0,0.82862 0.19081,1.28566l0,0l0,0q0.19081,0.45781 0.585,0.64322l0,0l0,0q0.39418,0.18541 1.06869,0.18541l0,0l0.05104,0l0,-2.39813l0,0l0,0zm3.33252,3.90583l0,-7.04561l2.30229,0l0,2.58354l1.97171,0l0,-2.58354l2.30308,0l0,7.04561l-2.30308,0l0,-3.04058l-1.97171,0l0,3.04058l-2.30229,0zm11.66537,-5.50052l0,5.50052l-2.28973,0l0,-5.50052l-2.04867,0l0,-1.54509l6.38628,0l0,1.54509l-2.04788,0l0,0z" fill="#e71b00" id="svg_95" stroke="#ffffff" stroke-width="0.5"/>
    </g>
   </g>
  </g>
 </g>
 <defs>undefined</defs>
</svg>