<?xml version="1.0"?>
<svg width="80" height="80" xmlns="http://www.w3.org/2000/svg" xmlns:svg="http://www.w3.org/2000/svg">
 <g class="layer">
  <title>Layer 1</title>
  <rect fill="#e71b00" height="2.91518" id="svg_97" stroke="#ffffff" stroke-linejoin="round" stroke-width="0.5" transform="rotate(22.5 24.5247 23.9281)" width="8.877014" x="20.086152" y="22.470506"/>
  <rect fill="#e71b00" height="2.91518" id="svg_191" stroke="#ffffff" stroke-linejoin="round" stroke-width="0.5" transform="matrix(1 0 0 1 0 0) rotate(22.5 62.463 39.9513)" width="54.720201" x="35.102946" y="38.493755"/>
  <path d="m180.461413,89.314081c-1.592093,0.76725 -3.765253,2.560436 -5.448004,1.904026c-1.104001,-0.423855 -1.750136,-2.827793 -2.435786,-4.092792c-5.162125,-9.51142 -10.772826,-20.329131 -14.856502,-29.584067c0,-0.412962 -0.234737,-0.732486 0.113892,-1.293254c-2.284715,-3.477655 -3.834975,-7.298744 -6.331193,-11.167653c-0.790252,-1.230234 -1.59443,-2.936451 -2.703085,-3.427672l-2.047661,-0.799871c-2.603138,-0.625971 -4.504344,-0.604244 -6.319586,1.028099c-0.920387,0.832453 -1.343392,2.206129 -2.233573,3.032072c-0.601984,0.565134 -2.895989,1.954029 -3.748991,1.738837c-0.662397,-0.167352 -1.208603,-0.79116 -1.673442,-1.58234l-1.617664,-2.795172c-0.453231,-0.795506 -0.711221,-1.560593 -0.499719,-2.171364c0.271935,-0.786815 2.77049,-1.825768 3.607211,-1.988793c1.227202,-0.24561 2.682169,0.176062 3.932605,-0.089113c2.456703,-0.528168 3.516553,-2.003993 4.376527,-4.390549c6.061595,-3.332031 14.221975,-5.499069 23.723429,-2.703877c2.577567,0.758559 5.048233,1.334547 6.742591,2.875594c0.339339,0.895492 -0.332367,1.073717 -1.036597,1.062844c0.550842,0.469493 1.441022,0.741177 0.927359,1.843169c-5.798951,-2.490868 -17.05985,-3.351596 -17.824531,1.747528c-0.167352,1.134594 0.918069,2.697369 1.585121,3.988441c2.103438,4.073227 4.674033,7.377003 6.538061,11.065504c0.692622,0.036947 0.850685,0.391235 1.22023,0.623808c6.052306,8.259458 12.669378,18.56422 18.361428,27.808283c0.757709,1.230234 2.552015,3.047311 2.328885,4.142775c-0.334684,1.675798 -3.088912,2.456104 -4.681005,3.225536z" fill="#e71b00" id="svg_104" stroke="#ffffff" stroke-linejoin="round" stroke-width="0" transform="matrix(1 0 0 1 0 0) rotate(-40 157.873 60.5035)"/>
  <rect fill="#e71b00" height="2.91518" id="svg_30" stroke="#ffffff" stroke-linejoin="round" stroke-width="0.5" transform="rotate(22.5 5.76811 16.118)" width="10.068341" x="0.733942" y="14.660429"/>
  <g id="svg_96" transform="rotate(-35 -12.8168 20.3072)">
   <g id="svg_28">
    <path d="m-39.40682,2.77472c-0.14099,-0.08459 -0.28199,-0.14099 -0.39478,-0.22559l-0.141,0.28199c0.141,0.0846 0.25379,0.141 0.39479,0.22559c0.19739,0.1128 0.42298,0.1974 0.62038,0.31019l0.11279,-0.31019c-0.19739,-0.08459 -0.39478,-0.19739 -0.59218,-0.28199z" fill="none" id="svg_2"/>
    <path d="m-43.35468,-0.07338l-0.28199,0.141c0.25379,0.28199 0.50758,0.56398 0.78957,0.81777l0.2256,-0.22559c-0.2538,-0.22559 -0.50759,-0.47938 -0.73318,-0.73318z" fill="none" id="svg_3"/>
    <path d="m-42.22672,0.96999l-0.22559,0.22559c0.25379,0.19739 0.53578,0.42298 0.81777,0.59218l0.16919,-0.25379c-0.28199,-0.1692 -0.53578,-0.36659 -0.76137,-0.56398z" fill="none" id="svg_4"/>
    <path d="m-38.39165,3.25411l-0.1128,0.31019c0.36659,0.16919 0.73317,0.31018 1.09976,0.45118l0.0846,-0.31019c-0.33839,-0.14099 -0.70497,-0.28199 -1.07156,-0.45118l0,0z" fill="none" id="svg_5"/>
    <path d="m-41.09876,1.78776l-0.16919,0.25379c0.31019,0.19739 0.59218,0.36659 0.93057,0.56398l0.14099,-0.28199c-0.31019,-0.16919 -0.62038,-0.33839 -0.90237,-0.53578z" fill="none" id="svg_6"/>
    <path d="m-42.11392,2.46454l0.08459,-0.1128c-0.11279,-0.0282 -0.19739,-0.0282 -0.22559,0.0282c-0.0564,0.0846 0.0564,0.25379 0.25379,0.36659c0.1974,0.11279 0.39479,0.14099 0.45119,0.05639c0.0282,-0.05639 0,-0.14099 -0.0846,-0.22559l-0.0846,0.141l-0.39478,-0.25379z" fill="none" id="svg_7"/>
    <path d="m-50.20704,2.71833c0.50758,0 0.93057,-0.42299 0.93057,-0.93057s-0.42299,-0.93057 -0.93057,-0.93057c-0.50758,0 -0.93057,0.42299 -0.93057,0.93057s0.42299,0.93057 0.93057,0.93057zm-0.1128,-1.07157l0.1692,0l0.0846,0.141l-0.0846,0.14099l-0.1692,0l-0.08459,-0.14099l0.08459,-0.141z" fill="none" id="svg_8"/>
    <path d="m-44.62364,0.06762l0.0846,-0.0564c-0.11279,-0.0564 -0.22559,-0.0846 -0.25379,-0.0564c-0.0846,0.0846 0,0.25379 0.16919,0.42299c0.1692,0.16919 0.33839,0.22559 0.42299,0.16919c0.0282,-0.0282 0.0282,-0.11279 0,-0.16919l-0.19739,0.08459l-0.2256,-0.39478z" fill="none" id="svg_9"/>
    <path d="m-37.60208,4.80505l0.0282,-0.14099c-0.1128,0 -0.19739,0.0282 -0.19739,0.08459c-0.0282,0.0846 0.11279,0.2256 0.33838,0.31019c0.2256,0.0846 0.42299,0.0564 0.45119,-0.0282c0.0282,-0.05639 -0.0282,-0.14099 -0.141,-0.19739l-0.0282,0.0846l-0.45118,-0.1128z" fill="none" id="svg_10"/>
    <path d="m-39.18122,4.12828l0.05639,-0.141c-0.11279,0 -0.19739,0.0282 -0.22559,0.0846c-0.0282,0.0846 0.1128,0.22559 0.31019,0.31019s0.42299,0.08459 0.45118,-0.0282c0.0282,-0.0564 -0.02819,-0.141 -0.11279,-0.19739l-0.0564,0.14099l-0.42298,-0.16919z" fill="none" id="svg_11"/>
    <path d="m-44.22885,-3.82385l0,-0.16919l0,-1.18436c-0.0282,0 -0.0282,0 -0.0564,0c-0.08459,0 -0.14099,0 -0.14099,0l0,0.62038l0,0.0846l0,0.53578l0,0.11279c0,0 0.0564,0 0.11279,0c0.0282,0 0.0564,0 0.0846,0l0,0z" fill="none" id="svg_12"/>
    <path d="m-43.94686,-4.07764l0,-1.09976c0,0 -0.0282,0 -0.0282,0c-0.08459,0 -0.14099,0 -0.16919,0c0,0 0,0 0,0l0,0.62038l0,0.0846l0,0.42298l0,0.19739c0,0 0.0846,0 0.19739,0l0,-0.22559l0,0z" fill="none" id="svg_13"/>
    <path d="m-44.53904,-3.90844l0,-1.26896c-0.0846,0 -0.19739,0 -0.19739,0l0,0.62038l0,0.0846l0,0.62037l0,0c0,0 0.0846,0 0.19739,0l0,-0.05639l0,0z" fill="none" id="svg_14"/>
    <path d="m-44.82103,-5.1492c-0.0846,0 -0.19739,0 -0.19739,0l0,0.62038l0,0.0846l0,0.62037c0,0 0.0846,0 0.19739,0l0,-1.32535l0,0z" fill="none" id="svg_15"/>
    <path d="m-45.10302,-5.1492c-0.0846,0 -0.19739,0 -0.19739,0l0,0.62038l0,0.0846l0,0.62037c0,0 0.0846,0 0.19739,0l0,-1.32535l0,0z" fill="none" id="svg_16"/>
    <path d="m-48.06391,-3.96484c0.28199,0.0846 0.64857,0.141 1.01516,0.141c0.78957,0 1.63554,0 1.63554,0l0,-0.62038l0,-0.0846l0,-0.62038c0,0 -0.81777,0 -1.63554,0c-0.36659,0 -0.73317,0.0846 -1.01516,0.141l0,0.08459c-0.0564,0.0282 -0.1128,0.0282 -0.141,0.0564l0,0.78957c0.0564,0.0282 0.0846,0.0282 0.141,0.0564l0,0.0564z" fill="none" id="svg_17"/>
    <path d="m-40.70397,3.31051l0.0564,-0.141c-0.1128,-0.0282 -0.1974,0 -0.2256,0.0564c-0.05639,0.0846 0.0846,0.25379 0.28199,0.33839c0.1974,0.11279 0.39479,0.11279 0.45119,0.02819c0.0282,-0.05639 -0.0282,-0.14099 -0.0846,-0.22559l-0.0282,0.1692l-0.45118,-0.22559z" fill="none" id="svg_18"/>
    <path d="m-39.7734,10.98064c-0.28199,0 -0.50759,0.22559 -0.50759,0.50758c0,0.11279 0.0564,0.22559 0.1128,0.31019c0.0846,0.11279 0.22559,0.19739 0.39479,0.19739s0.31018,-0.0846 0.39478,-0.19739c0.0564,-0.0846 0.1128,-0.1974 0.1128,-0.31019c0,-0.28199 -0.22559,-0.50758 -0.50758,-0.50758z" fill="none" id="svg_19"/>
    <path d="m-38.47625,11.68561l0,0.1128l0.16919,0l0,-0.1128c0,-0.90237 -0.73317,-1.66374 -1.66374,-1.66374l-6.85236,0c-0.90237,0 -1.66374,0.73317 -1.66374,1.66374l0,0.1128l0.16919,0l0,-0.1128c0,-0.81777 0.67678,-1.49455 1.49455,-1.49455l6.85236,0c0.84597,-0.0282 1.49455,0.64858 1.49455,1.49455z" fill="none" id="svg_20"/>
    <path d="m-47.07695,10.98064c-0.28199,0 -0.50758,0.22559 -0.50758,0.50758c0,0.11279 0.0564,0.22559 0.1128,0.31019c0.08459,0.11279 0.22559,0.19739 0.39478,0.19739s0.31019,-0.0846 0.39479,-0.19739c0.0564,-0.0846 0.11279,-0.1974 0.11279,-0.31019c0,-0.28199 -0.22559,-0.50758 -0.50758,-0.50758z" fill="none" id="svg_21"/>
    <circle cx="-32.949243" cy="11.488219" fill="none" id="svg_22" r="0.507581"/>
    <circle cx="-53.90111" cy="11.488219" fill="none" id="svg_23" r="0.507582"/>
    <path d="m-42.59331,0.688l0.53579,-0.47939c-0.2256,-0.19739 -0.39479,-0.39478 -0.56398,-0.62037l-0.73318,0.33838c0.22559,0.25379 0.47938,0.50759 0.76137,0.76138z" fill="black" fill-opacity="0" id="svg_29"/>
    <path d="m-32.10327,6.33038c-1.09976,-1.26895 -2.67891,-1.46635 -4.17346,-1.94573c-0.22559,-0.0846 -0.45118,-0.14099 -0.67677,-0.22559l-0.1692,0.59218c0.0846,0.0564 0.141,0.14099 0.141,0.19739c-0.0282,0.0846 -0.22559,0.1128 -0.45119,0.0282c-0.22559,-0.0846 -0.36658,-0.19739 -0.33838,-0.31019c0.0282,-0.0564 0.11279,-0.0846 0.19739,-0.0846l0.16919,-0.62037c-0.36658,-0.141 -0.73317,-0.31019 -1.09976,-0.45119l-0.19739,0.59218c0.0846,0.0564 0.14099,0.141 0.11279,0.19739c-0.02819,0.0846 -0.22559,0.1128 -0.45118,0.0282s-0.36659,-0.22559 -0.31019,-0.31019c0.0282,-0.05639 0.1128,-0.08459 0.22559,-0.08459l0.2256,-0.62038c-0.1974,-0.1128 -0.42299,-0.19739 -0.62038,-0.31019c-0.141,-0.0564 -0.25379,-0.141 -0.39479,-0.22559l-0.25379,0.56398c0.0846,0.08459 0.1128,0.16919 0.0846,0.22559c-0.0564,0.0846 -0.25379,0.0846 -0.45119,-0.0282c-0.19739,-0.1128 -0.33839,-0.25379 -0.28199,-0.33839c0.0282,-0.0564 0.1128,-0.0564 0.2256,-0.0564l0.28199,-0.56398c-0.31019,-0.16919 -0.62038,-0.36658 -0.93057,-0.56398l-0.36659,0.53579c0.0564,0.08459 0.1128,0.16919 0.0846,0.22559c-0.0564,0.08459 -0.25379,0.0564 -0.45119,-0.0564c-0.19739,-0.1128 -0.31018,-0.28199 -0.25379,-0.36659c0.0282,-0.0564 0.1128,-0.0564 0.2256,-0.0282l0.36658,-0.56398c-0.28199,-0.19739 -0.53578,-0.39478 -0.81777,-0.59218l-0.47938,0.45119c0.0564,0.0846 0.0564,0.16919 0.0282,0.19739c-0.0564,0.0846 -0.25379,0.0282 -0.45119,-0.11279c-0.16919,-0.141 -0.28199,-0.31019 -0.22559,-0.39479c0.0282,-0.0564 0.141,-0.0564 0.25379,0l0.47939,-0.45118c-0.28199,-0.2538 -0.53579,-0.53579 -0.78958,-0.81778l-0.59218,0.31019c0.0282,0.0846 0.0282,0.141 0,0.1692c-0.08459,0.08459 -0.25379,0 -0.42298,-0.1692c-0.16919,-0.16919 -0.22559,-0.33838 -0.16919,-0.42298c0.05639,-0.0564 0.14099,-0.0282 0.25379,0.0564l0.59218,-0.31019c-0.1692,-0.22559 -0.31019,-0.42299 -0.45119,-0.67678c-0.31019,0.31019 -0.67677,0.64858 -1.04336,0.98697c-1.01517,0.95876 -2.08673,1.97393 -2.28412,2.17132c-0.0564,0.0564 -0.0846,0.0846 -0.141,0.141c-0.39478,0.42298 -1.12796,1.21255 -2.34051,1.21255c-1.18436,0 -1.97394,-0.95876 -2.50972,-1.66374c-0.08459,-0.11279 -0.16919,-0.22559 -0.25379,-0.33839l-0.64857,-0.76137c-0.33839,0.84597 -0.78958,1.66374 -1.01517,2.53791c-0.28199,1.15616 -0.39478,2.31232 -0.42298,3.49668l23.29238,0c-0.0846,-0.141 -0.19739,-0.31019 -0.31019,-0.45118l0,-0.00001z" fill="#e71b00" id="svg_33"/>
    <path d="m-54.71888,8.72472c0.19739,0.05639 0.67677,0.14099 0.81777,0.16919c0,-0.0846 0,-0.16919 0,-0.28199c0,-0.22559 0.16919,-0.39479 0.39479,-0.39479l7.33174,0c0.22559,0 0.39478,0.1692 0.39478,0.39479l0,0.28199l0.59218,0c0.141,0 0.2538,-0.0564 0.36659,-0.1128c0.19739,-0.08459 0.36659,-0.22559 0.56398,-0.31018c0.25379,-0.0846 0.53578,-0.141 0.78957,-0.141c0.28199,0 0.56398,0.0564 0.78958,0.141c0.19739,0.08459 0.36658,0.19739 0.56398,0.31018c0.11279,0.0564 0.25379,0.1128 0.36658,0.1128l0.64858,0c0,-0.0846 0,-0.16919 0,-0.28199c0,-0.22559 0.16919,-0.39479 0.39479,-0.39479l7.33174,0c0.22559,0 0.39478,0.1692 0.39478,0.39479l0,0.28199c0.78958,0 1.38176,0 1.38176,0c0,-0.56398 0.0282,-1.18436 -0.1128,-1.74834l-23.40518,0c0,0.33839 0,0.70498 0,1.04336c0,0.28199 0.16919,0.47939 0.39479,0.53578l0,0.00001z" fill="#000000" id="svg_34"/>
    <path d="m-54.80348,12.024c-0.28199,-0.42299 -0.11279,-0.78957 0,-1.12796l0,-0.0282l0.33839,-0.84597l0.22559,-0.56398c-0.98696,0.16919 -1.72014,1.01516 -1.72014,2.03033c0,1.12796 0.93057,2.05853 2.05853,2.05853c0.73317,0 1.38175,-0.39479 1.74834,-0.95877l-1.72014,0c-0.36659,-0.0282 -0.73317,-0.22559 -0.93057,-0.56398l0,0z" fill="#e71b00" id="svg_35"/>
    <path d="m-32.61086,9.45789l0.2256,0.56398l0.33838,0.84597l0,0.0282c0.141,0.33839 0.282,0.70497 0,1.12796c-0.22559,0.33839 -0.59217,0.53578 -0.95876,0.53578l-1.72014,0c0.36659,0.59218 1.01516,0.95877 1.74834,0.95877c1.12796,0 2.05853,-0.93057 2.05853,-2.05853c0,-0.98697 -0.73318,-1.83294 -1.69195,-2.00213l0,0z" fill="#e71b00" id="svg_36"/>
    <path d="m-32.97744,12.33419c0.31019,0 0.59218,-0.16919 0.76137,-0.42299c0.22559,-0.33838 0.0846,-0.62037 -0.0564,-0.95876c-0.0846,-0.19739 -0.59218,-1.43815 -0.70497,-1.72014c0,-0.0282 -0.0282,-0.0564 -0.0282,-0.0564l-20.86727,0c0,0 0,0.0282 -0.0282,0.0564c-0.1128,0.25379 -0.62038,1.52275 -0.70498,1.72014c-0.14099,0.33839 -0.25379,0.62038 -0.05639,0.95876c0.16919,0.2538 0.45118,0.42299 0.76137,0.42299l7.52914,0c0.22559,-0.0282 0.42298,-0.0846 0.62037,-0.19739c0.1974,-0.1128 0.42299,-0.2256 0.62038,-0.33839c0.1128,-0.0564 0.22559,-0.1128 0.33839,-0.16919c0.39479,-0.141 0.87417,-0.2256 1.32535,-0.2256c0.45119,0 0.90237,0.0846 1.32536,0.2256c0.11279,0.05639 0.22559,0.11279 0.33839,0.16919c0.19739,0.11279 0.39478,0.22559 0.59217,0.33839c0.1974,0.11279 0.39479,0.16919 0.62038,0.19739l7.61374,0l0,0zm-6.40118,-0.53578c-0.0846,0.11279 -0.22559,0.19739 -0.39479,0.19739s-0.31018,-0.0846 -0.39478,-0.19739c-0.0564,-0.0846 -0.1128,-0.19739 -0.1128,-0.31019c0,-0.28199 0.22559,-0.50758 0.50758,-0.50758s0.50759,0.22559 0.50759,0.50758c0,0.1128 -0.0564,0.22559 -0.1128,0.31019zm6.42938,-0.81777c0.28199,0 0.50758,0.22559 0.50758,0.50758c0,0.28199 -0.22559,0.50758 -0.50758,0.50758s-0.50759,-0.22559 -0.50759,-0.50758c0,-0.28199 0.2256,-0.50758 0.50759,-0.50758zm-20.95187,1.01516c-0.28199,0 -0.50758,-0.22559 -0.50758,-0.50758c0,-0.28199 0.22559,-0.50758 0.50758,-0.50758s0.50758,0.22559 0.50758,0.50758c0,0.28199 -0.22559,0.50758 -0.50758,0.50758zm7.21895,-0.19739c-0.0846,0.11279 -0.2256,0.19739 -0.39479,0.19739s-0.31019,-0.0846 -0.39479,-0.19739c-0.05639,-0.0846 -0.11279,-0.19739 -0.11279,-0.31019c0,-0.28199 0.22559,-0.50758 0.50758,-0.50758s0.50758,0.22559 0.50758,0.50758c0,0.1128 -0.0282,0.22559 -0.11279,0.31019zm-0.141,-1.63554c-0.81777,0 -1.49455,0.67677 -1.49455,1.49454l0,0.1128l-0.16919,0l0,-0.1128c0,-0.90236 0.73317,-1.66374 1.66374,-1.66374l6.85236,0c0.90237,0 1.66374,0.73318 1.66374,1.66374l0,0.1128l-0.16919,0l0,-0.1128c0,-0.81777 -0.67678,-1.49454 -1.49455,-1.49454l-6.85236,0z" fill="black" id="svg_37"/>
    <polygon id="svg_38" points="-50.150634586811066,1.956956073641777 -50.03784543275833,1.7877591103315353 -50.150634586811066,1.646765872836113 -50.31983548402786,1.646765872836113 -50.4044263958931,1.7877591103315353 -50.31983548402786,1.956956073641777 "/>
    <line fill="#000000" id="svg_39" x1="-41.719136" x2="-41.634539" y1="2.718326" y2="2.60553"/>
    <g id="svg_40">
     <path d="m-44.82103,-5.1492c-0.0846,0 -0.19739,0 -0.19739,0l0,0.62038l0,0.0846l0,0.62037c0,0 0.0846,0 0.19739,0l0,-1.32535l0,0z" fill="#e71b00" id="svg_41"/>
     <path d="m-44.53904,-3.90844l0,-1.26896c-0.0846,0 -0.19739,0 -0.19739,0l0,0.62038l0,0.0846l0,0.62037l0,0c0,0 0.0846,0 0.19739,0l0,-0.05639l0,0z" fill="#e71b00" id="svg_42"/>
     <path d="m-44.22885,-3.82385l0,-0.16919l0,-1.18436c-0.0282,0 -0.0282,0 -0.0564,0c-0.08459,0 -0.14099,0 -0.14099,0l0,0.62038l0,0.0846l0,0.53578l0,0.11279c0,0 0.0564,0 0.11279,0c0.0282,0 0.0564,0 0.0846,0l0,0z" fill="#e71b00" id="svg_43"/>
     <circle cx="-50.207039" cy="1.815958" fill="#e71b00" id="svg_44" r="0.930567"/>
     <path d="m-43.94686,-4.07764l0,-1.09976c0,0 -0.0282,0 -0.0282,0c-0.08459,0 -0.14099,0 -0.16919,0c0,0 0,0 0,0l0,0.62038l0,0.0846l0,0.42298l0,0.19739c0,0 0.0846,0 0.19739,0l0,-0.22559l0,0z" fill="#e71b00" id="svg_45"/>
     <path d="m-45.41321,-3.82385l0,-0.62037l0,-0.0846l0,-0.62038c0,0 -0.81777,0 -1.63554,0c-0.36659,0 -0.73317,0.0846 -1.01516,0.141l0,0.08459c-0.0564,0.0282 -0.1128,0.0282 -0.141,0.0564l0,0.78957c0.0564,0.0282 0.0846,0.0282 0.141,0.0564l0,0.0846c0.28199,0.0846 0.64857,0.14099 1.01516,0.14099c0.81777,-0.02819 1.63554,-0.02819 1.63554,-0.02819l0,-0.00001z" fill="#e71b00" id="svg_46"/>
     <path d="m-45.10302,-5.1492c-0.0846,0 -0.19739,0 -0.19739,0l0,0.62038l0,0.0846l0,0.62037c0,0 0.0846,0 0.19739,0l0,-1.32535l0,0z" fill="#e71b00" id="svg_47"/>
     <path d="m-45.30041,-3.00607c-0.70498,0 -1.63554,-0.141 -2.05853,-0.28199c-0.16919,-0.0564 -0.19739,-0.1692 -0.19739,-0.1692l1.77654,0l2.11492,0l0,-0.39478c-0.11279,0 -0.19739,0 -0.19739,0l0,-1.32536c0,0 0.1128,0 0.19739,0l0,-0.67677c0,-0.141 -0.0564,-0.25379 -0.14099,-0.36659c-0.0564,-0.0564 -0.0846,-0.0846 -0.1692,-0.1128c-0.05639,-0.0282 -0.08459,-0.05639 -0.14099,-0.05639c0,0 0,0 -0.0282,0c-0.0282,0 -0.0846,0 -0.141,-0.0282c-1.01516,-0.1692 -3.69407,-0.45119 -5.6962,-0.45119c-0.87417,0 -1.60734,0.0564 -2.03033,0.1974c0,0 0,0 0,0c0,0 -0.02819,0 -0.02819,0c0,0 0,0 0,0c-0.0564,0 -0.0846,0.02819 -0.141,0.05639c0,0 0,0 0,0c0,0 0,0 0,0c-0.0282,0 -0.0564,0.0282 -0.0846,0.0564c0,0 0,0 -0.0282,0c-0.16919,0.1128 -0.31018,0.28199 -0.31018,0.45119c0,0.14099 0.05639,0.28199 0.16919,0.36658c-0.0846,1.83294 -0.59218,4.62464 -1.12796,6.17559l0.76137,0.90236c0.0846,0.1128 0.1692,0.2256 0.28199,0.33839c0.53578,0.70498 1.24076,1.55095 2.28412,1.55095c1.07156,0 1.72014,-0.70498 2.11493,-1.12796c0.0564,-0.0564 0.11279,-0.1128 0.14099,-0.1692c0.19739,-0.19739 4.08886,-3.89146 4.14526,-3.97606c0.08459,-0.08459 0.14099,-0.22559 0.14099,-0.36658l0,-0.64858c-0.28199,0.0564 -0.90237,0.0846 -1.60734,0.0564l0,0zm-4.90663,5.7244c-0.50758,0 -0.93057,-0.42299 -0.93057,-0.93057c0,-0.50758 0.42299,-0.93057 0.93057,-0.93057c0.50758,0 0.93057,0.42299 0.93057,0.93057c-0.0282,0.53578 -0.42299,0.93057 -0.93057,0.93057zm6.06279,-6.73957l0,-0.42298l0,-0.0846l0,-0.62038c0,0 0,0 0,0c0,0 0.0846,0 0.16919,0c0,0 0.0282,0 0.0282,0l0,1.07157l0,0.25379c-0.0846,0 -0.19739,0 -0.19739,0l0,-0.1974zm-0.28199,0.0846l0,-0.53578l0,-0.0846l0,-0.62038c0,0 0.0564,0 0.14099,0c0.0282,0 0.0282,0 0.0564,0l0,1.18436l0,0.1692c-0.0282,0 -0.0564,0 -0.0564,0c-0.05639,0 -0.11279,0 -0.11279,0l0,-0.1128l-0.0282,0l0,0zm-0.28199,0.0846l0,-0.62038l0,-0.0846l0,-0.62038c0,0 0.0846,0 0.19739,0l0,1.26896l0,0.0564c-0.11279,0.0282 -0.19739,0.0282 -0.19739,0l0,0l0,0zm-0.28199,-0.59218l0,-0.0846l0,-0.62038c0,0 0.0846,0 0.19739,0l0,1.32536c-0.0846,0 -0.19739,0 -0.19739,0l0,-0.62038l0,0zm-0.31019,0l0,-0.0846l0,-0.62038c0,0 0.0846,0 0.19739,0l0,1.32536c-0.08459,0 -0.19739,0 -0.19739,0l0,-0.62038l0,0zm-2.7635,0.47938l0,-0.0846c-0.0564,-0.02819 -0.0846,-0.02819 -0.141,-0.05639l0,-0.78958c0.0564,-0.02819 0.0846,-0.02819 0.141,-0.05639l0,-0.0846c0.28199,-0.0846 0.64857,-0.141 1.01516,-0.141c0.78957,0 1.63554,0 1.63554,0l0,0.62038l0,0.0846l0,0.62038c0,0 -0.81777,0 -1.63554,0c-0.33839,0.0282 -0.70497,-0.0564 -1.01516,-0.1128z" fill="#e71b00" id="svg_48"/>
    </g>
    <ellipse cx="-53.897343" cy="11.483806" fill="#ffffff" id="svg_1" rx="0.500586" ry="0.500586"/>
    <ellipse cx="-47.076949" cy="11.502319" fill="#ffffff" id="svg_25" rx="0.500586" ry="0.500586"/>
    <ellipse cx="-39.773404" cy="11.502319" fill="#ffffff" id="svg_26" rx="0.500586" ry="0.500586"/>
    <ellipse cx="-32.949243" cy="11.47412" fill="#ffffff" id="svg_27" rx="0.500586" ry="0.500586"/>
   </g>
   <ellipse cx="32.474997" cy="48.980576" fill="#ffffff" id="svg_90" rx="0.752292" ry="0.79931" transform="rotate(5 26.6165 44.8442) matrix(0.903422 0.159298 -0.159298 0.903422 5.08042 -4.57911)"/>
   <ellipse cx="23.858953" cy="46.838118" fill="#ffffff" id="svg_89" rx="0.987384" ry="0.987384" transform="rotate(5 18.8338 42.8928) matrix(0.903422 0.159298 -0.159298 0.903422 4.74027 -3.22248)"/>
   <ellipse cx="15.049073" cy="44.495971" fill="#ffffff" id="svg_88" rx="0.987384" ry="0.987384" transform="rotate(5 10.8761 40.7605) matrix(0.903422 0.159298 -0.159298 0.903422 4.36859 -1.83538)"/>
   <ellipse cx="6.764962" cy="42.219525" fill="#ffffff" id="svg_87" rx="0.987384" ry="0.987384" transform="rotate(5 3.39356 38.6886) matrix(0.903422 0.159298 -0.159298 0.903422 4.00743 -0.53108)"/>
   <g id="svg_78" transform="rotate(5 13.29 24.9635)">
    <path d="m18.10717,22.31363c-0.09659,-0.01703 -0.22538,-0.03974 -0.22538,-0.03974l-0.1249,0.70836l-0.01704,0.09659l-0.1249,0.70835c0,0 0.09659,0.01703 0.22539,0.03974l0.26683,-1.5133z" fill="#e71b00" id="svg_79" stroke="#ffffff" stroke-width="0.2" transform="matrix(1 0 0 1 0 0)"/>
    <path d="m18.17935,23.78711l0.25548,-1.4489c-0.0966,-0.01703 -0.22539,-0.03974 -0.22539,-0.03974l-0.1249,0.70835l-0.01703,0.09659l-0.1249,0.70836l0,0c0,0 0.09659,0.01703 0.22538,0.03974l0.01136,-0.0644z" fill="#e71b00" id="svg_80" stroke="#ffffff" stroke-width="0.2" transform="matrix(1 0 0 1 0 0)"/>
    <path d="m18.51649,23.94616l0.03406,-0.19319l0.23845,-1.35231c-0.0322,-0.00568 -0.0322,-0.00568 -0.06439,-0.01135c-0.0966,-0.01704 -0.16099,-0.02839 -0.16099,-0.02839l-0.1249,0.70835l-0.01704,0.09659l-0.10787,0.61176l-0.0227,0.12879c0,0 0.06439,0.01136 0.12879,0.02271c0.03219,0.00568 0.06439,0.01136 0.09659,0.01703l0,0.00001z" fill="#e71b00" id="svg_81" stroke="#ffffff" stroke-width="0.2" transform="matrix(1 0 0 1 0 0)"/>
    <circle cx="14.704586" cy="31.609653" fill="#e71b00" id="svg_82" r="1.176115" stroke="#ffffff" stroke-width="0.2" transform="matrix(0.903422 0.159298 -0.159298 0.903422 2.306 -1.71714)"/>
    <path d="m18.88957,23.71315l0.22141,-1.25572c0,0 -0.0322,-0.00567 -0.0322,-0.00567c-0.09659,-0.01703 -0.16099,-0.02839 -0.19318,-0.03407c0,0 0,0 0,0l-0.12491,0.70836l-0.01703,0.09659l-0.08516,0.48296l-0.03974,0.22539c0,0 0.09659,0.01703 0.22539,0.03974l0.04542,-0.25758z" fill="#e71b00" id="svg_83" stroke="#ffffff" stroke-width="0.2" transform="matrix(1 0 0 1 0 0)"/>
    <path d="m17.16418,23.70771l0.12491,-0.70836l0.01703,-0.09659l0.1249,-0.70835c0,0 -0.93374,-0.16464 -1.86747,-0.32929c-0.41858,-0.0738 -0.85418,-0.05101 -1.18751,-0.04339l-0.01703,0.09659c-0.07008,0.02084 -0.13447,0.00949 -0.17235,0.03601l-0.15896,0.90154c0.05871,0.04355 0.09091,0.04923 0.14963,0.09278l-0.01703,0.09659c0.30494,0.15337 0.71216,0.29157 1.13073,0.36538c0.93942,0.13244 1.87315,0.29709 1.87315,0.29709z" fill="#e71b00" id="svg_84" stroke="#ffffff" stroke-width="0.2" transform="matrix(1 0 0 1 0 0)"/>
    <path d="m17.78519,22.25686c-0.09659,-0.01703 -0.22538,-0.03974 -0.22538,-0.03974l-0.1249,0.70835l-0.01703,0.0966l-0.12491,0.70835c0,0 0.0966,0.01703 0.22539,0.03974l0.26683,-1.5133z" fill="#e71b00" id="svg_85" stroke="#ffffff" stroke-width="0.2" transform="matrix(1 0 0 1 0 0)"/>
    <path d="m17.12833,24.66415c-0.80494,-0.14193 -1.83909,-0.49027 -2.29367,-0.73642c-0.18183,-0.09846 -0.19132,-0.23293 -0.19132,-0.23293l2.02847,0.35767l2.41483,0.4258l0.07948,-0.45077c-0.12879,-0.0227 -0.22538,-0.03974 -0.22538,-0.03974l0.26683,-1.51329c0,0 0.1288,0.02271 0.22539,0.03974l0.13625,-0.77275c0.02839,-0.16099 -0.0133,-0.30113 -0.08718,-0.44696c-0.05304,-0.07575 -0.07956,-0.11362 -0.17048,-0.16285c-0.05871,-0.04355 -0.08524,-0.08143 -0.14963,-0.09278c0,0 0,0 -0.0322,-0.00568c-0.0322,-0.00568 -0.09659,-0.01703 -0.15531,-0.06059c-1.12506,-0.39757 -4.12708,-1.25889 -6.41312,-1.66198c-0.99813,-0.176 -1.84663,-0.25922 -2.35798,-0.18339c0,0 0,0 0,0c0,0 -0.0322,-0.00567 -0.0322,-0.00567c0,0 0,0 0,0c-0.0644,-0.01136 -0.10227,0.01516 -0.17234,0.036c0,0 0,0 0,0c0,0 0,0 0,0c-0.0322,-0.00567 -0.07008,0.02085 -0.10795,0.04737c0,0 0,0 -0.0322,-0.00568c-0.2159,0.09473 -0.41095,0.25953 -0.44501,0.45272c-0.02839,0.16098 0.00762,0.33333 0.11938,0.45263c-0.46562,2.07583 -1.60724,5.16122 -2.53125,6.82423l0.68766,1.18362c0.07389,0.14582 0.14777,0.29164 0.25385,0.44314c0.46983,0.91282 1.10445,2.02068 2.29577,2.23075c1.22352,0.21574 2.106,-0.45863 2.64193,-0.86212c0.07575,-0.05304 0.1515,-0.10608 0.19505,-0.1648c0.26513,-0.18564 5.45216,-3.62008 5.53359,-3.70532c0.11362,-0.07956 0.20641,-0.22919 0.23479,-0.39018l0.13058,-0.74055c-0.33333,0.00762 -1.04736,-0.08508 -1.84663,-0.25921l0,-0.00001zm-6.75492,5.5483c-0.57956,-0.10219 -0.97737,-0.67032 -0.87517,-1.24988c0.10219,-0.57956 0.67032,-0.97737 1.24988,-0.87518c0.57956,0.1022 0.97736,0.67032 0.87517,1.24988c-0.14007,0.60609 -0.67032,0.97737 -1.24988,0.87518zm8.27941,-6.47465l0.08516,-0.48297l0.01704,-0.09659l0.1249,-0.70835c0,0 0,0 0,0c0,0 0.09659,0.01703 0.19319,0.03406c0,0 0.03219,0.00568 0.03219,0.00568l-0.21574,1.22352l-0.05109,0.28978c-0.09659,-0.01703 -0.22539,-0.03974 -0.22539,-0.03974l0.03974,-0.22539zm-0.339,0.03982l0.10786,-0.61176l0.01704,-0.09659l0.1249,-0.70835c0,0 0.06439,0.01135 0.16099,0.02839c0.0322,0.00567 0.0322,0.00567 0.06439,0.01135l-0.23845,1.35231l-0.03406,0.19319c-0.0322,-0.00568 -0.0644,-0.01136 -0.0644,-0.01136c-0.06439,-0.01135 -0.12879,-0.02271 -0.12879,-0.02271l0.02271,-0.12879l-0.0322,-0.00568l0.00001,0zm-0.33901,0.03982l0.1249,-0.70835l0.01703,-0.09659l0.1249,-0.70836c0,0 0.09659,0.01704 0.22539,0.03975l-0.25548,1.4489l-0.01136,0.06439c-0.13447,0.00949 -0.23106,-0.00754 -0.22538,-0.03974l0,0zm-0.20276,-0.73293l0.01703,-0.09659l0.12491,-0.70835c0,0 0.09659,0.01703 0.22538,0.03974l-0.26683,1.5133c-0.0966,-0.01703 -0.22539,-0.03974 -0.22539,-0.03974l0.1249,-0.70836zm-0.35417,-0.06245l0.01703,-0.09659l0.1249,-0.70835c0,0 0.09659,0.01703 0.22538,0.03974l-0.26683,1.5133c-0.09659,-0.01704 -0.22539,-0.03974 -0.22539,-0.03974l0.12491,-0.70836zm-3.2519,-0.00901l0.01703,-0.0966c-0.05872,-0.04355 -0.09092,-0.04923 -0.14964,-0.09278l0.15897,-0.90154c0.07007,-0.02084 0.10227,-0.01516 0.17234,-0.03601l0.01704,-0.09659c0.33901,-0.03982 0.76893,-0.03041 1.1875,0.0434c0.90154,0.15896 1.86748,0.32928 1.86748,0.32928l-0.12491,0.70835l-0.01703,0.0966l-0.1249,0.70835c0,0 -0.93374,-0.16464 -1.86747,-0.32929c-0.39205,-0.03593 -0.79359,-0.20633 -1.13641,-0.33317z" fill="#e71b00" id="svg_86" stroke="#ffffff" stroke-width="0.2"/>
   </g>
   <line fill="#000000" id="svg_77" transform="matrix(1 0 0 1 0 0) rotate(5 19.4971 32.4349)" x1="19.437402" x2="19.556704" y1="32.490744" y2="32.378985"/>
   <polygon id="svg_76" points="10.23576945066452,29.099225923419 10.39862459897995,28.92874900996685 10.298219859600067,28.74505226314068 10.105035960674286,28.710987016558647 9.980055034160614,28.854942247271538 10.042585551738739,29.065164491534233 " transform="rotate(5 10.1893 28.9051)"/>
   <path d="m26.72182,44.86574c0.35417,0.06245 0.71022,-0.07397 0.9545,-0.32968c0.32571,-0.34096 0.2215,-0.69132 0.12863,-1.10608c-0.05685,-0.24242 -0.3866,-1.76132 -0.45862,-2.106c0.00567,-0.0322 -0.02085,-0.07008 -0.02085,-0.07008l-23.82637,-4.20123c0,0 -0.00568,0.0322 -0.04355,0.05872c-0.17989,0.26707 -1.01493,1.61378 -1.15127,1.82213c-0.22911,0.35799 -0.41468,0.65726 -0.25742,1.08337c0.14209,0.32385 0.43,0.57381 0.78418,0.63626l8.59681,1.51585c0.26326,0.01322 0.5,-0.01144 0.7481,-0.10049c0.24809,-0.08905 0.52838,-0.17242 0.77648,-0.26147c0.14014,-0.04168 0.28029,-0.08337 0.42043,-0.12506c0.47916,-0.0815 1.04356,-0.08158 1.55872,0.00926c0.51517,0.09083 1.0133,0.27826 1.46788,0.52441c0.11744,0.08711 0.23487,0.17421 0.35231,0.26132c0.20267,0.16853 0.40535,0.33706 0.60802,0.5056c0.20268,0.16853 0.41671,0.27267 0.66861,0.35028l8.69341,1.53289zm-7.20103,-1.90052c-0.11931,0.11176 -0.29733,0.17997 -0.49051,0.1459s-0.33715,-0.15904 -0.41103,-0.30486c-0.04737,-0.10795 -0.08905,-0.2481 -0.06634,-0.37689c0.05677,-0.32198 0.35977,-0.53414 0.68175,-0.47737s0.53414,0.35978 0.47737,0.68176c-0.02271,0.12879 -0.10982,0.24622 -0.19124,0.33146zm7.50574,0.3607c0.32198,0.05677 0.53414,0.35977 0.47737,0.68175c-0.05678,0.32198 -0.35978,0.53414 -0.68176,0.47737s-0.53414,-0.35978 -0.47736,-0.68175c0.05677,-0.32198 0.35977,-0.53415 0.68175,-0.47737zm-24.12735,-3.05915c-0.32198,-0.05677 -0.53415,-0.35977 -0.47737,-0.68175c0.05677,-0.32198 0.35977,-0.53414 0.68175,-0.47737s0.53414,0.35978 0.47737,0.68176c-0.05677,0.32197 -0.35978,0.53414 -0.68175,0.47736zm8.28238,1.22802c-0.11931,0.11176 -0.29733,0.17996 -0.49052,0.1459s-0.33714,-0.15904 -0.41102,-0.30487c-0.04737,-0.10794 -0.08905,-0.24809 -0.06634,-0.37688c0.05677,-0.32198 0.35977,-0.53414 0.68175,-0.47737s0.53414,0.35978 0.47737,0.68175c-0.02271,0.12879 -0.07762,0.25191 -0.19124,0.33147zm0.16829,-1.89586c-0.93373,-0.16464 -1.84274,0.47185 -2.00738,1.40558l-0.02271,0.1288l-0.19319,-0.03407l0.02271,-0.12879c0.18168,-1.03033 1.17211,-1.75206 2.23464,-1.56471l7.82406,1.3796c1.03033,0.18167 1.75206,1.1721 1.56471,2.23463l-0.02271,0.12879l-0.19318,-0.03406l0.0227,-0.12879c0.16465,-0.93374 -0.47184,-1.84274 -1.40558,-2.00739l-7.82407,-1.37959z" fill="#ffffff" id="svg_75" transform="rotate(5 14.9431 40.9667)"/>
   <path d="m27.41325,42.69323l0.14404,0.68937l0.21605,1.03406l-0.00567,0.0322c0.09286,0.41476 0.18004,0.86172 -0.2271,1.28791c-0.32571,0.34096 -0.78402,0.49254 -1.20259,0.41873l-1.96407,-0.34632c0.29935,0.74996 0.96609,1.29911 1.80323,1.44672c1.28792,0.2271 2.5378,-0.64808 2.76489,-1.93599c0.19871,-1.12692 -0.46811,-2.24047 -1.52878,-2.62668z" fill="#e71b00" id="svg_74" stroke="#ffffff" stroke-width="0.2" transform="rotate(5 26.6755 44.9925)"/>
   <path d="m2.02129,39.05473c-0.23681,-0.53974 0.03018,-0.92425 0.2271,-1.28791l0.00568,-0.0322l0.55669,-0.89781l0.37113,-0.59854c-1.16099,-0.00552 -2.16845,0.81281 -2.37284,1.97193c-0.22709,1.28791 0.64809,2.53779 1.936,2.76488c0.83714,0.14762 1.65717,-0.17258 2.18929,-0.74273l-1.96406,-0.34631c-0.4129,-0.10601 -0.79173,-0.4052 -0.94898,-0.83131l-0.00001,0z" fill="#e71b00" id="svg_73" stroke="#ffffff" stroke-width="0.2" transform="rotate(5 2.85376 38.6246)"/>
   <path d="m2.89257,36.44908c0.21403,0.10414 0.74436,0.29725 0.89968,0.35783c0.01703,-0.09659 0.03406,-0.19319 0.05677,-0.32198c0.04542,-0.25758 0.27267,-0.4167 0.53025,-0.37128l8.37143,1.47611c0.25758,0.04542 0.41671,0.27267 0.37129,0.53025l-0.05678,0.32198l0.67616,0.11922c0.16099,0.02839 0.30113,-0.0133 0.44128,-0.05499c0.24242,-0.05685 0.46399,-0.18377 0.70641,-0.24062c0.30681,-0.0455 0.64014,-0.05312 0.92992,-0.00203c0.32198,0.05678 0.6326,0.17794 0.87315,0.31996c0.20836,0.13633 0.37883,0.29919 0.58151,0.46772c0.11744,0.08711 0.26707,0.17989 0.39586,0.2026l0.74055,0.13058c0.01703,-0.0966 0.03406,-0.19319 0.05677,-0.32198c0.04542,-0.25758 0.27267,-0.41671 0.53026,-0.37129l8.37143,1.47611c0.25758,0.04542 0.4167,0.27267 0.37128,0.53025l-0.05677,0.32198c0.90154,0.15897 1.57769,0.27819 1.57769,0.27819c0.11355,-0.64396 0.27065,-1.34663 0.2232,-2.01897l-26.72417,-4.7122c-0.06813,0.38638 -0.14194,0.80495 -0.21007,1.19132c-0.05677,0.32198 0.09668,0.58143 0.3429,0.69124z" fill="#ffffff" id="svg_72" transform="rotate(5 16.0152 37.9321)"/>
   <path d="m29.61515,38.29959c-1.00024,-1.67032 -2.76357,-2.21364 -4.37354,-3.0619c-0.24055,-0.14201 -0.48678,-0.25183 -0.72733,-0.39384l-0.31241,0.64209c0.08524,0.08143 0.1326,0.18938 0.12125,0.25377c-0.04923,0.09092 -0.2803,0.08337 -0.52085,-0.05864c-0.24055,-0.14201 -0.37883,-0.29919 -0.32392,-0.4223c0.04355,-0.05872 0.14582,-0.07389 0.24242,-0.05685l0.31809,-0.67429c-0.39019,-0.2348 -0.7747,-0.50179 -1.16488,-0.73658l-0.34461,0.63641c0.08524,0.08143 0.1326,0.18938 0.08905,0.24809c-0.04923,0.09092 -0.28029,0.08338 -0.52084,-0.05864s-0.37315,-0.33138 -0.29173,-0.41662c0.04355,-0.05872 0.14583,-0.07389 0.27462,-0.05118l0.38248,-0.66293c-0.20267,-0.16853 -0.44322,-0.31055 -0.6459,-0.47908c-0.14963,-0.09278 -0.26139,-0.21208 -0.40535,-0.33706l-0.40333,0.59286c0.07956,0.11362 0.09473,0.21589 0.05118,0.27461c-0.08143,0.08524 -0.30681,0.0455 -0.50949,-0.12303c-0.20268,-0.16854 -0.33528,-0.35791 -0.25385,-0.44315c0.04355,-0.05872 0.14015,-0.04169 0.26894,-0.01898l0.43552,-0.58718c-0.32011,-0.25564 -0.63454,-0.54347 -0.94898,-0.83131l-0.52644,0.53795c0.04736,0.10795 0.09473,0.2159 0.05117,0.27462c-0.08142,0.08524 -0.30113,0.0133 -0.50381,-0.15523c-0.20267,-0.16854 -0.2974,-0.38443 -0.21597,-0.46967c0.04355,-0.05872 0.14015,-0.04169 0.26326,0.01322l0.53212,-0.57015c-0.28224,-0.28216 -0.53228,-0.55864 -0.81451,-0.8408l-0.63821,0.41865c0.04737,0.10795 0.03034,0.20454 -0.00754,0.23106c-0.08143,0.08524 -0.29546,-0.0189 -0.49246,-0.21963c-0.1648,-0.19505 -0.25952,-0.41095 -0.1781,-0.49618c0.04356,-0.05872 0.17235,-0.03601 0.28978,0.05109l0.6382,-0.41865c-0.27088,-0.34655 -0.50388,-0.71963 -0.73689,-1.0927l-0.73861,0.23495c0.01517,0.10227 0.00381,0.16667 -0.03406,0.19319c-0.11363,0.07956 -0.28978,-0.0511 -0.4489,-0.27835c-0.15913,-0.22725 -0.18946,-0.43179 -0.10803,-0.51703c0.07575,-0.05304 0.16667,-0.00381 0.27843,0.11549l0.7386,-0.23495c-0.14777,-0.29165 -0.26902,-0.54542 -0.37891,-0.86358c-0.41663,0.29172 -0.90332,0.60429 -1.39002,0.91686c-1.35216,0.89034 -2.78006,1.83372 -3.04518,2.01936c-0.07575,0.05304 -0.11363,0.07956 -0.18938,0.13261c-0.53593,0.40348 -1.53204,1.15741 -2.91654,0.91328c-1.35231,-0.23845 -2.06082,-1.49214 -2.53064,-2.40495c-0.07389,-0.14583 -0.14777,-0.29165 -0.22166,-0.43747l-0.58726,-0.99992c-0.55669,0.8978 -1.2365,1.7407 -1.67008,2.69342c-0.55475,1.26333 -0.91631,2.56073 -1.18696,3.90736l26.59539,4.68949c-0.06821,-0.17802 -0.16293,-0.39392 -0.26334,-0.57762l0.00001,0.00001z" fill="#e71b00" id="svg_71" stroke="#ffffff" stroke-width="0.2" transform="rotate(5 16.5808 33.1622)"/>
   <path d="m19.11801,29.95128l0.70827,-0.43949c-0.21784,-0.27081 -0.37128,-0.53026 -0.51905,-0.8219l-0.90527,0.23876c0.20648,0.3352 0.44517,0.67607 0.71605,1.02263z" fill="black" fill-opacity="0" id="svg_70" transform="matrix(1 0 0 1 0 0) rotate(5 19.1141 29.3206)"/>
   <circle cx="6.50458" cy="42.178747" fill="none" id="svg_69" r="0.641516" transform="rotate(5 3.15832 38.6513) matrix(0.903422 0.159298 -0.159298 0.903422 4.00093 -0.490075)"/>
   <circle cx="32.48192" cy="49.08494" fill="none" id="svg_68" r="0.641517" transform="rotate(5 26.6226 44.9385) matrix(0.903422 0.159298 -0.159298 0.903422 5.09687 -4.58017)"/>
   <path d="m10.903,40.11965c-0.32197,-0.05677 -0.62498,0.15539 -0.68175,0.47737c-0.02271,0.12879 0.01898,0.26893 0.06634,0.37688c0.07388,0.14583 0.21784,0.27081 0.41103,0.30487s0.37121,-0.03414 0.49051,-0.1459c0.08143,-0.08524 0.16853,-0.20268 0.19124,-0.33147c0.05677,-0.32198 -0.15539,-0.62498 -0.47737,-0.68175z" fill="none" id="svg_67" transform="rotate(5 10.8022 40.699)"/>
   <path d="m20.54517,43.0182l-0.02271,0.12879l0.19319,0.03407l0.0227,-0.1288c0.18168,-1.03033 -0.50218,-2.04728 -1.5647,-2.23463l-7.82407,-1.37959c-1.03033,-0.18168 -2.04728,0.50218 -2.23463,1.5647l-0.02271,0.12879l0.19319,0.03407l0.0227,-0.12879c0.16465,-0.93374 1.07365,-1.57023 2.00739,-1.40559l7.82406,1.3796c0.97162,0.13812 1.57591,1.04145 1.40559,2.00738z" fill="none" id="svg_66" transform="rotate(5 14.9299 41.295)"/>
   <path d="m19.08234,42.3113c-0.32197,-0.05678 -0.62498,0.15539 -0.68175,0.47737c-0.02271,0.12879 0.01898,0.26893 0.06634,0.37688c0.07388,0.14582 0.21784,0.2708 0.41103,0.30487s0.37121,-0.03415 0.49051,-0.1459c0.08143,-0.08524 0.16853,-0.20268 0.19124,-0.33147c0.05678,-0.32198 -0.15539,-0.62498 -0.47737,-0.68175z" fill="none" id="svg_65" transform="rotate(5 18.9816 42.8907)"/>
   <path d="m20.37832,33.47017l0.09278,-0.14964c-0.12311,-0.0549 -0.22538,-0.03974 -0.26894,0.01898c-0.08142,0.08524 0.0455,0.30681 0.25385,0.44315c0.20268,0.16853 0.42806,0.20827 0.50949,0.12303c0.04355,-0.05872 -0.00381,-0.16666 -0.05117,-0.27461l-0.06626,0.18751l-0.46975,-0.34842z" fill="none" id="svg_64" transform="matrix(1 0 0 1 0 0) rotate(5 20.58 33.6178)"/>
   <path d="m14.34874,23.23404c0.30495,0.15337 0.71216,0.29157 1.13073,0.36537c0.90154,0.15897 1.86748,0.32929 1.86748,0.32929l0.1249,-0.70835l0.01703,-0.0966l0.1249,-0.70835c0,0 -0.93373,-0.16464 -1.86747,-0.32928c-0.41857,-0.07381 -0.85418,-0.05102 -1.18751,-0.0434l-0.01703,0.09659c-0.07007,0.02085 -0.13447,0.00949 -0.17234,0.03601l-0.15897,0.90154c0.05872,0.04355 0.09092,0.04923 0.14963,0.09278l-0.01135,0.0644z" fill="none" id="svg_63" transform="matrix(1 0 0 1 0 0) rotate(5 15.9121 22.981)"/>
   <path d="m17.94071,22.63469c-0.09659,-0.01703 -0.22538,-0.03974 -0.22538,-0.03974l-0.12491,0.70835l-0.01703,0.0966l-0.1249,0.70835c0,0 0.09659,0.01703 0.22539,0.03974l0.26683,-1.5133z" fill="none" id="svg_62" transform="matrix(1 0 0 1 0 0) rotate(5 17.6946 23.3715)"/>
   <path d="m18.25652,22.71931c-0.0966,-0.01703 -0.22539,-0.03974 -0.22539,-0.03974l-0.1249,0.70835l-0.01703,0.0966l-0.1249,0.70835c0,0 0.09659,0.01703 0.22538,0.03974l0.26684,-1.5133z" fill="none" id="svg_61" transform="matrix(1 0 0 1 0 0) rotate(5 18.0104 23.4561)"/>
   <path d="m18.3253,24.22125l0.25548,-1.4489c-0.09659,-0.01703 -0.22538,-0.03974 -0.22538,-0.03974l-0.1249,0.70835l-0.01704,0.0966l-0.1249,0.70835l0,0c0,0 0.09659,0.01703 0.22539,0.03974l0.01135,-0.0644z" fill="none" id="svg_60" transform="matrix(1 0 0 1 0 0) rotate(5 18.3347 23.5091)"/>
   <path d="m19.02256,24.20577l0.22141,-1.25572c0,0 -0.0322,-0.00567 -0.0322,-0.00567c-0.09659,-0.01704 -0.16098,-0.02839 -0.19318,-0.03407c0,0 0,0 0,0l-0.1249,0.70835l-0.01704,0.0966l-0.08516,0.48296l-0.03974,0.22539c0,0 0.0966,0.01703 0.22539,0.03974l0.04542,-0.25758z" fill="none" id="svg_59" transform="matrix(1 0 0 1 0 0) rotate(5 18.9979 23.6868)"/>
   <path d="m18.65426,24.41062l0.03407,-0.19319l0.23845,-1.35231c-0.0322,-0.00567 -0.0322,-0.00567 -0.0644,-0.01135c-0.09659,-0.01703 -0.16099,-0.02839 -0.16099,-0.02839l-0.1249,0.70835l-0.01703,0.0966l-0.10787,0.61176l-0.02271,0.12879c0,0 0.06439,0.01135 0.12879,0.02271c0.0322,0.00567 0.0644,0.01135 0.09659,0.01703z" fill="none" id="svg_58" transform="matrix(1 0 0 1 0 0) rotate(5 18.6778 23.618)"/>
   <path d="m21.83845,34.84522l0.09278,-0.14964c-0.12879,-0.02271 -0.23106,-0.00754 -0.27462,0.05118c-0.04923,0.09091 0.08338,0.28029 0.29173,0.41662s0.46593,0.18176 0.52084,0.05864c0.04355,-0.05871 -0.00381,-0.16666 -0.08905,-0.24809l-0.09278,0.14963l-0.4489,-0.27834z" fill="none" id="svg_57" transform="rotate(5 22.066 34.9897)"/>
   <path d="m23.40432,36.07842l0.06059,-0.15531c-0.12879,-0.02271 -0.23106,-0.00754 -0.24242,0.05685c-0.04923,0.09092 0.08337,0.2803 0.32392,0.42231c0.24055,0.14201 0.47162,0.14955 0.52085,0.05864c0.04355,-0.05872 -0.00381,-0.16667 -0.12125,-0.25377l-0.04923,0.09091l-0.49246,-0.21963z" fill="none" id="svg_56" transform="rotate(5 23.6478 36.217)"/>
   <path d="m16.95433,28.65304l0.10795,-0.04736c-0.11744,-0.0871 -0.24055,-0.14201 -0.27843,-0.11549c-0.11362,0.07956 -0.05109,0.28978 0.10803,0.51703c0.15912,0.22725 0.34096,0.32571 0.4489,0.27835c0.03788,-0.02652 0.05491,-0.12312 0.03407,-0.19319l-0.24242,0.05685l-0.1781,-0.49619z" fill="none" id="svg_55" transform="matrix(1 0 0 1 0 0) rotate(5 17.0549 28.8903)"/>
   <path d="m10.01893,29.95865c0.57956,0.1022 1.14769,-0.29561 1.24988,-0.87517s-0.29562,-1.14769 -0.87518,-1.24988c-0.57956,-0.10219 -1.14768,0.29561 -1.24988,0.87517s0.29562,1.14769 0.87518,1.24988zm0.08695,-1.24622l0.19318,0.03406l0.06821,0.17802l-0.12498,0.14396l-0.19319,-0.03406l-0.0682,-0.17803l0.12498,-0.14395z" fill="none" id="svg_54" transform="rotate(5 10.2063 28.8961)"/>
   <path d="m19.04967,32.10052l0.1193,-0.11176c-0.12311,-0.0549 -0.2197,-0.07193 -0.26325,-0.01322c-0.08143,0.08524 0.0133,0.30114 0.21597,0.46967c0.20268,0.16853 0.42238,0.24047 0.50381,0.15523c0.04355,-0.05871 0.02839,-0.16098 -0.05117,-0.27461l-0.12498,0.14396l-0.39968,-0.36927z" fill="none" id="svg_53" transform="matrix(1 0 0 1 0 0) rotate(5 19.263 32.2876)"/>
   <path d="m20.35811,31.65683l-0.24428,0.25571c0.31443,0.28784 0.60235,0.5378 0.94898,0.83131l0.21776,-0.29359c-0.32011,-0.25564 -0.64022,-0.51128 -0.92246,-0.79343z" fill="none" id="svg_52" transform="matrix(1 0 0 1 0 0) rotate(5 20.6972 32.2003)"/>
   <path d="m22.95014,34.12287l-0.19124,0.33146c0.38451,0.267 0.77469,0.50179 1.16488,0.73658l0.15904,-0.33714c-0.35799,-0.22912 -0.74817,-0.46391 -1.13268,-0.7309z" fill="none" id="svg_51" transform="rotate(5 23.4209 34.6569)"/>
   <path d="m19.3422,30.39276l-0.303,0.21216c0.25004,0.27648 0.5266,0.59084 0.81452,0.8408l0.24428,-0.25572c-0.28792,-0.24996 -0.53796,-0.52644 -0.7558,-0.79724z" fill="none" id="svg_50" transform="matrix(1 0 0 1 0 0) rotate(5 19.5686 30.9192)"/>
   <path d="m18.38602,28.88058l-0.35036,0.10421c0.233,0.37308 0.46601,0.74615 0.73689,1.0927l0.303,-0.21216c-0.24436,-0.30868 -0.48304,-0.64956 -0.68953,-0.98475z" fill="none" id="svg_49" transform="matrix(1 0 0 1 0 0) rotate(5 18.5556 29.479)"/>
   <path d="m21.98646,33.24138c-0.14396,-0.12498 -0.29359,-0.21776 -0.40535,-0.33706l-0.21777,0.29359c0.14396,0.12498 0.2614,0.21208 0.40536,0.33706c0.20267,0.16854 0.44322,0.31055 0.6459,0.47908l0.19124,-0.33147c-0.20836,-0.13633 -0.41103,-0.30486 -0.61938,-0.4412z" fill="none" id="svg_31" transform="matrix(1 0 0 1 0 0) rotate(5 21.9846 33.4592)"/>
  </g>
  <text fill="#e71b00" font-family="Sans-serif" font-size="20" font-weight="bold" id="svg_98" stroke="#ffffff" stroke-linejoin="round" stroke-width="0.5" text-anchor="middle" transform="matrix(0.689802 0 0 0.622084 28.5526 -0.705341)" x="1.859092" xml:space="preserve" y="85.275948">A I G H T</text>
  <text fill="#e71b00" font-family="Sans-serif" font-size="16" font-weight="bold" id="svg_24" stroke="#ffffff" stroke-linejoin="round" stroke-width="0" text-anchor="middle" transform="matrix(0.393702 0 0 0.355052 18.6885 10.2899)" x="22.452757" xml:space="preserve" y="145.369447">Aggressive Inline</text>
  <g id="svg_101" transform="rotate(-35 3.91173 28.0442)">
   <g id="svg_102">
    <path d="m-22.678281,10.51172c-0.14099,-0.08459 -0.28199,-0.14099 -0.39478,-0.22559l-0.141,0.28199c0.141,0.0846 0.25379,0.141 0.39479,0.22559c0.19739,0.1128 0.42298,0.1974 0.62038,0.31019l0.11279,-0.31019c-0.19739,-0.08459 -0.39478,-0.19739 -0.59218,-0.28199z" fill="none" id="svg_103"/>
    <path d="m-26.626141,7.66362l-0.28199,0.141c0.25379,0.28199 0.50758,0.56398 0.78957,0.81777l0.2256,-0.22559c-0.2538,-0.22559 -0.50759,-0.47938 -0.73318,-0.73318z" fill="none" id="svg_105"/>
    <path d="m-25.498181,8.70699l-0.22559,0.22559c0.25379,0.19739 0.53578,0.42298 0.81777,0.59218l0.16919,-0.25379c-0.28199,-0.1692 -0.53578,-0.36659 -0.76137,-0.56398z" fill="none" id="svg_106"/>
    <path d="m-21.663111,10.99111l-0.1128,0.31019c0.36659,0.16919 0.73317,0.31018 1.09976,0.45118l0.0846,-0.31019c-0.33839,-0.14099 -0.70497,-0.28199 -1.07156,-0.45118l0,0z" fill="none" id="svg_107"/>
    <path d="m-24.370221,9.52476l-0.16919,0.25379c0.31019,0.19739 0.59218,0.36659 0.93057,0.56398l0.14099,-0.28199c-0.31019,-0.16919 -0.62038,-0.33839 -0.90237,-0.53578z" fill="none" id="svg_108"/>
    <path d="m-25.385381,10.20154l0.08459,-0.1128c-0.11279,-0.0282 -0.19739,-0.0282 -0.22559,0.0282c-0.0564,0.0846 0.0564,0.25379 0.25379,0.36659c0.1974,0.11279 0.39479,0.14099 0.45119,0.05639c0.0282,-0.05639 0,-0.14099 -0.0846,-0.22559l-0.0846,0.141l-0.39478,-0.25379z" fill="none" id="svg_109"/>
    <path d="m-33.478501,10.45533c0.50758,0 0.93057,-0.42299 0.93057,-0.93057s-0.42299,-0.93057 -0.93057,-0.93057c-0.50758,0 -0.93057,0.42299 -0.93057,0.93057s0.42299,0.93057 0.93057,0.93057zm-0.1128,-1.07157l0.1692,0l0.0846,0.141l-0.0846,0.14099l-0.1692,0l-0.08459,-0.14099l0.08459,-0.141z" fill="none" id="svg_110"/>
    <path d="m-27.895101,7.80462l0.0846,-0.0564c-0.11279,-0.0564 -0.22559,-0.0846 -0.25379,-0.0564c-0.0846,0.0846 0,0.25379 0.16919,0.42299c0.1692,0.16919 0.33839,0.22559 0.42299,0.16919c0.0282,-0.0282 0.0282,-0.11279 0,-0.16919l-0.19739,0.08459l-0.2256,-0.39478z" fill="none" id="svg_111"/>
    <path d="m-20.873541,12.54205l0.0282,-0.14099c-0.1128,0 -0.19739,0.0282 -0.19739,0.08459c-0.0282,0.0846 0.11279,0.2256 0.33838,0.31019c0.2256,0.0846 0.42299,0.0564 0.45119,-0.0282c0.0282,-0.05639 -0.0282,-0.14099 -0.141,-0.19739l-0.0282,0.0846l-0.45118,-0.1128z" fill="none" id="svg_112"/>
    <path d="m-22.452681,11.86528l0.05639,-0.141c-0.11279,0 -0.19739,0.0282 -0.22559,0.0846c-0.0282,0.0846 0.1128,0.22559 0.31019,0.31019s0.42299,0.08459 0.45118,-0.0282c0.0282,-0.0564 -0.02819,-0.141 -0.11279,-0.19739l-0.0564,0.14099l-0.42298,-0.16919z" fill="none" id="svg_113"/>
    <path d="m-27.500311,3.91315l0,-0.16919l0,-1.18436c-0.0282,0 -0.0282,0 -0.0564,0c-0.08459,0 -0.14099,0 -0.14099,0l0,0.62038l0,0.0846l0,0.53578l0,0.11279c0,0 0.0564,0 0.11279,0c0.0282,0 0.0564,0 0.0846,0l0,0z" fill="none" id="svg_114"/>
    <path d="m-27.218321,3.65936l0,-1.09976c0,0 -0.0282,0 -0.0282,0c-0.08459,0 -0.14099,0 -0.16919,0c0,0 0,0 0,0l0,0.62038l0,0.0846l0,0.42298l0,0.19739c0,0 0.0846,0 0.19739,0l0,-0.22559l0,0z" fill="none" id="svg_115"/>
    <path d="m-27.810501,3.82856l0,-1.26896c-0.0846,0 -0.19739,0 -0.19739,0l0,0.62038l0,0.0846l0,0.62037l0,0c0,0 0.0846,0 0.19739,0l0,-0.05639l0,0z" fill="none" id="svg_116"/>
    <path d="m-28.092491,2.5878c-0.0846,0 -0.19739,0 -0.19739,0l0,0.62038l0,0.0846l0,0.62037c0,0 0.0846,0 0.19739,0l0,-1.32535l0,0z" fill="none" id="svg_117"/>
    <path d="m-28.374481,2.5878c-0.0846,0 -0.19739,0 -0.19739,0l0,0.62038l0,0.0846l0,0.62037c0,0 0.0846,0 0.19739,0l0,-1.32535l0,0z" fill="none" id="svg_118"/>
    <path d="m-31.335371,3.77216c0.28199,0.0846 0.64857,0.141 1.01516,0.141c0.78957,0 1.63554,0 1.63554,0l0,-0.62038l0,-0.0846l0,-0.62038c0,0 -0.81777,0 -1.63554,0c-0.36659,0 -0.73317,0.0846 -1.01516,0.141l0,0.08459c-0.0564,0.0282 -0.1128,0.0282 -0.141,0.0564l0,0.78957c0.0564,0.0282 0.0846,0.0282 0.141,0.0564l0,0.0564z" fill="none" id="svg_119"/>
    <path d="m-23.975431,11.04751l0.0564,-0.141c-0.1128,-0.0282 -0.1974,0 -0.2256,0.0564c-0.05639,0.0846 0.0846,0.25379 0.28199,0.33839c0.1974,0.11279 0.39479,0.11279 0.45119,0.02819c0.0282,-0.05639 -0.0282,-0.14099 -0.0846,-0.22559l-0.0282,0.1692l-0.45118,-0.22559z" fill="none" id="svg_120"/>
    <path d="m-23.044861,18.71764c-0.28199,0 -0.50759,0.22559 -0.50759,0.50758c0,0.11279 0.0564,0.22559 0.1128,0.31019c0.0846,0.11279 0.22559,0.19739 0.39479,0.19739s0.31018,-0.0846 0.39478,-0.19739c0.0564,-0.0846 0.1128,-0.1974 0.1128,-0.31019c0,-0.28199 -0.22559,-0.50758 -0.50758,-0.50758z" fill="none" id="svg_121"/>
    <path d="m-21.747711,19.42261l0,0.1128l0.16919,0l0,-0.1128c0,-0.90237 -0.73317,-1.66374 -1.66374,-1.66374l-6.85236,0c-0.90237,0 -1.66374,0.73317 -1.66374,1.66374l0,0.1128l0.16919,0l0,-0.1128c0,-0.81777 0.67678,-1.49455 1.49455,-1.49455l6.85236,0c0.84597,-0.0282 1.49455,0.64858 1.49455,1.49455z" fill="none" id="svg_122"/>
    <path d="m-30.348411,18.71764c-0.28199,0 -0.50758,0.22559 -0.50758,0.50758c0,0.11279 0.0564,0.22559 0.1128,0.31019c0.08459,0.11279 0.22559,0.19739 0.39478,0.19739s0.31019,-0.0846 0.39479,-0.19739c0.0564,-0.0846 0.11279,-0.1974 0.11279,-0.31019c0,-0.28199 -0.22559,-0.50758 -0.50758,-0.50758z" fill="none" id="svg_123"/>
    <circle cx="-16.220704" cy="19.225219" fill="none" id="svg_124" r="0.507581"/>
    <circle cx="-37.172571" cy="19.225219" fill="none" id="svg_125" r="0.507582"/>
    <path d="m-25.864771,8.425l0.53579,-0.47939c-0.2256,-0.19739 -0.39479,-0.39478 -0.56398,-0.62037l-0.73318,0.33838c0.22559,0.25379 0.47938,0.50759 0.76137,0.76138z" fill="black" fill-opacity="0" id="svg_126"/>
    <path d="m-15.374731,14.06738c-1.09976,-1.26895 -2.67891,-1.46635 -4.17346,-1.94573c-0.22559,-0.0846 -0.45118,-0.14099 -0.67677,-0.22559l-0.1692,0.59218c0.0846,0.0564 0.141,0.14099 0.141,0.19739c-0.0282,0.0846 -0.22559,0.1128 -0.45119,0.0282c-0.22559,-0.0846 -0.36658,-0.19739 -0.33838,-0.31019c0.0282,-0.0564 0.11279,-0.0846 0.19739,-0.0846l0.16919,-0.62037c-0.36658,-0.141 -0.73317,-0.31019 -1.09976,-0.45119l-0.19739,0.59218c0.0846,0.0564 0.14099,0.141 0.11279,0.19739c-0.02819,0.0846 -0.22559,0.1128 -0.45118,0.0282s-0.36659,-0.22559 -0.31019,-0.31019c0.0282,-0.05639 0.1128,-0.08459 0.22559,-0.08459l0.2256,-0.62038c-0.1974,-0.1128 -0.42299,-0.19739 -0.62038,-0.31019c-0.141,-0.0564 -0.25379,-0.141 -0.39479,-0.22559l-0.25379,0.56398c0.0846,0.08459 0.1128,0.16919 0.0846,0.22559c-0.0564,0.0846 -0.25379,0.0846 -0.45119,-0.0282c-0.19739,-0.1128 -0.33839,-0.25379 -0.28199,-0.33839c0.0282,-0.0564 0.1128,-0.0564 0.2256,-0.0564l0.28199,-0.56398c-0.31019,-0.16919 -0.62038,-0.36658 -0.93057,-0.56398l-0.36659,0.53579c0.0564,0.08459 0.1128,0.16919 0.0846,0.22559c-0.0564,0.08459 -0.25379,0.0564 -0.45119,-0.0564c-0.19739,-0.1128 -0.31018,-0.28199 -0.25379,-0.36659c0.0282,-0.0564 0.1128,-0.0564 0.2256,-0.0282l0.36658,-0.56398c-0.28199,-0.19739 -0.53578,-0.39478 -0.81777,-0.59218l-0.47938,0.45119c0.0564,0.0846 0.0564,0.16919 0.0282,0.19739c-0.0564,0.0846 -0.25379,0.0282 -0.45119,-0.11279c-0.16919,-0.141 -0.28199,-0.31019 -0.22559,-0.39479c0.0282,-0.0564 0.141,-0.0564 0.25379,0l0.47939,-0.45118c-0.28199,-0.2538 -0.53579,-0.53579 -0.78958,-0.81778l-0.59218,0.31019c0.0282,0.0846 0.0282,0.141 0,0.1692c-0.08459,0.08459 -0.25379,0 -0.42298,-0.1692c-0.16919,-0.16919 -0.22559,-0.33838 -0.16919,-0.42298c0.05639,-0.0564 0.14099,-0.0282 0.25379,0.0564l0.59218,-0.31019c-0.1692,-0.22559 -0.31019,-0.42299 -0.45119,-0.67678c-0.31019,0.31019 -0.67677,0.64858 -1.04336,0.98697c-1.01517,0.95876 -2.08673,1.97393 -2.28412,2.17132c-0.0564,0.0564 -0.0846,0.0846 -0.141,0.141c-0.39478,0.42298 -1.12796,1.21255 -2.34051,1.21255c-1.18436,0 -1.97394,-0.95876 -2.50972,-1.66374c-0.08459,-0.11279 -0.16919,-0.22559 -0.25379,-0.33839l-0.64857,-0.76137c-0.33839,0.84597 -0.78958,1.66374 -1.01517,2.53791c-0.28199,1.15616 -0.39478,2.31232 -0.42298,3.49668l23.29238,0c-0.0846,-0.141 -0.19739,-0.31019 -0.31019,-0.45118l0,-0.00001z" fill="#e71b00" id="svg_127"/>
    <path d="m-37.990341,16.46172c0.19739,0.05639 0.67677,0.14099 0.81777,0.16919c0,-0.0846 0,-0.16919 0,-0.28199c0,-0.22559 0.16919,-0.39479 0.39479,-0.39479l7.33174,0c0.22559,0 0.39478,0.1692 0.39478,0.39479l0,0.28199l0.59218,0c0.141,0 0.2538,-0.0564 0.36659,-0.1128c0.19739,-0.08459 0.36659,-0.22559 0.56398,-0.31018c0.25379,-0.0846 0.53578,-0.141 0.78957,-0.141c0.28199,0 0.56398,0.0564 0.78958,0.141c0.19739,0.08459 0.36658,0.19739 0.56398,0.31018c0.11279,0.0564 0.25379,0.1128 0.36658,0.1128l0.64858,0c0,-0.0846 0,-0.16919 0,-0.28199c0,-0.22559 0.16919,-0.39479 0.39479,-0.39479l7.33174,0c0.22559,0 0.39478,0.1692 0.39478,0.39479l0,0.28199c0.78958,0 1.38176,0 1.38176,0c0,-0.56398 0.0282,-1.18436 -0.1128,-1.74834l-23.40518,0c0,0.33839 0,0.70498 0,1.04336c0,0.28199 0.16919,0.47939 0.39479,0.53578l0,0.00001z" fill="#000000" id="svg_128"/>
    <path d="m-38.074941,19.761c-0.28199,-0.42299 -0.11279,-0.78957 0,-1.12796l0,-0.0282l0.33839,-0.84597l0.22559,-0.56398c-0.98696,0.16919 -1.72014,1.01516 -1.72014,2.03033c0,1.12796 0.93057,2.05853 2.05853,2.05853c0.73317,0 1.38175,-0.39479 1.74834,-0.95877l-1.72014,0c-0.36659,-0.0282 -0.73317,-0.22559 -0.93057,-0.56398l0,0z" fill="#e71b00" id="svg_129"/>
    <path d="m-15.882321,17.19489l0.2256,0.56398l0.33838,0.84597l0,0.0282c0.141,0.33839 0.282,0.70497 0,1.12796c-0.22559,0.33839 -0.59217,0.53578 -0.95876,0.53578l-1.72014,0c0.36659,0.59218 1.01516,0.95877 1.74834,0.95877c1.12796,0 2.05853,-0.93057 2.05853,-2.05853c0,-0.98697 -0.73318,-1.83294 -1.69195,-2.00213l0,0z" fill="#e71b00" id="svg_130"/>
    <path d="m-16.248901,20.07119c0.31019,0 0.59218,-0.16919 0.76137,-0.42299c0.22559,-0.33838 0.0846,-0.62037 -0.0564,-0.95876c-0.0846,-0.19739 -0.59218,-1.43815 -0.70497,-1.72014c0,-0.0282 -0.0282,-0.0564 -0.0282,-0.0564l-20.86727,0c0,0 0,0.0282 -0.0282,0.0564c-0.1128,0.25379 -0.62038,1.52275 -0.70498,1.72014c-0.14099,0.33839 -0.25379,0.62038 -0.05639,0.95876c0.16919,0.2538 0.45118,0.42299 0.76137,0.42299l7.52914,0c0.22559,-0.0282 0.42298,-0.0846 0.62037,-0.19739c0.1974,-0.1128 0.42299,-0.2256 0.62038,-0.33839c0.1128,-0.0564 0.22559,-0.1128 0.33839,-0.16919c0.39479,-0.141 0.87417,-0.2256 1.32535,-0.2256c0.45119,0 0.90237,0.0846 1.32536,0.2256c0.11279,0.05639 0.22559,0.11279 0.33839,0.16919c0.19739,0.11279 0.39478,0.22559 0.59217,0.33839c0.1974,0.11279 0.39479,0.16919 0.62038,0.19739l7.61374,0l0,0zm-6.40118,-0.53578c-0.0846,0.11279 -0.22559,0.19739 -0.39479,0.19739s-0.31018,-0.0846 -0.39478,-0.19739c-0.0564,-0.0846 -0.1128,-0.19739 -0.1128,-0.31019c0,-0.28199 0.22559,-0.50758 0.50758,-0.50758s0.50759,0.22559 0.50759,0.50758c0,0.1128 -0.0564,0.22559 -0.1128,0.31019zm6.42938,-0.81777c0.28199,0 0.50758,0.22559 0.50758,0.50758c0,0.28199 -0.22559,0.50758 -0.50758,0.50758s-0.50759,-0.22559 -0.50759,-0.50758c0,-0.28199 0.2256,-0.50758 0.50759,-0.50758zm-20.95187,1.01516c-0.28199,0 -0.50758,-0.22559 -0.50758,-0.50758c0,-0.28199 0.22559,-0.50758 0.50758,-0.50758s0.50758,0.22559 0.50758,0.50758c0,0.28199 -0.22559,0.50758 -0.50758,0.50758zm7.21895,-0.19739c-0.0846,0.11279 -0.2256,0.19739 -0.39479,0.19739s-0.31019,-0.0846 -0.39479,-0.19739c-0.05639,-0.0846 -0.11279,-0.19739 -0.11279,-0.31019c0,-0.28199 0.22559,-0.50758 0.50758,-0.50758s0.50758,0.22559 0.50758,0.50758c0,0.1128 -0.0282,0.22559 -0.11279,0.31019zm-0.141,-1.63554c-0.81777,0 -1.49455,0.67677 -1.49455,1.49454l0,0.1128l-0.16919,0l0,-0.1128c0,-0.90236 0.73317,-1.66374 1.66374,-1.66374l6.85236,0c0.90237,0 1.66374,0.73318 1.66374,1.66374l0,0.1128l-0.16919,0l0,-0.1128c0,-0.81777 -0.67678,-1.49454 -1.49455,-1.49454l-6.85236,0z" fill="black" id="svg_131"/>
    <polygon id="svg_132" points="-33.422096252441406,9.693954467773438 -33.309303283691406,9.524757385253906 -33.422096252441406,9.383766174316406 -33.59129333496094,9.383766174316406 -33.67588806152344,9.524757385253906 -33.59129333496094,9.693954467773438 "/>
    <line fill="#000000" id="svg_133" x1="-24.990597" x2="-24.906" y1="10.455326" y2="10.34253"/>
    <g id="svg_134">
     <path d="m-28.092491,2.5878c-0.0846,0 -0.19739,0 -0.19739,0l0,0.62038l0,0.0846l0,0.62037c0,0 0.0846,0 0.19739,0l0,-1.32535l0,0z" fill="#e71b00" id="svg_135"/>
     <path d="m-27.810501,3.82856l0,-1.26896c-0.0846,0 -0.19739,0 -0.19739,0l0,0.62038l0,0.0846l0,0.62037l0,0c0,0 0.0846,0 0.19739,0l0,-0.05639l0,0z" fill="#e71b00" id="svg_136"/>
     <path d="m-27.500311,3.91315l0,-0.16919l0,-1.18436c-0.0282,0 -0.0282,0 -0.0564,0c-0.08459,0 -0.14099,0 -0.14099,0l0,0.62038l0,0.0846l0,0.53578l0,0.11279c0,0 0.0564,0 0.11279,0c0.0282,0 0.0564,0 0.0846,0l0,0z" fill="#e71b00" id="svg_137"/>
     <circle cx="-33.4785" cy="9.552958" fill="#e71b00" id="svg_138" r="0.930567"/>
     <path d="m-27.218321,3.65936l0,-1.09976c0,0 -0.0282,0 -0.0282,0c-0.08459,0 -0.14099,0 -0.16919,0c0,0 0,0 0,0l0,0.62038l0,0.0846l0,0.42298l0,0.19739c0,0 0.0846,0 0.19739,0l0,-0.22559l0,0z" fill="#e71b00" id="svg_139"/>
     <path d="m-28.684671,3.91315l0,-0.62037l0,-0.0846l0,-0.62038c0,0 -0.81777,0 -1.63554,0c-0.36659,0 -0.73317,0.0846 -1.01516,0.141l0,0.08459c-0.0564,0.0282 -0.1128,0.0282 -0.141,0.0564l0,0.78957c0.0564,0.0282 0.0846,0.0282 0.141,0.0564l0,0.0846c0.28199,0.0846 0.64857,0.14099 1.01516,0.14099c0.81777,-0.02819 1.63554,-0.02819 1.63554,-0.02819l0,-0.00001z" fill="#e71b00" id="svg_140"/>
     <path d="m-28.374481,2.5878c-0.0846,0 -0.19739,0 -0.19739,0l0,0.62038l0,0.0846l0,0.62037c0,0 0.0846,0 0.19739,0l0,-1.32535l0,0z" fill="#e71b00" id="svg_141"/>
     <path d="m-28.571871,4.73093c-0.70498,0 -1.63554,-0.141 -2.05853,-0.28199c-0.16919,-0.0564 -0.19739,-0.1692 -0.19739,-0.1692l1.77654,0l2.11492,0l0,-0.39478c-0.11279,0 -0.19739,0 -0.19739,0l0,-1.32536c0,0 0.1128,0 0.19739,0l0,-0.67677c0,-0.141 -0.0564,-0.25379 -0.14099,-0.36659c-0.0564,-0.0564 -0.0846,-0.0846 -0.1692,-0.1128c-0.05639,-0.0282 -0.08459,-0.05639 -0.14099,-0.05639c0,0 0,0 -0.0282,0c-0.0282,0 -0.0846,0 -0.141,-0.0282c-1.01516,-0.1692 -3.69407,-0.45119 -5.6962,-0.45119c-0.87417,0 -1.60734,0.0564 -2.03033,0.1974c0,0 0,0 0,0c0,0 -0.02819,0 -0.02819,0c0,0 0,0 0,0c-0.0564,0 -0.0846,0.02819 -0.141,0.05639c0,0 0,0 0,0c0,0 0,0 0,0c-0.0282,0 -0.0564,0.0282 -0.0846,0.0564c0,0 0,0 -0.0282,0c-0.16919,0.1128 -0.31018,0.28199 -0.31018,0.45119c0,0.14099 0.05639,0.28199 0.16919,0.36658c-0.0846,1.83294 -0.59218,4.62464 -1.12796,6.17559l0.76137,0.90236c0.0846,0.1128 0.1692,0.2256 0.28199,0.33839c0.53578,0.70498 1.24076,1.55095 2.28412,1.55095c1.07156,0 1.72014,-0.70498 2.11493,-1.12796c0.0564,-0.0564 0.11279,-0.1128 0.14099,-0.1692c0.19739,-0.19739 4.08886,-3.89146 4.14526,-3.97606c0.08459,-0.08459 0.14099,-0.22559 0.14099,-0.36658l0,-0.64858c-0.28199,0.0564 -0.90237,0.0846 -1.60734,0.0564l0,0zm-4.90663,5.7244c-0.50758,0 -0.93057,-0.42299 -0.93057,-0.93057c0,-0.50758 0.42299,-0.93057 0.93057,-0.93057c0.50758,0 0.93057,0.42299 0.93057,0.93057c-0.0282,0.53578 -0.42299,0.93057 -0.93057,0.93057zm6.06279,-6.73957l0,-0.42298l0,-0.0846l0,-0.62038c0,0 0,0 0,0c0,0 0.0846,0 0.16919,0c0,0 0.0282,0 0.0282,0l0,1.07157l0,0.25379c-0.0846,0 -0.19739,0 -0.19739,0l0,-0.1974zm-0.28199,0.0846l0,-0.53578l0,-0.0846l0,-0.62038c0,0 0.0564,0 0.14099,0c0.0282,0 0.0282,0 0.0564,0l0,1.18436l0,0.1692c-0.0282,0 -0.0564,0 -0.0564,0c-0.05639,0 -0.11279,0 -0.11279,0l0,-0.1128l-0.0282,0l0,0zm-0.28199,0.0846l0,-0.62038l0,-0.0846l0,-0.62038c0,0 0.0846,0 0.19739,0l0,1.26896l0,0.0564c-0.11279,0.0282 -0.19739,0.0282 -0.19739,0l0,0l0,0zm-0.28199,-0.59218l0,-0.0846l0,-0.62038c0,0 0.0846,0 0.19739,0l0,1.32536c-0.0846,0 -0.19739,0 -0.19739,0l0,-0.62038l0,0zm-0.31019,0l0,-0.0846l0,-0.62038c0,0 0.0846,0 0.19739,0l0,1.32536c-0.08459,0 -0.19739,0 -0.19739,0l0,-0.62038l0,0zm-2.7635,0.47938l0,-0.0846c-0.0564,-0.02819 -0.0846,-0.02819 -0.141,-0.05639l0,-0.78958c0.0564,-0.02819 0.0846,-0.02819 0.141,-0.05639l0,-0.0846c0.28199,-0.0846 0.64857,-0.141 1.01516,-0.141c0.78957,0 1.63554,0 1.63554,0l0,0.62038l0,0.0846l0,0.62038c0,0 -0.81777,0 -1.63554,0c-0.33839,0.0282 -0.70497,-0.0564 -1.01516,-0.1128z" fill="#e71b00" id="svg_142"/>
    </g>
    <ellipse cx="-37.168804" cy="19.220806" fill="#ffffff" id="svg_143" rx="0.500586" ry="0.500586"/>
    <ellipse cx="-30.34841" cy="19.239319" fill="#ffffff" id="svg_144" rx="0.500586" ry="0.500586"/>
    <ellipse cx="-23.044865" cy="19.239319" fill="#ffffff" id="svg_145" rx="0.500586" ry="0.500586"/>
    <ellipse cx="-16.220704" cy="19.21112" fill="#ffffff" id="svg_146" rx="0.500586" ry="0.500586"/>
   </g>
   <ellipse cx="51.898051" cy="54.119863" fill="#ffffff" id="svg_147" rx="0.752292" ry="0.79931" transform="rotate(5 43.3451 52.5812) matrix(0.903422 0.159298 -0.159298 0.903422 5.08042 -4.57911)"/>
   <ellipse cx="43.282007" cy="51.977405" fill="#ffffff" id="svg_148" rx="0.987384" ry="0.987384" transform="rotate(5 35.5623 50.6298) matrix(0.903422 0.159298 -0.159298 0.903422 4.74027 -3.22248)"/>
   <ellipse cx="34.472127" cy="49.635258" fill="#ffffff" id="svg_149" rx="0.987384" ry="0.987384" transform="rotate(5 27.6047 48.4975) matrix(0.903422 0.159298 -0.159298 0.903422 4.36859 -1.83538)"/>
   <ellipse cx="26.188016" cy="47.358812" fill="#ffffff" id="svg_150" rx="0.987384" ry="0.987384" transform="rotate(5 20.1221 46.4256) matrix(0.903422 0.159298 -0.159298 0.903422 4.00743 -0.53108)"/>
   <g id="svg_151" transform="rotate(5 30.0185 32.7005)">
    <path d="m34.835709,30.05063c-0.09659,-0.01703 -0.22538,-0.03974 -0.22538,-0.03974l-0.1249,0.70836l-0.01704,0.09659l-0.1249,0.70835c0,0 0.09659,0.01703 0.22539,0.03974l0.26683,-1.5133z" fill="#e71b00" id="svg_152" stroke="#ffffff" stroke-width="0.2"/>
    <path d="m34.907889,31.52411l0.25548,-1.4489c-0.0966,-0.01703 -0.22539,-0.03974 -0.22539,-0.03974l-0.1249,0.70835l-0.01703,0.09659l-0.1249,0.70836l0,0c0,0 0.09659,0.01703 0.22538,0.03974l0.01136,-0.0644z" fill="#e71b00" id="svg_153" stroke="#ffffff" stroke-width="0.2"/>
    <path d="m35.245029,31.68316l0.03406,-0.19319l0.23845,-1.35231c-0.0322,-0.00568 -0.0322,-0.00568 -0.06439,-0.01135c-0.0966,-0.01704 -0.16099,-0.02839 -0.16099,-0.02839l-0.1249,0.70835l-0.01704,0.09659l-0.10787,0.61176l-0.0227,0.12879c0,0 0.06439,0.01136 0.12879,0.02271c0.03219,0.00568 0.06439,0.01136 0.09659,0.01703l0,0.00001z" fill="#e71b00" id="svg_154" stroke="#ffffff" stroke-width="0.2"/>
    <circle cx="34.12764" cy="36.74894" fill="#e71b00" id="svg_155" r="1.176115" stroke="#ffffff" stroke-width="0.2" transform="matrix(0.903422 0.159298 -0.159298 0.903422 2.306 -1.71714)"/>
    <path d="m35.618109,31.45015l0.22141,-1.25572c0,0 -0.0322,-0.00567 -0.0322,-0.00567c-0.09659,-0.01703 -0.16099,-0.02839 -0.19318,-0.03407c0,0 0,0 0,0l-0.12491,0.70836l-0.01703,0.09659l-0.08516,0.48296l-0.03974,0.22539c0,0 0.09659,0.01703 0.22539,0.03974l0.04542,-0.25758z" fill="#e71b00" id="svg_156" stroke="#ffffff" stroke-width="0.2"/>
    <path d="m33.892719,31.44471l0.12491,-0.70836l0.01703,-0.09659l0.1249,-0.70835c0,0 -0.93374,-0.16464 -1.86747,-0.32929c-0.41858,-0.0738 -0.85418,-0.05101 -1.18751,-0.04339l-0.01703,0.09659c-0.07008,0.02084 -0.13447,0.00949 -0.17235,0.03601l-0.15896,0.90154c0.05871,0.04355 0.09091,0.04923 0.14963,0.09278l-0.01703,0.09659c0.30494,0.15337 0.71216,0.29157 1.13073,0.36538c0.93942,0.13244 1.87315,0.29709 1.87315,0.29709z" fill="#e71b00" id="svg_157" stroke="#ffffff" stroke-width="0.2"/>
    <path d="m34.513729,29.99386c-0.09659,-0.01703 -0.22538,-0.03974 -0.22538,-0.03974l-0.1249,0.70835l-0.01703,0.0966l-0.12491,0.70835c0,0 0.0966,0.01703 0.22539,0.03974l0.26683,-1.5133z" fill="#e71b00" id="svg_158" stroke="#ffffff" stroke-width="0.2"/>
    <path d="m33.856869,32.40115c-0.80494,-0.14193 -1.83909,-0.49027 -2.29367,-0.73642c-0.18183,-0.09846 -0.19132,-0.23293 -0.19132,-0.23293l2.02847,0.35767l2.41483,0.4258l0.07948,-0.45077c-0.12879,-0.0227 -0.22538,-0.03974 -0.22538,-0.03974l0.26683,-1.51329c0,0 0.1288,0.02271 0.22539,0.03974l0.13625,-0.77275c0.02839,-0.16099 -0.0133,-0.30113 -0.08718,-0.44696c-0.05304,-0.07575 -0.07956,-0.11362 -0.17048,-0.16285c-0.05871,-0.04355 -0.08524,-0.08143 -0.14963,-0.09278c0,0 0,0 -0.0322,-0.00568c-0.0322,-0.00568 -0.09659,-0.01703 -0.15531,-0.06059c-1.12506,-0.39757 -4.12708,-1.25889 -6.41312,-1.66198c-0.99813,-0.176 -1.84663,-0.25922 -2.35798,-0.18339c0,0 0,0 0,0c0,0 -0.0322,-0.00567 -0.0322,-0.00567c0,0 0,0 0,0c-0.0644,-0.01136 -0.10227,0.01516 -0.17234,0.036c0,0 0,0 0,0c0,0 0,0 0,0c-0.0322,-0.00567 -0.07008,0.02085 -0.10795,0.04737c0,0 0,0 -0.0322,-0.00568c-0.2159,0.09473 -0.41095,0.25953 -0.44501,0.45272c-0.02839,0.16098 0.00762,0.33333 0.11938,0.45263c-0.46562,2.07583 -1.60724,5.16122 -2.53125,6.82423l0.68766,1.18362c0.07389,0.14582 0.14777,0.29164 0.25385,0.44314c0.46983,0.91282 1.10445,2.02068 2.29577,2.23075c1.22352,0.21574 2.106,-0.45863 2.64193,-0.86212c0.07575,-0.05304 0.1515,-0.10608 0.19505,-0.1648c0.26513,-0.18564 5.45216,-3.62008 5.53359,-3.70532c0.11362,-0.07956 0.20641,-0.22919 0.23479,-0.39018l0.13058,-0.74055c-0.33333,0.00762 -1.04736,-0.08508 -1.84663,-0.25921l0,-0.00001zm-6.75492,5.5483c-0.57956,-0.10219 -0.97737,-0.67032 -0.87517,-1.24988c0.10219,-0.57956 0.67032,-0.97737 1.24988,-0.87518c0.57956,0.1022 0.97736,0.67032 0.87517,1.24988c-0.14007,0.60609 -0.67032,0.97737 -1.24988,0.87518zm8.27941,-6.47465l0.08516,-0.48297l0.01704,-0.09659l0.1249,-0.70835c0,0 0,0 0,0c0,0 0.09659,0.01703 0.19319,0.03406c0,0 0.03219,0.00568 0.03219,0.00568l-0.21574,1.22352l-0.05109,0.28978c-0.09659,-0.01703 -0.22539,-0.03974 -0.22539,-0.03974l0.03974,-0.22539zm-0.339,0.03982l0.10786,-0.61176l0.01704,-0.09659l0.1249,-0.70835c0,0 0.06439,0.01135 0.16099,0.02839c0.0322,0.00567 0.0322,0.00567 0.06439,0.01135l-0.23845,1.35231l-0.03406,0.19319c-0.0322,-0.00568 -0.0644,-0.01136 -0.0644,-0.01136c-0.06439,-0.01135 -0.12879,-0.02271 -0.12879,-0.02271l0.02271,-0.12879l-0.0322,-0.00568l0.00001,0zm-0.33901,0.03982l0.1249,-0.70835l0.01703,-0.09659l0.1249,-0.70836c0,0 0.09659,0.01704 0.22539,0.03975l-0.25548,1.4489l-0.01136,0.06439c-0.13447,0.00949 -0.23106,-0.00754 -0.22538,-0.03974l0,0zm-0.20276,-0.73293l0.01703,-0.09659l0.12491,-0.70835c0,0 0.09659,0.01703 0.22538,0.03974l-0.26683,1.5133c-0.0966,-0.01703 -0.22539,-0.03974 -0.22539,-0.03974l0.1249,-0.70836zm-0.35417,-0.06245l0.01703,-0.09659l0.1249,-0.70835c0,0 0.09659,0.01703 0.22538,0.03974l-0.26683,1.5133c-0.09659,-0.01704 -0.22539,-0.03974 -0.22539,-0.03974l0.12491,-0.70836zm-3.2519,-0.00901l0.01703,-0.0966c-0.05872,-0.04355 -0.09092,-0.04923 -0.14964,-0.09278l0.15897,-0.90154c0.07007,-0.02084 0.10227,-0.01516 0.17234,-0.03601l0.01704,-0.09659c0.33901,-0.03982 0.76893,-0.03041 1.1875,0.0434c0.90154,0.15896 1.86748,0.32928 1.86748,0.32928l-0.12491,0.70835l-0.01703,0.0966l-0.1249,0.70835c0,0 -0.93374,-0.16464 -1.86747,-0.32929c-0.39205,-0.03593 -0.79359,-0.20633 -1.13641,-0.33317z" fill="#e71b00" id="svg_159" stroke="#ffffff" stroke-width="0.2"/>
   </g>
   <line fill="#000000" id="svg_160" transform="rotate(5 36.2256 40.1719)" x1="36.165941" x2="36.285243" y1="40.227744" y2="40.115985"/>
   <polygon id="svg_161" points="26.96430206298828,36.836219787597656 27.127159118652344,36.665748596191406 27.026756286621094,36.48204803466797 26.833580017089844,36.44799041748047 26.708595275878906,36.591941833496094 26.77112579345703,36.802162170410156 " transform="rotate(5 26.9178 36.6421)"/>
   <path d="m43.450359,52.60274c0.35417,0.06245 0.71022,-0.07397 0.9545,-0.32968c0.32571,-0.34096 0.2215,-0.69132 0.12863,-1.10608c-0.05685,-0.24242 -0.3866,-1.76132 -0.45862,-2.106c0.00567,-0.0322 -0.02085,-0.07008 -0.02085,-0.07008l-23.82637,-4.20123c0,0 -0.00568,0.0322 -0.04355,0.05872c-0.17989,0.26707 -1.01493,1.61378 -1.15127,1.82213c-0.22911,0.35799 -0.41468,0.65726 -0.25742,1.08337c0.14209,0.32385 0.43,0.57381 0.78418,0.63626l8.59681,1.51585c0.26326,0.01322 0.5,-0.01144 0.7481,-0.10049c0.24809,-0.08905 0.52838,-0.17242 0.77648,-0.26147c0.14014,-0.04168 0.28029,-0.08337 0.42043,-0.12506c0.47916,-0.0815 1.04356,-0.08158 1.55872,0.00926c0.51517,0.09083 1.0133,0.27826 1.46788,0.52441c0.11744,0.08711 0.23487,0.17421 0.35231,0.26132c0.20267,0.16853 0.40535,0.33706 0.60802,0.5056c0.20268,0.16853 0.41671,0.27267 0.66861,0.35028l8.69341,1.53289zm-7.20103,-1.90052c-0.11931,0.11176 -0.29733,0.17997 -0.49051,0.1459s-0.33715,-0.15904 -0.41103,-0.30486c-0.04737,-0.10795 -0.08905,-0.2481 -0.06634,-0.37689c0.05677,-0.32198 0.35977,-0.53414 0.68175,-0.47737s0.53414,0.35978 0.47737,0.68176c-0.02271,0.12879 -0.10982,0.24622 -0.19124,0.33146zm7.50574,0.3607c0.32198,0.05677 0.53414,0.35977 0.47737,0.68175c-0.05678,0.32198 -0.35978,0.53414 -0.68176,0.47737s-0.53414,-0.35978 -0.47736,-0.68175c0.05677,-0.32198 0.35977,-0.53415 0.68175,-0.47737zm-24.12735,-3.05915c-0.32198,-0.05677 -0.53415,-0.35977 -0.47737,-0.68175c0.05677,-0.32198 0.35977,-0.53414 0.68175,-0.47737s0.53414,0.35978 0.47737,0.68176c-0.05677,0.32197 -0.35978,0.53414 -0.68175,0.47736zm8.28238,1.22802c-0.11931,0.11176 -0.29733,0.17996 -0.49052,0.1459s-0.33714,-0.15904 -0.41102,-0.30487c-0.04737,-0.10794 -0.08905,-0.24809 -0.06634,-0.37688c0.05677,-0.32198 0.35977,-0.53414 0.68175,-0.47737s0.53414,0.35978 0.47737,0.68175c-0.02271,0.12879 -0.07762,0.25191 -0.19124,0.33147zm0.16829,-1.89586c-0.93373,-0.16464 -1.84274,0.47185 -2.00738,1.40558l-0.02271,0.1288l-0.19319,-0.03407l0.02271,-0.12879c0.18168,-1.03033 1.17211,-1.75206 2.23464,-1.56471l7.82406,1.3796c1.03033,0.18167 1.75206,1.1721 1.56471,2.23463l-0.02271,0.12879l-0.19318,-0.03406l0.0227,-0.12879c0.16465,-0.93374 -0.47184,-1.84274 -1.40558,-2.00739l-7.82407,-1.37959z" fill="#ffffff" id="svg_162" transform="rotate(5 31.6716 48.7037)"/>
   <path d="m44.141789,50.43023l0.14404,0.68937l0.21605,1.03406l-0.00567,0.0322c0.09286,0.41476 0.18004,0.86172 -0.2271,1.28791c-0.32571,0.34096 -0.78402,0.49254 -1.20259,0.41873l-1.96407,-0.34632c0.29935,0.74996 0.96609,1.29911 1.80323,1.44672c1.28792,0.2271 2.5378,-0.64808 2.76489,-1.93599c0.19871,-1.12692 -0.46811,-2.24047 -1.52878,-2.62668z" fill="#e71b00" id="svg_163" stroke="#ffffff" stroke-width="0.2" transform="rotate(5 43.404 52.7295)"/>
   <path d="m18.749829,46.79173c-0.23681,-0.53974 0.03018,-0.92425 0.2271,-1.28791l0.00568,-0.0322l0.55669,-0.89781l0.37113,-0.59854c-1.16099,-0.00552 -2.16845,0.81281 -2.37284,1.97193c-0.22709,1.28791 0.64809,2.53779 1.936,2.76488c0.83714,0.14762 1.65717,-0.17258 2.18929,-0.74273l-1.96406,-0.34631c-0.4129,-0.10601 -0.79173,-0.4052 -0.94898,-0.83131l-0.00001,0z" fill="#e71b00" id="svg_164" stroke="#ffffff" stroke-width="0.2" transform="rotate(5 19.5823 46.3616)"/>
   <path d="m19.621109,44.18608c0.21403,0.10414 0.74436,0.29725 0.89968,0.35783c0.01703,-0.09659 0.03406,-0.19319 0.05677,-0.32198c0.04542,-0.25758 0.27267,-0.4167 0.53025,-0.37128l8.37143,1.47611c0.25758,0.04542 0.41671,0.27267 0.37129,0.53025l-0.05678,0.32198l0.67616,0.11922c0.16099,0.02839 0.30113,-0.0133 0.44128,-0.05499c0.24242,-0.05685 0.46399,-0.18377 0.70641,-0.24062c0.30681,-0.0455 0.64014,-0.05312 0.92992,-0.00203c0.32198,0.05678 0.6326,0.17794 0.87315,0.31996c0.20836,0.13633 0.37883,0.29919 0.58151,0.46772c0.11744,0.08711 0.26707,0.17989 0.39586,0.2026l0.74055,0.13058c0.01703,-0.0966 0.03406,-0.19319 0.05677,-0.32198c0.04542,-0.25758 0.27267,-0.41671 0.53026,-0.37129l8.37143,1.47611c0.25758,0.04542 0.4167,0.27267 0.37128,0.53025l-0.05677,0.32198c0.90154,0.15897 1.57769,0.27819 1.57769,0.27819c0.11355,-0.64396 0.27065,-1.34663 0.2232,-2.01897l-26.72417,-4.7122c-0.06813,0.38638 -0.14194,0.80495 -0.21007,1.19132c-0.05677,0.32198 0.09668,0.58143 0.3429,0.69124z" fill="#ffffff" id="svg_165" transform="rotate(5 32.7437 45.6691)"/>
   <path d="m46.343689,46.03659c-1.00024,-1.67032 -2.76357,-2.21364 -4.37354,-3.0619c-0.24055,-0.14201 -0.48678,-0.25183 -0.72733,-0.39384l-0.31241,0.64209c0.08524,0.08143 0.1326,0.18938 0.12125,0.25377c-0.04923,0.09092 -0.2803,0.08337 -0.52085,-0.05864c-0.24055,-0.14201 -0.37883,-0.29919 -0.32392,-0.4223c0.04355,-0.05872 0.14582,-0.07389 0.24242,-0.05685l0.31809,-0.67429c-0.39019,-0.2348 -0.7747,-0.50179 -1.16488,-0.73658l-0.34461,0.63641c0.08524,0.08143 0.1326,0.18938 0.08905,0.24809c-0.04923,0.09092 -0.28029,0.08338 -0.52084,-0.05864s-0.37315,-0.33138 -0.29173,-0.41662c0.04355,-0.05872 0.14583,-0.07389 0.27462,-0.05118l0.38248,-0.66293c-0.20267,-0.16853 -0.44322,-0.31055 -0.6459,-0.47908c-0.14963,-0.09278 -0.26139,-0.21208 -0.40535,-0.33706l-0.40333,0.59286c0.07956,0.11362 0.09473,0.21589 0.05118,0.27461c-0.08143,0.08524 -0.30681,0.0455 -0.50949,-0.12303c-0.20268,-0.16854 -0.33528,-0.35791 -0.25385,-0.44315c0.04355,-0.05872 0.14015,-0.04169 0.26894,-0.01898l0.43552,-0.58718c-0.32011,-0.25564 -0.63454,-0.54347 -0.94898,-0.83131l-0.52644,0.53795c0.04736,0.10795 0.09473,0.2159 0.05117,0.27462c-0.08142,0.08524 -0.30113,0.0133 -0.50381,-0.15523c-0.20267,-0.16854 -0.2974,-0.38443 -0.21597,-0.46967c0.04355,-0.05872 0.14015,-0.04169 0.26326,0.01322l0.53212,-0.57015c-0.28224,-0.28216 -0.53228,-0.55864 -0.81451,-0.8408l-0.63821,0.41865c0.04737,0.10795 0.03034,0.20454 -0.00754,0.23106c-0.08143,0.08524 -0.29546,-0.0189 -0.49246,-0.21963c-0.1648,-0.19505 -0.25952,-0.41095 -0.1781,-0.49618c0.04356,-0.05872 0.17235,-0.03601 0.28978,0.05109l0.6382,-0.41865c-0.27088,-0.34655 -0.50388,-0.71963 -0.73689,-1.0927l-0.73861,0.23495c0.01517,0.10227 0.00381,0.16667 -0.03406,0.19319c-0.11363,0.07956 -0.28978,-0.0511 -0.4489,-0.27835c-0.15913,-0.22725 -0.18946,-0.43179 -0.10803,-0.51703c0.07575,-0.05304 0.16667,-0.00381 0.27843,0.11549l0.7386,-0.23495c-0.14777,-0.29165 -0.26902,-0.54542 -0.37891,-0.86358c-0.41663,0.29172 -0.90332,0.60429 -1.39002,0.91686c-1.35216,0.89034 -2.78006,1.83372 -3.04518,2.01936c-0.07575,0.05304 -0.11363,0.07956 -0.18938,0.13261c-0.53593,0.40348 -1.53204,1.15741 -2.91654,0.91328c-1.35231,-0.23845 -2.06082,-1.49214 -2.53064,-2.40495c-0.07389,-0.14583 -0.14777,-0.29165 -0.22166,-0.43747l-0.58726,-0.99992c-0.55669,0.8978 -1.2365,1.7407 -1.67008,2.69342c-0.55475,1.26333 -0.91631,2.56073 -1.18696,3.90736l26.59539,4.68949c-0.06821,-0.17802 -0.16293,-0.39392 -0.26334,-0.57762l0.00001,0.00001z" fill="#e71b00" id="svg_166" stroke="#ffffff" stroke-width="0.2" transform="rotate(5 33.3093 40.8992)"/>
   <path d="m35.846549,37.68828l0.70827,-0.43949c-0.21784,-0.27081 -0.37128,-0.53026 -0.51905,-0.8219l-0.90527,0.23876c0.20648,0.3352 0.44517,0.67607 0.71605,1.02263z" fill="black" fill-opacity="0" id="svg_167" transform="rotate(5 35.8426 37.0576)"/>
   <circle cx="25.927634" cy="47.318034" fill="none" id="svg_168" r="0.641516" transform="rotate(5 19.8869 46.3883) matrix(0.903422 0.159298 -0.159298 0.903422 4.00093 -0.490075)"/>
   <circle cx="51.904974" cy="54.224227" fill="none" id="svg_169" r="0.641517" transform="rotate(5 43.3512 52.6756) matrix(0.903422 0.159298 -0.159298 0.903422 5.09687 -4.58017)"/>
   <path d="m27.631539,47.85665c-0.32197,-0.05677 -0.62498,0.15539 -0.68175,0.47737c-0.02271,0.12879 0.01898,0.26893 0.06634,0.37688c0.07388,0.14583 0.21784,0.27081 0.41103,0.30487s0.37121,-0.03414 0.49051,-0.1459c0.08143,-0.08524 0.16853,-0.20268 0.19124,-0.33147c0.05677,-0.32198 -0.15539,-0.62498 -0.47737,-0.68175z" fill="none" id="svg_170" transform="rotate(5 27.5307 48.436)"/>
   <path d="m37.273709,50.7552l-0.02271,0.12879l0.19319,0.03407l0.0227,-0.1288c0.18168,-1.03033 -0.50218,-2.04728 -1.5647,-2.23463l-7.82407,-1.37959c-1.03033,-0.18168 -2.04728,0.50218 -2.23463,1.5647l-0.02271,0.12879l0.19319,0.03407l0.0227,-0.12879c0.16465,-0.93374 1.07365,-1.57023 2.00739,-1.40559l7.82406,1.3796c0.97162,0.13812 1.57591,1.04145 1.40559,2.00738z" fill="none" id="svg_171" transform="rotate(5 31.6584 49.032)"/>
   <path d="m35.810879,50.0483c-0.32197,-0.05678 -0.62498,0.15539 -0.68175,0.47737c-0.02271,0.12879 0.01898,0.26893 0.06634,0.37688c0.07388,0.14582 0.21784,0.2708 0.41103,0.30487s0.37121,-0.03415 0.49051,-0.1459c0.08143,-0.08524 0.16853,-0.20268 0.19124,-0.33147c0.05678,-0.32198 -0.15539,-0.62498 -0.47737,-0.68175z" fill="none" id="svg_172" transform="rotate(5 35.7101 50.6277)"/>
   <path d="m37.106859,41.20717l0.09278,-0.14964c-0.12311,-0.0549 -0.22538,-0.03974 -0.26894,0.01898c-0.08142,0.08524 0.0455,0.30681 0.25385,0.44315c0.20268,0.16853 0.42806,0.20827 0.50949,0.12303c0.04355,-0.05872 -0.00381,-0.16666 -0.05117,-0.27461l-0.06626,0.18751l-0.46975,-0.34842z" fill="none" id="svg_173" transform="rotate(5 37.3085 41.3548)"/>
   <path d="m31.077279,30.97104c0.30495,0.15337 0.71216,0.29157 1.13073,0.36537c0.90154,0.15897 1.86748,0.32929 1.86748,0.32929l0.1249,-0.70835l0.01703,-0.0966l0.1249,-0.70835c0,0 -0.93373,-0.16464 -1.86747,-0.32928c-0.41857,-0.07381 -0.85418,-0.05102 -1.18751,-0.0434l-0.01703,0.09659c-0.07007,0.02085 -0.13447,0.00949 -0.17234,0.03601l-0.15897,0.90154c0.05872,0.04355 0.09092,0.04923 0.14963,0.09278l-0.01135,0.0644z" fill="none" id="svg_174" transform="rotate(5 32.6406 30.718)"/>
   <path d="m34.669249,30.37169c-0.09659,-0.01703 -0.22538,-0.03974 -0.22538,-0.03974l-0.12491,0.70835l-0.01703,0.0966l-0.1249,0.70835c0,0 0.09659,0.01703 0.22539,0.03974l0.26683,-1.5133z" fill="none" id="svg_175" transform="rotate(5 34.4231 31.1085)"/>
   <path d="m34.985059,30.45631c-0.0966,-0.01703 -0.22539,-0.03974 -0.22539,-0.03974l-0.1249,0.70835l-0.01703,0.0966l-0.1249,0.70835c0,0 0.09659,0.01703 0.22538,0.03974l0.26684,-1.5133z" fill="none" id="svg_176" transform="rotate(5 34.7389 31.1931)"/>
   <path d="m35.053839,31.95825l0.25548,-1.4489c-0.09659,-0.01703 -0.22538,-0.03974 -0.22538,-0.03974l-0.1249,0.70835l-0.01704,0.0966l-0.1249,0.70835l0,0c0,0 0.09659,0.01703 0.22539,0.03974l0.01135,-0.0644z" fill="none" id="svg_177" transform="rotate(5 35.0632 31.2461)"/>
   <path d="m35.751099,31.94277l0.22141,-1.25572c0,0 -0.0322,-0.00567 -0.0322,-0.00567c-0.09659,-0.01704 -0.16098,-0.02839 -0.19318,-0.03407c0,0 0,0 0,0l-0.1249,0.70835l-0.01704,0.0966l-0.08516,0.48296l-0.03974,0.22539c0,0 0.0966,0.01703 0.22539,0.03974l0.04542,-0.25758z" fill="none" id="svg_178" transform="rotate(5 35.7264 31.4238)"/>
   <path d="m35.382799,32.14762l0.03407,-0.19319l0.23845,-1.35231c-0.0322,-0.00567 -0.0322,-0.00567 -0.0644,-0.01135c-0.09659,-0.01703 -0.16099,-0.02839 -0.16099,-0.02839l-0.1249,0.70835l-0.01703,0.0966l-0.10787,0.61176l-0.02271,0.12879c0,0 0.06439,0.01135 0.12879,0.02271c0.0322,0.00567 0.0644,0.01135 0.09659,0.01703z" fill="none" id="svg_179" transform="rotate(5 35.4063 31.355)"/>
   <path d="m38.566989,42.58222l0.09278,-0.14964c-0.12879,-0.02271 -0.23106,-0.00754 -0.27462,0.05118c-0.04923,0.09091 0.08338,0.28029 0.29173,0.41662s0.46593,0.18176 0.52084,0.05864c0.04355,-0.05871 -0.00381,-0.16666 -0.08905,-0.24809l-0.09278,0.14963l-0.4489,-0.27834z" fill="none" id="svg_180" transform="rotate(5 38.7945 42.7267)"/>
   <path d="m40.132859,43.81542l0.06059,-0.15531c-0.12879,-0.02271 -0.23106,-0.00754 -0.24242,0.05685c-0.04923,0.09092 0.08337,0.2803 0.32392,0.42231c0.24055,0.14201 0.47162,0.14955 0.52085,0.05864c0.04355,-0.05872 -0.00381,-0.16667 -0.12125,-0.25377l-0.04923,0.09091l-0.49246,-0.21963z" fill="none" id="svg_181" transform="rotate(5 40.3763 43.954)"/>
   <path d="m33.682869,36.39004l0.10795,-0.04736c-0.11744,-0.0871 -0.24055,-0.14201 -0.27843,-0.11549c-0.11362,0.07956 -0.05109,0.28978 0.10803,0.51703c0.15912,0.22725 0.34096,0.32571 0.4489,0.27835c0.03788,-0.02652 0.05491,-0.12312 0.03407,-0.19319l-0.24242,0.05685l-0.1781,-0.49619z" fill="none" id="svg_182" transform="rotate(5 33.7834 36.6273)"/>
   <path d="m26.747469,37.69565c0.57956,0.1022 1.14769,-0.29561 1.24988,-0.87517s-0.29562,-1.14769 -0.87518,-1.24988c-0.57956,-0.10219 -1.14768,0.29561 -1.24988,0.87517s0.29562,1.14769 0.87518,1.24988zm0.08695,-1.24622l0.19318,0.03406l0.06821,0.17802l-0.12498,0.14396l-0.19319,-0.03406l-0.0682,-0.17803l0.12498,-0.14395z" fill="none" id="svg_183" transform="rotate(5 26.9348 36.6331)"/>
   <path d="m35.778209,39.83752l0.1193,-0.11176c-0.12311,-0.0549 -0.2197,-0.07193 -0.26325,-0.01322c-0.08143,0.08524 0.0133,0.30114 0.21597,0.46967c0.20268,0.16853 0.42238,0.24047 0.50381,0.15523c0.04355,-0.05871 0.02839,-0.16098 -0.05117,-0.27461l-0.12498,0.14396l-0.39968,-0.36927z" fill="none" id="svg_184" transform="rotate(5 35.9915 40.0246)"/>
   <path d="m37.086649,39.39383l-0.24428,0.25571c0.31443,0.28784 0.60235,0.5378 0.94898,0.83131l0.21776,-0.29359c-0.32011,-0.25564 -0.64022,-0.51128 -0.92246,-0.79343z" fill="none" id="svg_185" transform="rotate(5 37.4257 39.9373)"/>
   <path d="m39.678679,41.85987l-0.19124,0.33146c0.38451,0.267 0.77469,0.50179 1.16488,0.73658l0.15904,-0.33714c-0.35799,-0.22912 -0.74817,-0.46391 -1.13268,-0.7309z" fill="none" id="svg_186" transform="rotate(5 40.1494 42.3939)"/>
   <path d="m36.070739,38.12976l-0.303,0.21216c0.25004,0.27648 0.5266,0.59084 0.81452,0.8408l0.24428,-0.25572c-0.28792,-0.24996 -0.53796,-0.52644 -0.7558,-0.79724z" fill="none" id="svg_187" transform="rotate(5 36.2971 38.6562)"/>
   <path d="m35.114559,36.61758l-0.35036,0.10421c0.233,0.37308 0.46601,0.74615 0.73689,1.0927l0.303,-0.21216c-0.24436,-0.30868 -0.48304,-0.64956 -0.68953,-0.98475z" fill="none" id="svg_188" transform="rotate(5 35.2841 37.216)"/>
   <path d="m38.714999,40.97838c-0.14396,-0.12498 -0.29359,-0.21776 -0.40535,-0.33706l-0.21777,0.29359c0.14396,0.12498 0.2614,0.21208 0.40536,0.33706c0.20267,0.16854 0.44322,0.31055 0.6459,0.47908l0.19124,-0.33147c-0.20836,-0.13633 -0.41103,-0.30486 -0.61938,-0.4412z" fill="none" id="svg_189" transform="rotate(5 38.7131 41.1962)"/>
  </g>
  <text fill="#e71b00" font-family="Sans-serif" font-size="16" font-weight="bold" id="svg_190" stroke="#ffffff" stroke-linejoin="round" stroke-width="0" text-anchor="middle" transform="matrix(1 0 0 1 0 0) matrix(0.393702 0 0 0.355052 18.6885 10.2899)" x="53.809612" xml:space="preserve" y="172.755344">Grind Hammer Trickgame</text>
 </g>
</svg>