<?xml version="1.0"?>
<svg width="1000" height="1000" xmlns="http://www.w3.org/2000/svg" xmlns:svg="http://www.w3.org/2000/svg">
 <metadata>Svg Vector Icons : http://www.onlinewebfonts.com/icon</metadata>
 <g class="layer">
  <title>Layer 1</title>
  <text fill="#ffffff" font-family="Sans-serif" font-size="16" font-weight="bold" id="svg_6" stroke-width="0" style="cursor: move;" text-anchor="middle" transform="matrix(1 0 0 1 0 0) matrix(26.16 0 0 21.9692 -15579.6 -12230)" x="614.275817" xml:space="preserve" y="584.860067">18</text>
  <path d="m464.10001,10.53999c-67.66,5.17 -130.15,23.19 -190.34001,54.25c-128.24,66.51 -222.17,188.61001 -253.41,329.69001c-8.43,37.95 -10.35,58.85 -10.35,106.38c0.19,52.33 3.26,78.01 15.14,123.44c9.2,34.5 17.64,56.93 34.5,91.24c25.11,51.18 51.56,88.17 92.97,129.58001c40.25,40.25 74.18,65.56 121.72,90.09c141.84001,73.61 308.80001,73.61 450.84001,0c47.54,-24.73 87.98,-55.01 126.13,-94.31c184.59001,-190.15001 184.97001,-490.90001 0.96,-681.05001c-83.58,-86.25 -190.35,-137.62001 -309.57,-148.73001c-19.37,-1.73 -60.19,-2.11 -78.59,-0.58zm-61.54,65.17c2.88,13.03 4.79,24.34 4.22,25.3c-0.58,0.96 -4.41,2.3 -8.24,3.07c-13.99,2.49 -53.48001,16.68 -74.37,26.64c-23.19,11.12 -46.77001,25.11 -66.71001,39.87c-12.46,9.2 -13.23,9.58001 -15.53,6.13c-1.53,-2.11 -8.82,-11.31 -16.29,-20.7c-7.48,-9.38999 -13.61,-17.63 -13.61,-18.59c0,-2.3 34.89001,-26.45 56.35001,-39.1c32.01,-18.78 73.61,-36.04 110.41,-45.81c11.5,-3.26 16.68,-3.83 17.44,-2.3c0.78,1.15 3.65,12.65 6.33,25.49zm251.3,-12.84c25.3,9.01 55.2,22.81 76.86,35.46c20.51,11.88 56.36,36.80001 56.36,38.91001c0,0.77 -7.48,10.73 -16.48,22.04l-16.49,20.7l-6.9,-5.37c-17.44,-13.42 -45.62,-30.67 -68.43,-41.79001c-23.96,-11.69 -63.06,-26.07 -78.21,-28.94c-4.02,-0.57 -7.86,-2.3 -8.43,-3.83c-0.77,-1.92 6.71,-39.49 9.97,-50.03c0.96,-2.68 24.15,3.07 51.75,12.85zm-102.74,79.74c151.04,22.04 270.27,134.75001 302.47,286.18001c4.79,22.43 5.18,27.6 5.37,70.16c0,40.64 -0.58,48.69 -4.41,68.05c-29.52,146.64 -141.27,258.39 -287.9,287.91c-19.36,3.83 -27.41,4.41 -68.05,4.41c-42.55,-0.19 -47.73,-0.58 -70.16,-5.37c-151.43001,-32.21 -264.14001,-151.44 -286.18001,-302.48c-4.03,-26.64 -23,54.62 0,-103.13c23,-157.75 146.45,-281.58001 304.58001,-305.73001c24.16,-3.83 78.98,-3.83 104.28,0zm-422.66001,179.03001c0.96,0.96 -1.92,9.78 -6.33,20.13c-18.21,42.75 -27.79,85.11 -32.01,141.27l-1.15,16.87l-26.83,0l-27.03,0l1.34,-22.62c3.45,-59.04 17.25,-116.93 39.68,-166.19l5.56,-12.27l22.43,10.54c12.46,5.95 23.38,11.5 24.34,12.27zm794.91001,-10.16c21.09,46.58 35.84001,108.68 39.29001,165.8l1.34,22.62l-27.03,0l-26.84,0l-1.15,-16.87c-4.03,-55.4 -13.99,-99.67 -32.01,-141.08c-4.03,-9.58 -7.48,-18.21 -7.48,-18.98c0,-1.15 44.47,-23.96 47.34,-24.34c0.4,0.01 3.28,5.76 6.54,12.85l-0.00001,0zm-786.86001,378.57c8.24,17.44 32.59,53.86 49.07,73.41c13.99,16.48 37.57,40.44001 50.99,51.18001c3.26,2.88 6.13,5.56 6.13,6.33c0,0.57 -7.28,10.16 -16.1,21.28l-16.29,20.13l-13.04,-11.31c-42.36,-36.80001 -79.74,-83.19001 -106.77,-133.22001l-9.2,-16.68l23.77,-11.5c12.84,-6.13 24.15,-11.31 24.73,-11.31c0.58,-0.19 3.64,5.18 6.71,11.69zm760.40001,0.96l20.7,10.35l-9.01,16.67c-12.84,23.58 -31.44,51.56001 -48.88,73.22c-15.91,19.74 -65.75,69.01001 -69.77,69.01001c-2.11,0 -27.6,-29.9 -32.39,-37.76001c-0.77,-1.52999 1.34,-4.78999 5.94,-8.63c16.29,-13.99 36.23,-34.12 50.03,-50.41c16.49,-19.55 40.83,-55.97 49.07,-73.41c6.71,-13.99 4.41,-13.99 34.31,0.96zm-458.69,214.69001c28.37,5.18 98.91,4.41 129.19,-0.96c12.65,-2.3 23,-4.03 23.38,-3.64c0.19,0.19 2.68,10.35 5.56,22.43c2.68,12.08 5.36,23.39 5.94,25.11c2.68,9.01 -89.9,18.02 -139.93,13.42c-22.04,-2.11 -64.02,-8.63 -65.36,-10.16c-0.19,-0.38 2.3,-12.08 5.37,-26.07l5.94,-25.69l5.75,1.15c3.26,0.76 14.19,2.68 24.16,4.41z" fill="#ffffff" id="svg_3"/>
  <path d="m449.72001,161.58999c-74.18,11.69 -139.35001,44.66001 -192.07001,97.18001c-51.37,51.56 -85.3,119.23 -96.42,192.45c-3.64,24.53 -3.64,72.84 0,97.37c19.74,130.34 110.03,236.73 235.00001,276.79c38.14,12.27 54.05,14.57 101.4,14.57c56.16,0.19 83,-4.79 131.3,-23.96c82.04,-32.78 153.92,-104.66 186.7,-186.7c19.17,-48.3 24.15,-75.14 23.96,-131.3c0,-37.19 -0.58,-45.81 -4.22,-63.06c-18.77,-87.03 -63.43,-157.76 -131.86,-208.75c-45.81,-34.12001 -98.14,-55.97001 -155.26,-64.60001c-23.39,-3.44 -75.91,-3.44 -98.53,0.01zm102.55,82.23001c52.9,12.08 92.78,33.74 130.54,71.12c41.98,41.59 67.67,92.58 75.71,150.28c2.88,19.93 1.15,69.01 -2.88,87.41c-11.5,51.75 -34.88,94.31 -71.88,131.5c-37.19,36.99 -79.74,60.38 -131.49,71.88c-18.4,4.03 -67.47,5.75 -87.41,2.88c-58.27,-8.24 -108.49,-33.54 -150.28,-75.71c-37.76,-37.96 -60,-79.17 -71.31,-132.07c-4.79,-22.04 -4.79,-80.31 0,-102.36c10.73,-50.41 32.97,-92.58 67.28,-128.43c40.25,-42.36001 88.56,-68.05001 146.83,-78.40001c19.17,-3.47 76.49,-2.32 94.89,1.9l0,0.00001z" fill="#ffffff" id="svg_4"/>
 </g>
</svg>